{"glyphs":{"0":{"ha":906,"x_min":77,"x_max":829,"o":"m 457 -15 q 286 22 358 -15 q 168 125 215 58 q 99 282 122 192 q 77 478 77 372 q 119 736 77 626 q 245 909 161 847 q 453 970 328 970 q 618 935 548 970 q 735 834 688 899 q 806 678 783 769 q 829 478 829 588 q 786 217 829 328 q 661 46 744 106 q 457 -15 578 -15 m 454 89 q 601 140 545 89 q 682 278 656 190 q 708 478 708 367 q 681 684 708 597 q 597 819 653 771 q 454 867 541 867 q 308 817 365 867 q 226 679 252 767 q 199 478 199 591 q 225 277 199 365 q 307 139 251 189 q 454 89 363 89 z "},"1":{"ha":594,"x_min":44,"x_max":445,"o":"m 73 678 l 44 774 q 216 865 130 820 q 388 956 301 910 l 384 846 q 229 762 306 803 q 73 678 151 720 m 328 0 q 328 148 328 77 q 328 304 328 219 l 328 603 q 328 751 328 677 q 328 901 328 826 l 388 956 l 445 952 q 445 792 445 874 q 445 622 445 709 l 445 304 q 445 148 445 219 q 445 0 445 77 l 328 0 z "},"2":{"ha":770,"x_min":63,"x_max":697,"o":"m 67 0 l 67 85 q 152 159 110 122 q 238 233 195 197 q 409 396 338 320 q 519 543 481 472 q 557 685 557 614 q 508 820 557 775 q 359 866 458 866 q 291 860 326 866 q 219 841 256 853 q 147 811 183 829 q 76 769 111 793 l 63 887 q 131 919 94 904 q 209 946 168 935 q 293 964 250 957 q 378 970 335 970 q 541 937 474 970 q 643 843 608 904 q 678 698 678 782 q 642 541 678 619 q 534 382 606 463 q 359 211 463 300 l 204 80 l 187 104 l 380 104 q 538 104 459 104 q 697 104 617 104 l 697 0 l 67 0 z "},"3":{"ha":792,"x_min":62,"x_max":722,"o":"m 384 -15 q 295 -9 340 -15 q 209 7 251 -3 q 130 32 167 17 q 62 62 92 46 l 74 174 q 150 138 111 153 q 226 111 188 122 q 302 94 265 100 q 374 89 339 89 q 547 138 494 89 q 601 262 601 187 q 528 399 601 352 q 324 447 455 447 q 280 447 301 447 q 235 447 258 447 l 235 545 q 277 545 256 545 q 319 545 298 545 q 462 568 407 545 q 543 630 517 591 q 569 718 569 669 q 514 830 569 794 q 376 866 460 866 q 308 859 343 866 q 237 841 273 853 q 166 810 201 828 q 96 769 130 792 l 82 883 q 149 917 113 901 q 225 945 185 933 q 307 964 265 957 q 391 971 349 971 q 547 942 480 971 q 652 861 615 914 q 690 738 690 809 q 665 632 690 678 q 598 555 640 585 q 506 513 556 525 l 506 501 q 582 477 544 494 q 652 429 620 459 q 702 356 683 399 q 722 254 722 313 q 685 117 722 178 q 573 20 648 56 q 384 -15 498 -15 z "},"4":{"ha":833,"x_min":42,"x_max":797,"o":"m 501 0 q 501 126 501 67 q 501 265 501 185 l 505 286 l 505 599 q 505 747 505 673 q 505 894 505 821 l 594 922 q 517 812 555 865 q 441 704 479 758 l 275 469 q 209 375 242 422 q 142 281 176 328 l 138 324 l 532 324 l 552 324 q 633 324 588 324 q 720 324 677 324 q 797 324 764 324 l 797 219 q 720 219 764 219 q 633 219 677 219 q 552 219 588 219 l 42 219 l 42 301 q 107 393 72 343 q 179 495 142 444 q 247 590 215 547 l 369 764 q 435 858 402 811 q 502 953 469 906 l 619 953 q 619 784 619 867 q 619 618 619 701 l 619 265 q 619 126 619 185 q 619 0 619 67 l 501 0 z "},"5":{"ha":798,"x_min":62,"x_max":727,"o":"m 381 -15 q 292 -9 336 -15 q 207 7 249 -3 q 129 32 166 18 q 62 62 92 46 l 74 174 q 150 138 111 153 q 226 111 188 122 q 300 94 264 100 q 371 89 337 89 q 548 146 490 89 q 606 306 606 203 q 576 427 606 382 q 495 493 547 473 q 382 514 444 514 q 278 501 328 514 q 174 449 229 488 l 121 454 l 121 603 q 121 784 121 697 q 121 953 121 872 l 670 953 l 670 849 q 502 849 587 849 q 335 849 418 849 l 194 849 l 235 889 q 235 760 235 824 q 234 632 235 696 l 234 568 l 246 568 q 332 602 285 590 q 428 614 378 614 q 578 581 510 614 q 686 481 646 548 q 727 310 727 413 q 688 140 727 213 q 571 26 649 67 q 381 -15 494 -15 z "},"6":{"ha":843,"x_min":77,"x_max":772,"o":"m 441 -15 q 242 39 324 -15 q 119 198 161 93 q 77 456 77 303 q 102 678 77 582 q 176 839 127 774 q 294 937 224 904 q 454 970 364 970 q 526 965 491 970 q 595 951 562 960 q 658 930 628 942 q 716 903 689 918 l 702 792 q 644 824 674 810 q 583 847 614 838 q 521 861 552 856 q 460 865 490 865 q 308 818 367 865 q 221 680 249 772 q 193 453 193 588 q 221 251 193 332 q 303 130 249 170 q 437 89 358 89 q 560 121 513 89 q 631 204 608 153 q 654 312 654 255 q 632 415 654 369 q 563 490 610 462 q 442 517 516 517 q 382 512 413 517 q 319 493 351 506 q 254 456 287 479 q 188 397 222 433 q 173 436 176 419 q 173 469 169 453 q 188 508 176 486 l 208 507 q 265 555 235 534 q 328 589 295 575 q 397 610 361 603 q 472 617 433 617 q 632 579 565 617 q 735 474 699 541 q 772 318 772 406 q 735 156 772 232 q 625 32 699 80 q 441 -15 551 -15 z "},"7":{"ha":733,"x_min":35,"x_max":678,"o":"m 152 0 q 239 189 195 94 q 324 374 282 283 l 456 663 q 506 769 481 716 q 553 875 530 822 l 577 849 l 382 849 q 209 849 296 849 q 35 849 122 849 l 35 952 l 678 952 l 678 871 q 602 703 640 785 q 525 533 565 620 l 437 339 q 360 170 399 256 q 283 0 322 85 l 152 0 z "},"8":{"ha":843,"x_min":71,"x_max":772,"o":"m 422 -15 q 225 22 303 -15 q 109 124 147 60 q 71 267 71 188 q 102 396 71 345 q 180 475 134 447 q 267 513 226 503 l 267 524 q 188 564 225 536 q 126 634 150 592 q 103 733 103 677 q 142 858 103 805 q 252 941 181 912 q 422 971 324 971 q 591 941 519 971 q 701 858 662 912 q 740 733 740 805 q 717 634 740 677 q 655 564 693 592 q 575 524 617 536 l 575 513 q 663 475 617 503 q 741 396 709 447 q 772 267 772 344 q 734 124 772 188 q 618 22 696 60 q 422 -15 541 -15 m 422 90 q 555 115 503 90 q 630 181 606 139 q 654 277 654 224 q 624 381 654 340 q 540 443 593 422 q 421 463 487 463 q 303 443 356 463 q 219 381 250 422 q 189 277 189 340 q 213 181 189 224 q 288 115 237 139 q 422 90 340 90 m 422 558 q 572 603 519 558 q 625 719 625 649 q 569 830 625 792 q 422 868 514 868 q 274 830 329 868 q 219 719 219 792 q 243 635 219 672 q 312 578 267 599 q 422 558 357 558 z "},"9":{"ha":843,"x_min":71,"x_max":766,"o":"m 389 -15 q 317 -10 352 -15 q 248 4 281 -5 q 184 26 215 13 q 126 53 153 38 l 140 164 q 199 131 169 145 q 259 108 228 117 q 322 95 290 99 q 382 90 353 90 q 535 137 476 90 q 622 276 594 184 q 649 502 649 367 q 621 705 649 624 q 539 826 593 785 q 406 866 485 866 q 282 834 330 866 q 211 752 234 803 q 189 644 189 701 q 211 540 189 587 q 280 466 233 494 q 400 438 326 438 q 461 444 430 438 q 524 463 492 449 q 589 500 556 476 q 654 559 622 523 q 670 520 666 537 q 670 486 674 503 q 655 447 666 469 l 635 449 q 577 401 608 422 q 514 367 547 381 q 445 346 481 353 q 370 339 409 339 q 211 377 278 339 q 107 482 144 415 q 71 638 71 549 q 108 800 71 724 q 218 923 144 876 q 402 970 291 970 q 600 916 519 970 q 724 757 681 863 q 766 499 766 652 q 741 277 766 373 q 667 116 715 181 q 549 18 619 51 q 389 -15 478 -15 z "},"A":{"ha":958,"x_min":41,"x_max":919,"o":"m 41 0 q 102 168 70 80 q 163 335 133 256 l 285 676 q 345 841 318 767 q 399 990 372 915 l 565 990 q 618 840 592 914 q 677 675 644 767 l 799 334 q 859 166 828 252 q 919 0 890 79 l 788 0 q 727 179 758 87 q 667 352 695 271 l 487 877 l 475 877 l 293 357 q 231 180 263 272 q 168 0 199 87 l 41 0 m 224 249 l 235 347 l 737 347 l 746 249 l 224 249 z "},"Á":{"ha":958,"x_min":41,"x_max":919,"o":"m 41 0 q 102 168 70 80 q 163 335 133 256 l 285 676 q 345 841 318 767 q 399 990 372 915 l 565 990 q 618 840 592 914 q 677 675 644 767 l 799 334 q 859 166 828 252 q 919 0 890 79 l 788 0 q 727 179 758 87 q 667 352 695 271 l 487 877 l 475 877 l 293 357 q 231 180 263 272 q 168 0 199 87 l 41 0 m 224 249 l 235 347 l 737 347 l 746 249 l 224 249 m 376 1092 q 471 1219 424 1156 q 565 1344 518 1281 l 693 1346 q 618 1261 655 1303 q 543 1177 581 1219 q 469 1094 506 1135 l 376 1092 z "},"Ă":{"ha":958,"x_min":41,"x_max":919,"o":"m 41 0 q 102 168 70 80 q 163 335 133 256 l 285 676 q 345 841 318 767 q 399 990 372 915 l 565 990 q 618 840 592 914 q 677 675 644 767 l 799 334 q 859 166 828 252 q 919 0 890 79 l 788 0 q 727 179 758 87 q 667 352 695 271 l 487 877 l 475 877 l 293 357 q 231 180 263 272 q 168 0 199 87 l 41 0 m 224 249 l 235 347 l 737 347 l 746 249 l 224 249 m 477 1085 q 311 1151 368 1085 q 253 1345 253 1217 l 338 1349 q 374 1214 338 1256 q 477 1171 410 1171 q 581 1213 545 1171 q 617 1345 617 1255 l 701 1345 q 676 1202 701 1260 q 601 1115 651 1144 q 477 1085 551 1085 z "},"Ắ":{"ha":958,"x_min":41,"x_max":919,"o":"m 41 0 q 102 168 70 80 q 163 335 133 256 l 285 676 q 345 841 318 767 q 399 990 372 915 l 565 990 q 618 840 592 914 q 677 675 644 767 l 799 334 q 859 166 828 252 q 919 0 890 79 l 788 0 q 727 179 758 87 q 667 352 695 271 l 487 877 l 475 877 l 293 357 q 231 180 263 272 q 168 0 199 87 l 41 0 m 224 249 l 235 347 l 737 347 l 746 249 l 224 249 m 479 1085 q 357 1113 406 1085 q 281 1188 307 1140 q 256 1300 256 1236 l 339 1303 q 375 1203 339 1240 q 479 1167 411 1167 q 584 1203 548 1167 q 620 1300 620 1240 l 703 1300 q 647 1145 703 1204 q 479 1085 590 1085 m 393 1315 q 484 1439 439 1377 q 574 1563 529 1501 l 690 1564 q 619 1480 654 1522 q 549 1397 583 1438 q 479 1316 514 1356 l 393 1315 z "},"Ặ":{"ha":958,"x_min":41,"x_max":919,"o":"m 41 0 q 102 168 70 80 q 163 335 133 256 l 285 676 q 345 841 318 767 q 399 990 372 915 l 565 990 q 618 840 592 914 q 677 675 644 767 l 799 334 q 859 166 828 252 q 919 0 890 79 l 788 0 q 727 179 758 87 q 667 352 695 271 l 487 877 l 475 877 l 293 357 q 231 180 263 272 q 168 0 199 87 l 41 0 m 224 249 l 235 347 l 737 347 l 746 249 l 224 249 m 478 -299 q 417 -278 441 -299 q 394 -215 394 -258 q 417 -151 394 -172 q 480 -130 441 -130 q 541 -152 518 -130 q 564 -215 564 -174 q 541 -278 564 -258 q 478 -299 518 -299 m 477 1085 q 311 1151 368 1085 q 253 1345 253 1217 l 338 1349 q 374 1214 338 1256 q 477 1171 410 1171 q 581 1213 545 1171 q 617 1345 617 1255 l 701 1345 q 676 1202 701 1260 q 601 1115 651 1144 q 477 1085 551 1085 z "},"Ằ":{"ha":958,"x_min":41,"x_max":919,"o":"m 41 0 q 102 168 70 80 q 163 335 133 256 l 285 676 q 345 841 318 767 q 399 990 372 915 l 565 990 q 618 840 592 914 q 677 675 644 767 l 799 334 q 859 166 828 252 q 919 0 890 79 l 788 0 q 727 179 758 87 q 667 352 695 271 l 487 877 l 475 877 l 293 357 q 231 180 263 272 q 168 0 199 87 l 41 0 m 224 249 l 235 347 l 737 347 l 746 249 l 224 249 m 479 1085 q 357 1113 406 1085 q 281 1188 307 1140 q 256 1300 256 1236 l 339 1303 q 375 1203 339 1240 q 479 1167 411 1167 q 584 1203 548 1167 q 620 1300 620 1240 l 703 1300 q 647 1145 703 1204 q 479 1085 590 1085 m 489 1315 q 420 1396 455 1355 q 350 1478 385 1437 q 278 1563 315 1520 l 394 1564 q 484 1441 439 1503 q 575 1316 529 1378 l 489 1315 z "},"Ẳ":{"ha":958,"x_min":41,"x_max":919,"o":"m 41 0 q 102 168 70 80 q 163 335 133 256 l 285 676 q 345 841 318 767 q 399 990 372 915 l 565 990 q 618 840 592 914 q 677 675 644 767 l 799 334 q 859 166 828 252 q 919 0 890 79 l 788 0 q 727 179 758 87 q 667 352 695 271 l 487 877 l 475 877 l 293 357 q 231 180 263 272 q 168 0 199 87 l 41 0 m 224 249 l 235 347 l 737 347 l 746 249 l 224 249 m 479 1085 q 357 1113 406 1085 q 281 1188 307 1140 q 256 1300 256 1236 l 339 1303 q 375 1203 339 1240 q 479 1167 411 1167 q 584 1203 548 1167 q 620 1300 620 1240 l 703 1300 q 647 1145 703 1204 q 479 1085 590 1085 m 433 1292 l 433 1364 q 516 1394 482 1371 q 550 1451 550 1417 q 527 1493 550 1481 q 474 1506 505 1506 q 433 1501 453 1506 q 391 1489 413 1497 q 346 1469 369 1481 l 340 1542 q 368 1554 352 1548 q 403 1565 385 1560 q 444 1573 422 1569 q 488 1576 465 1576 q 559 1565 525 1576 q 616 1528 594 1553 q 638 1463 638 1503 q 617 1395 638 1422 q 566 1352 597 1367 q 503 1332 535 1337 l 503 1292 l 433 1292 z "},"Ẵ":{"ha":958,"x_min":41,"x_max":919,"o":"m 41 0 q 102 168 70 80 q 163 335 133 256 l 285 676 q 345 841 318 767 q 399 990 372 915 l 565 990 q 618 840 592 914 q 677 675 644 767 l 799 334 q 859 166 828 252 q 919 0 890 79 l 788 0 q 727 179 758 87 q 667 352 695 271 l 487 877 l 475 877 l 293 357 q 231 180 263 272 q 168 0 199 87 l 41 0 m 224 249 l 235 347 l 737 347 l 746 249 l 224 249 m 478 1085 q 356 1113 406 1085 q 281 1188 306 1140 q 255 1300 255 1236 l 338 1303 q 374 1203 338 1240 q 478 1167 410 1167 q 583 1203 547 1167 q 619 1300 619 1240 l 703 1300 q 646 1145 703 1204 q 478 1085 589 1085 m 594 1360 q 523 1377 553 1360 q 470 1418 494 1395 q 426 1459 447 1441 q 379 1476 404 1476 q 324 1451 340 1476 q 307 1381 308 1426 l 240 1381 q 275 1512 240 1466 q 368 1558 309 1558 q 438 1540 408 1558 q 490 1499 467 1522 q 535 1459 513 1476 q 581 1442 556 1442 q 636 1466 620 1442 q 652 1538 651 1491 l 719 1538 q 685 1406 719 1451 q 594 1360 651 1360 z "},"Â":{"ha":958,"x_min":41,"x_max":919,"o":"m 41 0 q 102 168 70 80 q 163 335 133 256 l 285 676 q 345 841 318 767 q 399 990 372 915 l 565 990 q 618 840 592 914 q 677 675 644 767 l 799 334 q 859 166 828 252 q 919 0 890 79 l 788 0 q 727 179 758 87 q 667 352 695 271 l 487 877 l 475 877 l 293 357 q 231 180 263 272 q 168 0 199 87 l 41 0 m 224 249 l 235 347 l 737 347 l 746 249 l 224 249 m 636 1091 q 549 1193 592 1143 q 460 1297 506 1244 l 494 1297 q 407 1194 449 1244 q 319 1094 364 1144 l 226 1094 q 320 1218 273 1156 q 415 1344 367 1281 l 540 1344 q 635 1218 588 1281 q 729 1093 682 1156 l 636 1091 z "},"Ấ":{"ha":958,"x_min":41,"x_max":930,"o":"m 41 0 q 102 168 70 80 q 163 335 133 256 l 285 676 q 345 841 318 767 q 399 990 372 915 l 565 990 q 618 840 592 914 q 677 675 644 767 l 799 334 q 859 166 828 252 q 919 0 890 79 l 788 0 q 727 179 758 87 q 667 352 695 271 l 487 877 l 475 877 l 293 357 q 231 180 263 272 q 168 0 199 87 l 41 0 m 224 249 l 235 347 l 737 347 l 746 249 l 224 249 m 633 1285 q 725 1410 680 1348 q 814 1533 769 1472 l 930 1535 q 859 1451 894 1492 q 789 1368 824 1409 q 719 1286 754 1327 l 633 1285 m 232 1094 q 324 1217 277 1155 q 418 1341 371 1278 l 531 1341 q 460 1257 494 1298 q 391 1175 425 1215 q 322 1094 356 1135 l 232 1094 m 635 1091 q 565 1174 600 1133 q 496 1256 531 1215 q 424 1341 461 1298 l 538 1341 q 631 1217 584 1279 q 724 1093 677 1154 l 635 1091 z "},"Ậ":{"ha":958,"x_min":41,"x_max":919,"o":"m 41 0 q 102 168 70 80 q 163 335 133 256 l 285 676 q 345 841 318 767 q 399 990 372 915 l 565 990 q 618 840 592 914 q 677 675 644 767 l 799 334 q 859 166 828 252 q 919 0 890 79 l 788 0 q 727 179 758 87 q 667 352 695 271 l 487 877 l 475 877 l 293 357 q 231 180 263 272 q 168 0 199 87 l 41 0 m 224 249 l 235 347 l 737 347 l 746 249 l 224 249 m 478 -299 q 417 -278 441 -299 q 394 -215 394 -258 q 417 -151 394 -172 q 480 -130 441 -130 q 541 -152 518 -130 q 564 -215 564 -174 q 541 -278 564 -258 q 478 -299 518 -299 m 636 1091 q 549 1193 592 1143 q 460 1297 506 1244 l 494 1297 q 407 1194 449 1244 q 319 1094 364 1144 l 226 1094 q 320 1218 273 1156 q 415 1344 367 1281 l 540 1344 q 635 1218 588 1281 q 729 1093 682 1156 l 636 1091 z "},"Ầ":{"ha":958,"x_min":41,"x_max":919,"o":"m 41 0 q 102 168 70 80 q 163 335 133 256 l 285 676 q 345 841 318 767 q 399 990 372 915 l 565 990 q 618 840 592 914 q 677 675 644 767 l 799 334 q 859 166 828 252 q 919 0 890 79 l 788 0 q 727 179 758 87 q 667 352 695 271 l 487 877 l 475 877 l 293 357 q 231 180 263 272 q 168 0 199 87 l 41 0 m 224 249 l 235 347 l 737 347 l 746 249 l 224 249 m 713 1286 q 644 1367 678 1326 q 574 1450 609 1408 q 502 1534 538 1492 l 618 1536 q 708 1413 663 1475 q 799 1288 753 1350 l 713 1286 m 232 1094 q 324 1217 277 1155 q 418 1341 371 1278 l 531 1341 q 460 1257 494 1298 q 391 1175 425 1215 q 322 1094 356 1135 l 232 1094 m 635 1091 q 565 1174 600 1133 q 496 1256 531 1215 q 424 1341 461 1298 l 538 1341 q 631 1217 584 1279 q 724 1093 677 1154 l 635 1091 z "},"Ẩ":{"ha":958,"x_min":41,"x_max":919,"o":"m 41 0 q 102 168 70 80 q 163 335 133 256 l 285 676 q 345 841 318 767 q 399 990 372 915 l 565 990 q 618 840 592 914 q 677 675 644 767 l 799 334 q 859 166 828 252 q 919 0 890 79 l 788 0 q 727 179 758 87 q 667 352 695 271 l 487 877 l 475 877 l 293 357 q 231 180 263 272 q 168 0 199 87 l 41 0 m 224 249 l 235 347 l 737 347 l 746 249 l 224 249 m 232 1094 q 324 1217 277 1155 q 418 1341 371 1278 l 531 1341 q 460 1257 494 1298 q 391 1175 425 1215 q 322 1094 356 1135 l 232 1094 m 635 1091 q 565 1174 600 1133 q 496 1256 531 1215 q 424 1341 461 1298 l 538 1341 q 631 1217 584 1279 q 724 1093 677 1154 l 635 1091 m 658 1276 l 658 1348 q 742 1378 708 1355 q 776 1435 776 1401 q 753 1477 776 1465 q 699 1489 731 1489 q 658 1485 678 1489 q 616 1473 638 1481 q 572 1453 595 1465 l 565 1526 q 594 1537 578 1531 q 629 1548 610 1543 q 669 1557 648 1553 q 713 1560 691 1560 q 785 1548 751 1560 q 841 1511 819 1537 q 863 1446 863 1486 q 843 1379 863 1406 q 792 1336 823 1351 q 728 1315 760 1320 l 728 1276 l 658 1276 z "},"Ẫ":{"ha":958,"x_min":41,"x_max":919,"o":"m 41 0 q 102 168 70 80 q 163 335 133 256 l 285 676 q 345 841 318 767 q 399 990 372 915 l 565 990 q 618 840 592 914 q 677 675 644 767 l 799 334 q 859 166 828 252 q 919 0 890 79 l 788 0 q 727 179 758 87 q 667 352 695 271 l 487 877 l 475 877 l 293 357 q 231 180 263 272 q 168 0 199 87 l 41 0 m 224 249 l 235 347 l 737 347 l 746 249 l 224 249 m 232 1094 q 324 1217 278 1155 q 418 1341 371 1278 l 531 1341 q 460 1257 494 1298 q 391 1175 425 1215 q 322 1094 356 1135 l 232 1094 m 635 1091 q 565 1174 600 1133 q 495 1256 531 1215 q 424 1341 460 1298 l 538 1341 q 631 1217 584 1279 q 724 1093 677 1154 l 635 1091 m 592 1374 q 522 1391 551 1374 q 469 1432 492 1409 q 424 1473 446 1455 q 378 1490 403 1490 q 323 1465 338 1490 q 306 1394 307 1440 l 239 1394 q 273 1526 239 1480 q 367 1572 308 1572 q 436 1554 407 1572 q 489 1513 465 1536 q 533 1473 512 1490 q 580 1456 555 1456 q 634 1480 619 1456 q 651 1551 650 1505 l 718 1551 q 684 1419 718 1465 q 592 1374 650 1374 z "},"Ȁ":{"ha":958,"x_min":41,"x_max":919,"o":"m 41 0 q 102 168 70 80 q 163 335 133 256 l 285 676 q 345 841 318 767 q 399 990 372 915 l 565 990 q 618 840 592 914 q 677 675 644 767 l 799 334 q 859 166 828 252 q 919 0 890 79 l 788 0 q 727 179 758 87 q 667 352 695 271 l 487 877 l 475 877 l 293 357 q 231 180 263 272 q 168 0 199 87 l 41 0 m 224 249 l 235 347 l 737 347 l 746 249 l 224 249 m 337 1092 q 266 1175 301 1133 q 193 1259 230 1217 q 120 1344 157 1301 l 240 1346 q 332 1220 285 1284 q 425 1094 378 1157 l 337 1092 m 595 1092 q 533 1175 565 1133 q 471 1259 502 1217 q 408 1344 440 1301 l 524 1346 q 600 1221 562 1284 q 678 1094 639 1158 l 595 1092 z "},"Ä":{"ha":958,"x_min":41,"x_max":919,"o":"m 41 0 q 102 168 70 80 q 163 335 133 256 l 285 676 q 345 841 318 767 q 399 990 372 915 l 565 990 q 618 840 592 914 q 677 675 644 767 l 799 334 q 859 166 828 252 q 919 0 890 79 l 788 0 q 727 179 758 87 q 667 352 695 271 l 487 877 l 475 877 l 293 357 q 231 180 263 272 q 168 0 199 87 l 41 0 m 224 249 l 235 347 l 737 347 l 746 249 l 224 249 m 626 1129 q 571 1150 592 1129 q 550 1210 550 1170 q 571 1270 550 1249 q 627 1291 592 1291 q 682 1269 662 1291 q 702 1210 702 1247 q 682 1150 702 1170 q 626 1129 661 1129 m 331 1129 q 276 1150 297 1129 q 256 1210 256 1170 q 277 1270 256 1249 q 333 1291 298 1291 q 388 1269 367 1291 q 408 1210 408 1247 q 387 1150 408 1170 q 331 1129 367 1129 z "},"Ạ":{"ha":958,"x_min":41,"x_max":919,"o":"m 41 0 q 102 168 70 80 q 163 335 133 256 l 285 676 q 345 841 318 767 q 399 990 372 915 l 565 990 q 618 840 592 914 q 677 675 644 767 l 799 334 q 859 166 828 252 q 919 0 890 79 l 788 0 q 727 179 758 87 q 667 352 695 271 l 487 877 l 475 877 l 293 357 q 231 180 263 272 q 168 0 199 87 l 41 0 m 224 249 l 235 347 l 737 347 l 746 249 l 224 249 m 478 -299 q 417 -278 441 -299 q 394 -215 394 -258 q 417 -151 394 -172 q 480 -130 441 -130 q 541 -152 518 -130 q 564 -215 564 -174 q 541 -278 564 -258 q 478 -299 518 -299 z "},"À":{"ha":958,"x_min":41,"x_max":919,"o":"m 41 0 q 102 168 70 80 q 163 335 133 256 l 285 676 q 345 841 318 767 q 399 990 372 915 l 565 990 q 618 840 592 914 q 677 675 644 767 l 799 334 q 859 166 828 252 q 919 0 890 79 l 788 0 q 727 179 758 87 q 667 352 695 271 l 487 877 l 475 877 l 293 357 q 231 180 263 272 q 168 0 199 87 l 41 0 m 224 249 l 235 347 l 737 347 l 746 249 l 224 249 m 489 1092 q 415 1175 452 1134 q 341 1259 378 1217 q 265 1344 304 1301 l 393 1346 q 488 1220 440 1283 q 582 1094 535 1157 l 489 1092 z "},"Ả":{"ha":958,"x_min":41,"x_max":919,"o":"m 41 0 q 102 168 70 80 q 163 335 133 256 l 285 676 q 345 841 318 767 q 399 990 372 915 l 565 990 q 618 840 592 914 q 677 675 644 767 l 799 334 q 859 166 828 252 q 919 0 890 79 l 788 0 q 727 179 758 87 q 667 352 695 271 l 487 877 l 475 877 l 293 357 q 231 180 263 272 q 168 0 199 87 l 41 0 m 224 249 l 235 347 l 737 347 l 746 249 l 224 249 m 427 1093 l 427 1167 q 514 1195 478 1172 q 549 1253 549 1219 q 526 1296 549 1283 q 471 1308 503 1308 q 428 1304 449 1308 q 384 1292 406 1300 q 337 1272 362 1283 l 331 1349 q 360 1362 343 1356 q 397 1374 377 1369 q 440 1382 417 1378 q 486 1385 463 1385 q 563 1373 526 1385 q 622 1335 599 1361 q 644 1266 644 1309 q 624 1196 644 1224 q 570 1152 603 1167 q 503 1133 538 1136 l 503 1093 l 427 1093 z "},"Ȃ":{"ha":958,"x_min":41,"x_max":919,"o":"m 41 0 q 102 168 70 80 q 163 335 133 256 l 285 676 q 345 841 318 767 q 399 990 372 915 l 565 990 q 618 840 592 914 q 677 675 644 767 l 799 334 q 859 166 828 252 q 919 0 890 79 l 788 0 q 727 179 758 87 q 667 352 695 271 l 487 877 l 475 877 l 293 357 q 231 180 263 272 q 168 0 199 87 l 41 0 m 224 249 l 235 347 l 737 347 l 746 249 l 224 249 m 617 1091 q 581 1226 617 1184 q 478 1269 546 1269 q 374 1227 410 1269 q 338 1095 338 1185 l 253 1095 q 279 1238 253 1181 q 354 1325 304 1296 q 478 1354 404 1354 q 644 1289 587 1354 q 701 1095 701 1223 l 617 1091 z "},"Ā":{"ha":958,"x_min":41,"x_max":919,"o":"m 41 0 q 102 168 70 80 q 163 335 133 256 l 285 676 q 345 841 318 767 q 399 990 372 915 l 565 990 q 618 840 592 914 q 677 675 644 767 l 799 334 q 859 166 828 252 q 919 0 890 79 l 788 0 q 727 179 758 87 q 667 352 695 271 l 487 877 l 475 877 l 293 357 q 231 180 263 272 q 168 0 199 87 l 41 0 m 224 249 l 235 347 l 737 347 l 746 249 l 224 249 m 261 1160 l 261 1250 q 365 1250 310 1250 q 479 1250 420 1250 q 593 1250 539 1250 q 697 1250 648 1250 l 697 1160 q 593 1160 648 1160 q 479 1160 539 1160 q 365 1160 420 1160 q 261 1160 310 1160 z "},"Ą":{"ha":958,"x_min":41,"x_max":924,"o":"m 41 0 q 102 168 70 80 q 163 335 133 256 l 285 676 q 345 841 318 767 q 399 990 372 915 l 565 990 q 618 840 592 914 q 677 675 644 767 l 799 334 q 859 166 828 252 q 919 0 890 79 l 788 0 q 727 179 758 87 q 667 352 695 271 l 487 877 l 475 877 l 293 357 q 231 180 263 272 q 168 0 199 87 l 41 0 m 224 249 l 235 347 l 737 347 l 746 249 l 224 249 m 842 -289 q 759 -275 792 -289 q 708 -235 725 -260 q 690 -176 690 -210 q 706 -111 690 -142 q 754 -51 722 -80 q 831 5 785 -22 l 831 30 l 892 35 l 918 0 q 822 -68 862 -28 q 782 -150 782 -108 q 802 -195 782 -181 q 857 -210 823 -210 q 897 -207 881 -210 q 924 -200 914 -203 l 924 -277 q 886 -285 908 -282 q 842 -289 865 -289 z "},"Å":{"ha":958,"x_min":41,"x_max":919,"o":"m 41 0 q 102 168 70 80 q 163 335 133 256 l 285 676 q 345 841 318 767 q 399 990 372 915 l 565 990 q 618 840 592 914 q 677 675 644 767 l 799 334 q 859 166 828 252 q 919 0 890 79 l 788 0 q 727 179 758 87 q 667 352 695 271 l 487 877 l 475 877 l 293 357 q 231 180 263 272 q 168 0 199 87 l 41 0 m 224 249 l 235 347 l 737 347 l 746 249 l 224 249 m 478 1083 q 396 1100 431 1083 q 340 1149 360 1117 q 320 1228 320 1182 q 364 1333 320 1294 q 479 1372 408 1372 q 561 1354 526 1372 q 617 1303 597 1336 q 637 1228 637 1271 q 617 1149 637 1181 q 561 1100 597 1117 q 478 1083 525 1083 m 478 1144 q 543 1165 517 1144 q 568 1228 568 1186 q 543 1289 568 1266 q 479 1313 518 1313 q 414 1290 440 1313 q 389 1228 389 1267 q 414 1165 389 1186 q 478 1144 440 1144 z "},"Ǻ":{"ha":958,"x_min":41,"x_max":919,"o":"m 41 0 q 102 168 70 80 q 163 335 133 256 l 285 676 q 345 841 318 767 q 399 990 372 915 l 565 990 q 618 840 592 914 q 677 675 644 767 l 799 334 q 859 166 828 252 q 919 0 890 79 l 788 0 q 727 179 758 87 q 667 352 695 271 l 487 877 l 475 877 l 293 357 q 231 180 263 272 q 168 0 199 87 l 41 0 m 224 249 l 235 347 l 737 347 l 746 249 l 224 249 m 478 1083 q 396 1100 431 1083 q 340 1149 360 1117 q 320 1228 320 1182 q 364 1333 320 1294 q 479 1372 408 1372 q 561 1354 526 1372 q 617 1303 597 1336 q 637 1228 637 1271 q 617 1149 637 1181 q 561 1100 597 1117 q 478 1083 525 1083 m 478 1144 q 543 1165 517 1144 q 568 1228 568 1186 q 543 1289 568 1266 q 479 1313 518 1313 q 414 1290 440 1313 q 389 1228 389 1267 q 414 1165 389 1186 q 478 1144 440 1144 m 399 1326 q 493 1453 447 1390 q 587 1578 540 1515 l 715 1580 q 640 1495 677 1537 q 566 1411 603 1453 q 492 1328 528 1369 l 399 1326 z "},"Ã":{"ha":958,"x_min":41,"x_max":919,"o":"m 41 0 q 102 168 70 80 q 163 335 133 256 l 285 676 q 345 841 318 767 q 399 990 372 915 l 565 990 q 618 840 592 914 q 677 675 644 767 l 799 334 q 859 166 828 252 q 919 0 890 79 l 788 0 q 727 179 758 87 q 667 352 695 271 l 487 877 l 475 877 l 293 357 q 231 180 263 272 q 168 0 199 87 l 41 0 m 224 249 l 235 347 l 737 347 l 746 249 l 224 249 m 597 1089 q 525 1107 555 1089 q 470 1149 494 1125 q 424 1191 446 1173 q 377 1209 402 1209 q 321 1183 337 1209 q 303 1110 305 1158 l 233 1110 q 268 1249 233 1201 q 365 1297 304 1297 q 436 1279 406 1297 q 490 1238 466 1261 q 535 1196 513 1214 q 583 1178 558 1178 q 639 1203 623 1178 q 656 1276 654 1229 l 726 1276 q 691 1137 726 1185 q 597 1089 656 1089 z "},"Æ":{"ha":1348,"x_min":20,"x_max":1269,"o":"m 20 0 q 111 168 64 80 q 202 335 159 256 l 388 678 q 476 841 435 766 q 557 990 517 915 l 1267 990 l 1267 883 q 1171 883 1221 883 q 1062 883 1121 883 q 931 883 1003 883 l 737 883 l 776 972 q 776 811 776 889 q 776 642 776 734 l 776 346 q 776 178 776 255 q 776 19 776 101 l 739 108 l 942 108 q 1058 108 1002 108 q 1167 108 1115 108 q 1269 108 1219 108 l 1269 0 l 652 0 q 652 159 652 83 q 652 327 652 235 l 652 660 q 652 828 652 752 q 652 979 652 905 l 714 886 l 626 886 l 343 357 q 248 180 297 272 q 151 0 198 87 l 20 0 m 253 249 l 264 348 l 699 348 l 708 249 l 253 249 m 748 449 l 748 554 l 940 554 q 1106 554 1037 554 q 1240 554 1175 554 l 1240 449 q 1172 449 1206 449 q 1102 449 1138 449 q 1027 449 1067 449 q 940 449 987 449 l 748 449 z "},"Ǽ":{"ha":1348,"x_min":20,"x_max":1269,"o":"m 20 0 q 111 168 64 80 q 202 335 159 256 l 388 678 q 476 841 435 766 q 557 990 517 915 l 1267 990 l 1267 883 q 1171 883 1221 883 q 1062 883 1121 883 q 931 883 1003 883 l 737 883 l 776 972 q 776 811 776 889 q 776 642 776 734 l 776 346 q 776 178 776 255 q 776 19 776 101 l 739 108 l 942 108 q 1058 108 1002 108 q 1167 108 1115 108 q 1269 108 1219 108 l 1269 0 l 652 0 q 652 159 652 83 q 652 327 652 235 l 652 660 q 652 828 652 752 q 652 979 652 905 l 714 886 l 626 886 l 343 357 q 248 180 297 272 q 151 0 198 87 l 20 0 m 253 249 l 264 348 l 699 348 l 708 249 l 253 249 m 748 449 l 748 554 l 940 554 q 1106 554 1037 554 q 1240 554 1175 554 l 1240 449 q 1172 449 1206 449 q 1102 449 1138 449 q 1027 449 1067 449 q 940 449 987 449 l 748 449 m 611 1092 q 706 1219 659 1156 q 799 1344 753 1281 l 928 1346 q 852 1261 890 1303 q 778 1177 815 1219 q 704 1094 741 1135 l 611 1092 z "},"B":{"ha":897,"x_min":128,"x_max":839,"o":"m 437 0 q 308 0 367 0 q 203 0 249 0 q 128 0 158 0 q 128 159 128 83 q 128 327 128 235 l 128 660 q 128 830 128 752 q 128 990 128 908 q 300 990 207 990 q 492 990 394 990 q 640 974 579 990 q 739 927 701 958 q 795 854 777 897 q 813 757 813 811 q 790 647 813 694 q 728 568 767 599 q 639 522 689 537 l 639 509 q 736 473 690 499 q 810 398 782 447 q 839 272 839 349 q 819 164 839 214 q 754 78 799 115 q 631 20 708 41 q 437 0 553 0 m 251 104 l 447 104 q 599 126 541 104 q 683 187 657 147 q 709 281 709 226 q 645 411 709 372 q 466 451 581 451 l 224 451 l 224 551 l 466 551 q 591 576 542 551 q 661 642 639 601 q 683 730 683 682 q 633 849 683 811 q 483 886 583 886 l 251 886 q 251 766 251 826 q 251 635 251 706 l 251 351 q 251 222 251 281 q 251 104 251 164 z "},"C":{"ha":951,"x_min":69,"x_max":881,"o":"m 577 -15 q 366 23 460 -15 q 206 130 272 61 q 105 293 140 199 q 69 497 69 386 q 131 762 69 647 q 303 943 193 878 q 558 1008 413 1008 q 654 1001 608 1008 q 742 983 701 994 q 819 957 784 971 q 881 928 855 943 l 869 808 q 764 859 815 840 q 664 888 713 879 q 569 897 615 897 q 378 849 462 897 q 248 710 295 800 q 200 496 200 620 q 225 340 200 413 q 298 212 249 267 q 420 125 347 156 q 589 93 492 93 q 660 98 624 93 q 730 112 695 102 q 798 138 765 122 q 865 176 832 154 l 874 57 q 810 24 845 38 q 736 2 775 10 q 658 -11 698 -7 q 577 -15 617 -15 z "},"Ć":{"ha":951,"x_min":69,"x_max":881,"o":"m 577 -15 q 366 23 460 -15 q 206 130 272 61 q 105 293 140 199 q 69 497 69 386 q 131 762 69 647 q 303 943 193 878 q 558 1008 413 1008 q 654 1001 608 1008 q 742 983 701 994 q 819 957 784 971 q 881 928 855 943 l 869 808 q 764 859 815 840 q 664 888 713 879 q 569 897 615 897 q 378 849 462 897 q 248 710 295 800 q 200 496 200 620 q 225 340 200 413 q 298 212 249 267 q 420 125 347 156 q 589 93 492 93 q 660 98 624 93 q 730 112 695 102 q 798 138 765 122 q 865 176 832 154 l 874 57 q 810 24 845 38 q 736 2 775 10 q 658 -11 698 -7 q 577 -15 617 -15 m 441 1092 q 536 1219 489 1156 q 629 1344 583 1281 l 758 1346 q 682 1261 719 1303 q 608 1177 645 1219 q 534 1094 571 1135 l 441 1092 z "},"Č":{"ha":951,"x_min":69,"x_max":881,"o":"m 577 -15 q 366 23 460 -15 q 206 130 272 61 q 105 293 140 199 q 69 497 69 386 q 131 762 69 647 q 303 943 193 878 q 558 1008 413 1008 q 654 1001 608 1008 q 742 983 701 994 q 819 957 784 971 q 881 928 855 943 l 869 808 q 764 859 815 840 q 664 888 713 879 q 569 897 615 897 q 378 849 462 897 q 248 710 295 800 q 200 496 200 620 q 225 340 200 413 q 298 212 249 267 q 420 125 347 156 q 589 93 492 93 q 660 98 624 93 q 730 112 695 102 q 798 138 765 122 q 865 176 832 154 l 874 57 q 810 24 845 38 q 736 2 775 10 q 658 -11 698 -7 q 577 -15 617 -15 m 481 1092 q 387 1218 434 1156 q 292 1344 340 1281 l 385 1345 q 473 1243 429 1294 q 561 1140 516 1192 l 528 1140 q 615 1242 572 1192 q 702 1342 658 1292 l 795 1342 q 702 1218 749 1281 q 607 1092 655 1156 l 481 1092 z "},"Ç":{"ha":951,"x_min":69,"x_max":881,"o":"m 577 -15 q 366 23 460 -15 q 206 130 272 61 q 105 293 140 199 q 69 497 69 386 q 131 762 69 647 q 303 943 193 878 q 558 1008 413 1008 q 654 1001 608 1008 q 742 983 701 994 q 819 957 784 971 q 881 928 855 943 l 869 808 q 764 859 815 840 q 664 888 713 879 q 569 897 615 897 q 378 849 462 897 q 248 710 295 800 q 200 496 200 620 q 225 340 200 413 q 298 212 249 267 q 420 125 347 156 q 589 93 492 93 q 660 98 624 93 q 730 112 695 102 q 798 138 765 122 q 865 176 832 154 l 874 57 q 810 24 845 38 q 736 2 775 10 q 658 -11 698 -7 q 577 -15 617 -15 m 520 -299 q 490 -297 506 -299 q 459 -293 474 -296 q 435 -287 445 -291 l 435 -214 q 464 -220 444 -217 q 506 -224 483 -224 q 574 -208 554 -224 q 593 -168 593 -192 q 583 -141 593 -154 q 548 -117 574 -128 q 474 -101 522 -107 l 528 26 l 594 26 l 594 0 l 560 -80 q 638 -103 610 -87 q 676 -141 665 -119 q 688 -185 688 -162 q 671 -242 688 -216 q 617 -283 654 -268 q 520 -299 581 -299 z "},"Ḉ":{"ha":951,"x_min":69,"x_max":881,"o":"m 577 -15 q 366 23 460 -15 q 206 130 272 61 q 105 293 140 199 q 69 497 69 386 q 131 762 69 647 q 303 943 193 878 q 558 1008 413 1008 q 654 1001 608 1008 q 742 983 701 994 q 819 957 784 971 q 881 928 855 943 l 869 808 q 764 859 815 840 q 664 888 713 879 q 569 897 615 897 q 378 849 462 897 q 248 710 295 800 q 200 496 200 620 q 225 340 200 413 q 298 212 249 267 q 420 125 347 156 q 589 93 492 93 q 660 98 624 93 q 730 112 695 102 q 798 138 765 122 q 865 176 832 154 l 874 57 q 810 24 845 38 q 736 2 775 10 q 658 -11 698 -7 q 577 -15 617 -15 m 520 -299 q 490 -297 506 -299 q 459 -293 474 -296 q 435 -287 445 -291 l 435 -214 q 464 -220 444 -217 q 506 -224 483 -224 q 574 -208 554 -224 q 593 -168 593 -192 q 583 -141 593 -154 q 548 -117 574 -128 q 474 -101 522 -107 l 528 26 l 594 26 l 594 0 l 560 -80 q 638 -103 610 -87 q 676 -141 665 -119 q 688 -185 688 -162 q 671 -242 688 -216 q 617 -283 654 -268 q 520 -299 581 -299 m 441 1092 q 536 1219 489 1156 q 629 1344 583 1281 l 758 1346 q 682 1261 719 1303 q 608 1177 645 1219 q 534 1094 571 1135 l 441 1092 z "},"Ĉ":{"ha":951,"x_min":69,"x_max":881,"o":"m 577 -15 q 366 23 460 -15 q 206 130 272 61 q 105 293 140 199 q 69 497 69 386 q 131 762 69 647 q 303 943 193 878 q 558 1008 413 1008 q 654 1001 608 1008 q 742 983 701 994 q 819 957 784 971 q 881 928 855 943 l 869 808 q 764 859 815 840 q 664 888 713 879 q 569 897 615 897 q 378 849 462 897 q 248 710 295 800 q 200 496 200 620 q 225 340 200 413 q 298 212 249 267 q 420 125 347 156 q 589 93 492 93 q 660 98 624 93 q 730 112 695 102 q 798 138 765 122 q 865 176 832 154 l 874 57 q 810 24 845 38 q 736 2 775 10 q 658 -11 698 -7 q 577 -15 617 -15 m 701 1091 q 614 1193 657 1143 q 525 1297 570 1244 l 558 1297 q 471 1194 514 1244 q 384 1094 428 1144 l 291 1094 q 385 1218 338 1156 q 479 1344 432 1281 l 605 1344 q 699 1218 652 1281 q 794 1093 747 1156 l 701 1091 z "},"Ċ":{"ha":951,"x_min":69,"x_max":881,"o":"m 577 -15 q 366 23 460 -15 q 206 130 272 61 q 105 293 140 199 q 69 497 69 386 q 131 762 69 647 q 303 943 193 878 q 558 1008 413 1008 q 654 1001 608 1008 q 742 983 701 994 q 819 957 784 971 q 881 928 855 943 l 869 808 q 764 859 815 840 q 664 888 713 879 q 569 897 615 897 q 378 849 462 897 q 248 710 295 800 q 200 496 200 620 q 225 340 200 413 q 298 212 249 267 q 420 125 347 156 q 589 93 492 93 q 660 98 624 93 q 730 112 695 102 q 798 138 765 122 q 865 176 832 154 l 874 57 q 810 24 845 38 q 736 2 775 10 q 658 -11 698 -7 q 577 -15 617 -15 m 542 1129 q 481 1150 504 1129 q 457 1214 457 1170 q 481 1277 457 1256 q 543 1299 504 1299 q 604 1276 581 1299 q 627 1214 627 1254 q 604 1150 627 1170 q 542 1129 581 1129 z "},"D":{"ha":1023,"x_min":128,"x_max":953,"o":"m 128 0 q 128 159 128 83 q 128 327 128 235 l 128 659 q 128 830 128 753 q 128 990 128 908 q 248 990 191 990 q 361 990 305 990 q 476 990 417 990 q 680 957 591 990 q 830 861 769 924 q 922 706 890 797 q 953 499 953 615 q 926 304 953 394 q 837 145 898 213 q 678 38 776 76 q 439 0 580 0 q 328 0 379 0 q 230 0 278 0 q 128 0 181 0 m 254 105 l 440 105 q 665 157 581 105 q 786 298 749 208 q 823 501 823 388 q 801 659 823 588 q 734 781 779 730 q 620 858 690 831 q 455 885 550 885 l 254 885 q 254 766 254 826 q 254 636 254 707 l 254 351 q 254 223 254 282 q 254 105 254 164 z "},"Ǆ":{"ha":1931,"x_min":128,"x_max":1860,"o":"m 128 0 q 128 159 128 83 q 128 327 128 235 l 128 659 q 128 830 128 753 q 128 990 128 908 q 248 990 191 990 q 361 990 305 990 q 476 990 417 990 q 680 957 591 990 q 830 861 769 924 q 922 706 890 797 q 953 499 953 615 q 926 304 953 394 q 837 145 898 213 q 678 38 776 76 q 439 0 580 0 q 328 0 379 0 q 230 0 278 0 q 128 0 181 0 m 254 105 l 440 105 q 665 157 581 105 q 786 298 749 208 q 823 501 823 388 q 801 659 823 588 q 734 781 779 730 q 620 858 690 831 q 455 885 550 885 l 254 885 q 254 766 254 826 q 254 636 254 707 l 254 351 q 254 223 254 282 q 254 105 254 164 m 1066 0 l 1066 72 q 1154 188 1105 124 q 1252 316 1203 251 q 1344 435 1302 381 l 1721 927 l 1750 883 l 1467 883 q 1282 883 1380 883 q 1077 883 1183 883 l 1077 990 l 1854 990 l 1854 900 q 1727 735 1789 816 q 1602 572 1665 653 l 1204 55 l 1185 108 l 1444 108 q 1581 108 1506 108 q 1730 108 1657 108 q 1860 108 1803 108 l 1860 0 l 1066 0 m 1403 1092 q 1309 1218 1356 1156 q 1215 1344 1262 1281 l 1308 1345 q 1395 1243 1351 1294 q 1483 1140 1438 1192 l 1450 1140 q 1538 1242 1494 1192 q 1624 1342 1581 1292 l 1717 1342 q 1624 1218 1671 1281 q 1529 1092 1577 1156 l 1403 1092 z "},"Ð":{"ha":1023,"x_min":-16,"x_max":953,"o":"m -16 439 l -16 531 q 108 531 49 531 q 219 531 167 531 l 284 531 q 396 531 336 531 q 519 531 456 531 l 519 439 q 396 439 456 439 q 284 439 336 439 l 219 439 q 108 439 167 439 q -16 439 49 439 m 128 0 q 128 159 128 83 q 128 327 128 235 l 128 659 q 128 830 128 753 q 128 990 128 908 q 248 990 191 990 q 361 990 305 990 q 476 990 417 990 q 680 957 591 990 q 830 861 769 924 q 922 706 890 797 q 953 499 953 615 q 926 304 953 394 q 837 145 898 213 q 678 38 776 76 q 439 0 580 0 q 328 0 379 0 q 230 0 278 0 q 128 0 181 0 m 254 105 l 440 105 q 665 157 581 105 q 786 298 749 208 q 823 501 823 388 q 801 659 823 588 q 734 781 779 730 q 620 858 690 831 q 455 885 550 885 l 254 885 q 254 766 254 826 q 254 636 254 707 l 254 351 q 254 223 254 282 q 254 105 254 164 z "},"Ď":{"ha":1023,"x_min":128,"x_max":953,"o":"m 128 0 q 128 159 128 83 q 128 327 128 235 l 128 659 q 128 830 128 753 q 128 990 128 908 q 248 990 191 990 q 361 990 305 990 q 476 990 417 990 q 680 957 591 990 q 830 861 769 924 q 922 706 890 797 q 953 499 953 615 q 926 304 953 394 q 837 145 898 213 q 678 38 776 76 q 439 0 580 0 q 328 0 379 0 q 230 0 278 0 q 128 0 181 0 m 254 105 l 440 105 q 665 157 581 105 q 786 298 749 208 q 823 501 823 388 q 801 659 823 588 q 734 781 779 730 q 620 858 690 831 q 455 885 550 885 l 254 885 q 254 766 254 826 q 254 636 254 707 l 254 351 q 254 223 254 282 q 254 105 254 164 m 426 1092 q 331 1218 378 1156 q 237 1344 284 1281 l 330 1345 q 417 1243 374 1294 q 506 1140 460 1192 l 472 1140 q 560 1242 517 1192 q 647 1342 603 1292 l 740 1342 q 646 1218 693 1281 q 551 1092 599 1156 l 426 1092 z "},"Đ":{"ha":1023,"x_min":-16,"x_max":953,"o":"m -16 439 l -16 531 q 108 531 49 531 q 219 531 167 531 l 284 531 q 396 531 336 531 q 519 531 456 531 l 519 439 q 396 439 456 439 q 284 439 336 439 l 219 439 q 108 439 167 439 q -16 439 49 439 m 128 0 q 128 159 128 83 q 128 327 128 235 l 128 659 q 128 830 128 753 q 128 990 128 908 q 248 990 191 990 q 361 990 305 990 q 476 990 417 990 q 680 957 591 990 q 830 861 769 924 q 922 706 890 797 q 953 499 953 615 q 926 304 953 394 q 837 145 898 213 q 678 38 776 76 q 439 0 580 0 q 328 0 379 0 q 230 0 278 0 q 128 0 181 0 m 254 105 l 440 105 q 665 157 581 105 q 786 298 749 208 q 823 501 823 388 q 801 659 823 588 q 734 781 779 730 q 620 858 690 831 q 455 885 550 885 l 254 885 q 254 766 254 826 q 254 636 254 707 l 254 351 q 254 223 254 282 q 254 105 254 164 z "},"Ḍ":{"ha":1023,"x_min":128,"x_max":953,"o":"m 128 0 q 128 159 128 83 q 128 327 128 235 l 128 659 q 128 830 128 753 q 128 990 128 908 q 248 990 191 990 q 361 990 305 990 q 476 990 417 990 q 680 957 591 990 q 830 861 769 924 q 922 706 890 797 q 953 499 953 615 q 926 304 953 394 q 837 145 898 213 q 678 38 776 76 q 439 0 580 0 q 328 0 379 0 q 230 0 278 0 q 128 0 181 0 m 254 105 l 440 105 q 665 157 581 105 q 786 298 749 208 q 823 501 823 388 q 801 659 823 588 q 734 781 779 730 q 620 858 690 831 q 455 885 550 885 l 254 885 q 254 766 254 826 q 254 636 254 707 l 254 351 q 254 223 254 282 q 254 105 254 164 m 488 -299 q 426 -278 450 -299 q 403 -215 403 -258 q 426 -151 403 -172 q 489 -130 450 -130 q 550 -152 527 -130 q 573 -215 573 -174 q 550 -278 573 -258 q 488 -299 527 -299 z "},"Ḏ":{"ha":1023,"x_min":128,"x_max":953,"o":"m 128 0 q 128 159 128 83 q 128 327 128 235 l 128 659 q 128 830 128 753 q 128 990 128 908 q 248 990 191 990 q 361 990 305 990 q 476 990 417 990 q 680 957 591 990 q 830 861 769 924 q 922 706 890 797 q 953 499 953 615 q 926 304 953 394 q 837 145 898 213 q 678 38 776 76 q 439 0 580 0 q 328 0 379 0 q 230 0 278 0 q 128 0 181 0 m 254 105 l 440 105 q 665 157 581 105 q 786 298 749 208 q 823 501 823 388 q 801 659 823 588 q 734 781 779 730 q 620 858 690 831 q 455 885 550 885 l 254 885 q 254 766 254 826 q 254 636 254 707 l 254 351 q 254 223 254 282 q 254 105 254 164 m 270 -249 l 270 -160 q 374 -160 319 -160 q 488 -160 429 -160 q 602 -160 548 -160 q 706 -160 657 -160 l 706 -249 q 602 -249 657 -249 q 488 -249 548 -249 q 374 -249 429 -249 q 270 -249 319 -249 z "},"ǅ":{"ha":1713,"x_min":128,"x_max":1663,"o":"m 128 0 q 128 159 128 83 q 128 327 128 235 l 128 659 q 128 830 128 753 q 128 990 128 908 q 248 990 191 990 q 361 990 305 990 q 476 990 417 990 q 680 957 591 990 q 830 861 769 924 q 922 706 890 797 q 953 499 953 615 q 926 304 953 394 q 837 145 898 213 q 678 38 776 76 q 439 0 580 0 q 328 0 379 0 q 230 0 278 0 q 128 0 181 0 m 254 105 l 440 105 q 665 157 581 105 q 786 298 749 208 q 823 501 823 388 q 801 659 823 588 q 734 781 779 730 q 620 858 690 831 q 455 885 550 885 l 254 885 q 254 766 254 826 q 254 636 254 707 l 254 351 q 254 223 254 282 q 254 105 254 164 m 1076 0 l 1076 59 q 1192 210 1135 136 q 1298 349 1248 284 l 1519 639 l 1535 597 l 1383 597 q 1294 597 1346 597 q 1186 597 1242 597 q 1079 597 1130 597 l 1079 689 l 1642 689 l 1642 620 q 1579 539 1615 585 q 1505 443 1543 492 q 1433 349 1467 393 l 1213 62 l 1201 92 l 1369 92 q 1457 92 1406 92 q 1563 92 1508 92 q 1663 92 1617 92 l 1663 0 l 1076 0 m 1303 794 q 1208 932 1256 863 q 1114 1070 1161 1001 l 1207 1072 q 1294 960 1251 1016 q 1381 848 1337 905 l 1350 848 q 1437 959 1394 904 q 1524 1069 1480 1014 l 1617 1069 q 1523 932 1570 1001 q 1428 794 1476 863 l 1303 794 z "},"E":{"ha":824,"x_min":128,"x_max":745,"o":"m 128 0 q 128 159 128 83 q 128 327 128 235 l 128 660 q 128 830 128 752 q 128 990 128 908 l 744 990 l 744 883 q 595 883 674 883 q 407 883 515 883 l 182 883 l 251 972 q 251 811 251 889 q 251 642 251 734 l 251 346 q 251 178 251 255 q 251 19 251 101 l 189 108 l 418 108 q 590 108 509 108 q 745 108 671 108 l 745 0 l 128 0 m 224 449 l 224 554 l 417 554 q 582 554 513 554 q 716 554 651 554 l 716 449 q 579 449 648 449 q 416 449 510 449 l 224 449 z "},"É":{"ha":824,"x_min":128,"x_max":745,"o":"m 128 0 q 128 159 128 83 q 128 327 128 235 l 128 660 q 128 830 128 752 q 128 990 128 908 l 744 990 l 744 883 q 595 883 674 883 q 407 883 515 883 l 182 883 l 251 972 q 251 811 251 889 q 251 642 251 734 l 251 346 q 251 178 251 255 q 251 19 251 101 l 189 108 l 418 108 q 590 108 509 108 q 745 108 671 108 l 745 0 l 128 0 m 224 449 l 224 554 l 417 554 q 582 554 513 554 q 716 554 651 554 l 716 449 q 579 449 648 449 q 416 449 510 449 l 224 449 m 335 1092 q 430 1219 383 1156 q 524 1344 477 1281 l 652 1346 q 577 1261 614 1303 q 502 1177 540 1219 q 428 1094 465 1135 l 335 1092 z "},"Ĕ":{"ha":824,"x_min":128,"x_max":745,"o":"m 128 0 q 128 159 128 83 q 128 327 128 235 l 128 660 q 128 830 128 752 q 128 990 128 908 l 744 990 l 744 883 q 595 883 674 883 q 407 883 515 883 l 182 883 l 251 972 q 251 811 251 889 q 251 642 251 734 l 251 346 q 251 178 251 255 q 251 19 251 101 l 189 108 l 418 108 q 590 108 509 108 q 745 108 671 108 l 745 0 l 128 0 m 224 449 l 224 554 l 417 554 q 582 554 513 554 q 716 554 651 554 l 716 449 q 579 449 648 449 q 416 449 510 449 l 224 449 m 436 1085 q 270 1151 327 1085 q 213 1345 213 1217 l 297 1349 q 333 1214 297 1256 q 436 1171 369 1171 q 540 1213 504 1171 q 576 1345 576 1255 l 660 1345 q 635 1202 660 1260 q 560 1115 610 1144 q 436 1085 510 1085 z "},"Ě":{"ha":824,"x_min":128,"x_max":745,"o":"m 128 0 q 128 159 128 83 q 128 327 128 235 l 128 660 q 128 830 128 752 q 128 990 128 908 l 744 990 l 744 883 q 595 883 674 883 q 407 883 515 883 l 182 883 l 251 972 q 251 811 251 889 q 251 642 251 734 l 251 346 q 251 178 251 255 q 251 19 251 101 l 189 108 l 418 108 q 590 108 509 108 q 745 108 671 108 l 745 0 l 128 0 m 224 449 l 224 554 l 417 554 q 582 554 513 554 q 716 554 651 554 l 716 449 q 579 449 648 449 q 416 449 510 449 l 224 449 m 376 1092 q 281 1218 328 1156 q 187 1344 234 1281 l 280 1345 q 367 1243 324 1294 q 456 1140 410 1192 l 422 1140 q 510 1242 467 1192 q 597 1342 553 1292 l 690 1342 q 596 1218 643 1281 q 501 1092 549 1156 l 376 1092 z "},"Ḝ":{"ha":824,"x_min":128,"x_max":745,"o":"m 128 0 q 128 159 128 83 q 128 327 128 235 l 128 660 q 128 830 128 752 q 128 990 128 908 l 744 990 l 744 883 q 595 883 674 883 q 407 883 515 883 l 182 883 l 251 972 q 251 811 251 889 q 251 642 251 734 l 251 346 q 251 178 251 255 q 251 19 251 101 l 189 108 l 418 108 q 590 108 509 108 q 745 108 671 108 l 745 0 l 128 0 m 224 449 l 224 554 l 417 554 q 582 554 513 554 q 716 554 651 554 l 716 449 q 579 449 648 449 q 416 449 510 449 l 224 449 m 404 -299 q 374 -297 390 -299 q 343 -293 358 -296 q 319 -287 329 -291 l 319 -214 q 348 -220 328 -217 q 390 -224 367 -224 q 458 -208 438 -224 q 477 -168 477 -192 q 467 -141 477 -154 q 432 -117 458 -128 q 358 -101 406 -107 l 412 26 l 478 26 l 478 0 l 444 -80 q 522 -103 494 -87 q 560 -141 549 -119 q 572 -185 572 -162 q 555 -242 572 -216 q 501 -283 538 -268 q 404 -299 465 -299 m 436 1085 q 270 1151 327 1085 q 213 1345 213 1217 l 297 1349 q 333 1214 297 1256 q 436 1171 369 1171 q 540 1213 504 1171 q 576 1345 576 1255 l 660 1345 q 635 1202 660 1260 q 560 1115 610 1144 q 436 1085 510 1085 z "},"Ê":{"ha":824,"x_min":128,"x_max":745,"o":"m 128 0 q 128 159 128 83 q 128 327 128 235 l 128 660 q 128 830 128 752 q 128 990 128 908 l 744 990 l 744 883 q 595 883 674 883 q 407 883 515 883 l 182 883 l 251 972 q 251 811 251 889 q 251 642 251 734 l 251 346 q 251 178 251 255 q 251 19 251 101 l 189 108 l 418 108 q 590 108 509 108 q 745 108 671 108 l 745 0 l 128 0 m 224 449 l 224 554 l 417 554 q 582 554 513 554 q 716 554 651 554 l 716 449 q 579 449 648 449 q 416 449 510 449 l 224 449 m 595 1091 q 508 1193 551 1143 q 419 1297 465 1244 l 453 1297 q 366 1194 408 1244 q 278 1094 323 1144 l 185 1094 q 279 1218 232 1156 q 374 1344 326 1281 l 499 1344 q 594 1218 547 1281 q 688 1093 641 1156 l 595 1091 z "},"Ế":{"ha":824,"x_min":128,"x_max":888,"o":"m 128 0 q 128 159 128 83 q 128 327 128 235 l 128 660 q 128 830 128 752 q 128 990 128 908 l 744 990 l 744 883 q 595 883 674 883 q 407 883 515 883 l 182 883 l 251 972 q 251 811 251 889 q 251 642 251 734 l 251 346 q 251 178 251 255 q 251 19 251 101 l 189 108 l 418 108 q 590 108 509 108 q 745 108 671 108 l 745 0 l 128 0 m 224 449 l 224 554 l 417 554 q 582 554 513 554 q 716 554 651 554 l 716 449 q 579 449 648 449 q 416 449 510 449 l 224 449 m 592 1285 q 684 1410 639 1348 q 773 1533 728 1472 l 889 1535 q 818 1451 853 1492 q 748 1368 783 1409 q 678 1286 713 1327 l 592 1285 m 191 1094 q 283 1217 236 1155 q 377 1341 330 1278 l 490 1341 q 419 1257 453 1298 q 350 1175 384 1215 q 281 1094 315 1135 l 191 1094 m 594 1091 q 524 1174 559 1133 q 455 1256 490 1215 q 383 1341 420 1298 l 497 1341 q 590 1217 543 1279 q 683 1093 636 1154 l 594 1091 z "},"Ệ":{"ha":824,"x_min":128,"x_max":745,"o":"m 128 0 q 128 159 128 83 q 128 327 128 235 l 128 660 q 128 830 128 752 q 128 990 128 908 l 744 990 l 744 883 q 595 883 674 883 q 407 883 515 883 l 182 883 l 251 972 q 251 811 251 889 q 251 642 251 734 l 251 346 q 251 178 251 255 q 251 19 251 101 l 189 108 l 418 108 q 590 108 509 108 q 745 108 671 108 l 745 0 l 128 0 m 224 449 l 224 554 l 417 554 q 582 554 513 554 q 716 554 651 554 l 716 449 q 579 449 648 449 q 416 449 510 449 l 224 449 m 438 -299 q 376 -278 400 -299 q 353 -215 353 -258 q 376 -151 353 -172 q 439 -130 400 -130 q 500 -152 477 -130 q 523 -215 523 -174 q 500 -278 523 -258 q 438 -299 477 -299 m 595 1091 q 508 1193 551 1143 q 419 1297 465 1244 l 453 1297 q 366 1194 408 1244 q 278 1094 323 1144 l 185 1094 q 279 1218 232 1156 q 374 1344 326 1281 l 499 1344 q 594 1218 547 1281 q 688 1093 641 1156 l 595 1091 z "},"Ề":{"ha":824,"x_min":128,"x_max":757,"o":"m 128 0 q 128 159 128 83 q 128 327 128 235 l 128 660 q 128 830 128 752 q 128 990 128 908 l 744 990 l 744 883 q 595 883 674 883 q 407 883 515 883 l 182 883 l 251 972 q 251 811 251 889 q 251 642 251 734 l 251 346 q 251 178 251 255 q 251 19 251 101 l 189 108 l 418 108 q 590 108 509 108 q 745 108 671 108 l 745 0 l 128 0 m 224 449 l 224 554 l 417 554 q 582 554 513 554 q 716 554 651 554 l 716 449 q 579 449 648 449 q 416 449 510 449 l 224 449 m 672 1286 q 603 1367 638 1326 q 533 1450 568 1408 q 461 1534 497 1492 l 577 1536 q 667 1413 622 1475 q 758 1288 712 1350 l 672 1286 m 191 1094 q 283 1217 236 1155 q 377 1341 330 1278 l 490 1341 q 419 1257 453 1298 q 350 1175 384 1215 q 281 1094 315 1135 l 191 1094 m 594 1091 q 524 1174 559 1133 q 455 1256 490 1215 q 383 1341 420 1298 l 497 1341 q 590 1217 543 1279 q 683 1093 636 1154 l 594 1091 z "},"Ể":{"ha":824,"x_min":128,"x_max":822,"o":"m 128 0 q 128 159 128 83 q 128 327 128 235 l 128 660 q 128 830 128 752 q 128 990 128 908 l 744 990 l 744 883 q 595 883 674 883 q 407 883 515 883 l 182 883 l 251 972 q 251 811 251 889 q 251 642 251 734 l 251 346 q 251 178 251 255 q 251 19 251 101 l 189 108 l 418 108 q 590 108 509 108 q 745 108 671 108 l 745 0 l 128 0 m 224 449 l 224 554 l 417 554 q 582 554 513 554 q 716 554 651 554 l 716 449 q 579 449 648 449 q 416 449 510 449 l 224 449 m 191 1094 q 283 1217 236 1155 q 377 1341 330 1278 l 490 1341 q 419 1257 453 1298 q 350 1175 384 1215 q 281 1094 315 1135 l 191 1094 m 594 1091 q 524 1174 559 1133 q 455 1256 490 1215 q 383 1341 420 1298 l 497 1341 q 590 1217 543 1279 q 683 1093 636 1154 l 594 1091 m 617 1276 l 617 1348 q 701 1378 667 1355 q 735 1435 735 1401 q 712 1477 735 1465 q 658 1489 690 1489 q 617 1485 638 1489 q 575 1473 597 1481 q 531 1453 554 1465 l 524 1526 q 553 1537 537 1531 q 588 1548 569 1543 q 628 1557 607 1553 q 672 1560 650 1560 q 744 1548 710 1560 q 800 1511 778 1537 q 822 1446 822 1486 q 802 1379 822 1406 q 751 1336 782 1351 q 688 1315 719 1320 l 688 1276 l 617 1276 z "},"Ễ":{"ha":824,"x_min":128,"x_max":745,"o":"m 128 0 q 128 159 128 83 q 128 327 128 235 l 128 660 q 128 830 128 752 q 128 990 128 908 l 744 990 l 744 883 q 595 883 674 883 q 407 883 515 883 l 182 883 l 251 972 q 251 811 251 889 q 251 642 251 734 l 251 346 q 251 178 251 255 q 251 19 251 101 l 189 108 l 418 108 q 590 108 509 108 q 745 108 671 108 l 745 0 l 128 0 m 224 449 l 224 554 l 417 554 q 582 554 513 554 q 716 554 651 554 l 716 449 q 579 449 648 449 q 416 449 510 449 l 224 449 m 191 1094 q 283 1217 237 1155 q 377 1341 330 1278 l 490 1341 q 419 1257 453 1298 q 350 1175 384 1215 q 281 1094 315 1135 l 191 1094 m 594 1091 q 524 1174 559 1133 q 455 1256 490 1215 q 383 1341 419 1298 l 497 1341 q 590 1217 543 1279 q 683 1093 636 1154 l 594 1091 m 551 1374 q 481 1391 510 1374 q 428 1432 451 1409 q 383 1473 405 1455 q 337 1490 362 1490 q 282 1465 297 1490 q 265 1394 266 1440 l 198 1394 q 232 1526 198 1480 q 326 1572 267 1572 q 395 1554 366 1572 q 448 1513 424 1536 q 492 1473 471 1490 q 539 1456 514 1456 q 593 1480 578 1456 q 610 1551 609 1505 l 677 1551 q 643 1419 677 1465 q 551 1374 609 1374 z "},"Ȅ":{"ha":824,"x_min":78,"x_max":745,"o":"m 128 0 q 128 159 128 83 q 128 327 128 235 l 128 660 q 128 830 128 752 q 128 990 128 908 l 744 990 l 744 883 q 595 883 674 883 q 407 883 515 883 l 182 883 l 251 972 q 251 811 251 889 q 251 642 251 734 l 251 346 q 251 178 251 255 q 251 19 251 101 l 189 108 l 418 108 q 590 108 509 108 q 745 108 671 108 l 745 0 l 128 0 m 224 449 l 224 554 l 417 554 q 582 554 513 554 q 716 554 651 554 l 716 449 q 579 449 648 449 q 416 449 510 449 l 224 449 m 296 1092 q 225 1175 260 1133 q 152 1259 189 1217 q 79 1344 116 1301 l 199 1346 q 291 1220 244 1284 q 384 1094 338 1157 l 296 1092 m 554 1092 q 492 1175 524 1133 q 430 1259 461 1217 q 367 1344 399 1301 l 483 1346 q 559 1221 521 1284 q 638 1094 598 1158 l 554 1092 z "},"Ë":{"ha":824,"x_min":128,"x_max":745,"o":"m 128 0 q 128 159 128 83 q 128 327 128 235 l 128 660 q 128 830 128 752 q 128 990 128 908 l 744 990 l 744 883 q 595 883 674 883 q 407 883 515 883 l 182 883 l 251 972 q 251 811 251 889 q 251 642 251 734 l 251 346 q 251 178 251 255 q 251 19 251 101 l 189 108 l 418 108 q 590 108 509 108 q 745 108 671 108 l 745 0 l 128 0 m 224 449 l 224 554 l 417 554 q 582 554 513 554 q 716 554 651 554 l 716 449 q 579 449 648 449 q 416 449 510 449 l 224 449 m 585 1129 q 530 1150 551 1129 q 509 1210 509 1170 q 530 1270 509 1249 q 586 1291 551 1291 q 641 1269 621 1291 q 661 1210 661 1247 q 641 1150 661 1170 q 585 1129 620 1129 m 290 1129 q 235 1150 256 1129 q 215 1210 215 1170 q 236 1270 215 1249 q 292 1291 257 1291 q 347 1269 326 1291 q 367 1210 367 1247 q 346 1150 367 1170 q 290 1129 326 1129 z "},"Ė":{"ha":824,"x_min":128,"x_max":745,"o":"m 128 0 q 128 159 128 83 q 128 327 128 235 l 128 660 q 128 830 128 752 q 128 990 128 908 l 744 990 l 744 883 q 595 883 674 883 q 407 883 515 883 l 182 883 l 251 972 q 251 811 251 889 q 251 642 251 734 l 251 346 q 251 178 251 255 q 251 19 251 101 l 189 108 l 418 108 q 590 108 509 108 q 745 108 671 108 l 745 0 l 128 0 m 224 449 l 224 554 l 417 554 q 582 554 513 554 q 716 554 651 554 l 716 449 q 579 449 648 449 q 416 449 510 449 l 224 449 m 436 1129 q 375 1150 399 1129 q 351 1214 351 1170 q 375 1277 351 1256 q 438 1299 399 1299 q 499 1276 476 1299 q 522 1214 522 1254 q 499 1150 522 1170 q 436 1129 476 1129 z "},"Ẹ":{"ha":824,"x_min":128,"x_max":745,"o":"m 128 0 q 128 159 128 83 q 128 327 128 235 l 128 660 q 128 830 128 752 q 128 990 128 908 l 744 990 l 744 883 q 595 883 674 883 q 407 883 515 883 l 182 883 l 251 972 q 251 811 251 889 q 251 642 251 734 l 251 346 q 251 178 251 255 q 251 19 251 101 l 189 108 l 418 108 q 590 108 509 108 q 745 108 671 108 l 745 0 l 128 0 m 224 449 l 224 554 l 417 554 q 582 554 513 554 q 716 554 651 554 l 716 449 q 579 449 648 449 q 416 449 510 449 l 224 449 m 438 -299 q 376 -278 400 -299 q 353 -215 353 -258 q 376 -151 353 -172 q 439 -130 400 -130 q 500 -152 477 -130 q 523 -215 523 -174 q 500 -278 523 -258 q 438 -299 477 -299 z "},"È":{"ha":824,"x_min":128,"x_max":745,"o":"m 128 0 q 128 159 128 83 q 128 327 128 235 l 128 660 q 128 830 128 752 q 128 990 128 908 l 744 990 l 744 883 q 595 883 674 883 q 407 883 515 883 l 182 883 l 251 972 q 251 811 251 889 q 251 642 251 734 l 251 346 q 251 178 251 255 q 251 19 251 101 l 189 108 l 418 108 q 590 108 509 108 q 745 108 671 108 l 745 0 l 128 0 m 224 449 l 224 554 l 417 554 q 582 554 513 554 q 716 554 651 554 l 716 449 q 579 449 648 449 q 416 449 510 449 l 224 449 m 448 1092 q 374 1175 411 1134 q 300 1259 338 1217 q 224 1344 263 1301 l 352 1346 q 447 1220 399 1283 q 541 1094 494 1157 l 448 1092 z "},"Ẻ":{"ha":824,"x_min":128,"x_max":745,"o":"m 128 0 q 128 159 128 83 q 128 327 128 235 l 128 660 q 128 830 128 752 q 128 990 128 908 l 744 990 l 744 883 q 595 883 674 883 q 407 883 515 883 l 182 883 l 251 972 q 251 811 251 889 q 251 642 251 734 l 251 346 q 251 178 251 255 q 251 19 251 101 l 189 108 l 418 108 q 590 108 509 108 q 745 108 671 108 l 745 0 l 128 0 m 224 449 l 224 554 l 417 554 q 582 554 513 554 q 716 554 651 554 l 716 449 q 579 449 648 449 q 416 449 510 449 l 224 449 m 386 1093 l 386 1167 q 473 1195 438 1172 q 508 1253 508 1219 q 485 1296 508 1283 q 430 1308 462 1308 q 387 1304 408 1308 q 343 1292 365 1300 q 296 1272 321 1283 l 290 1349 q 319 1362 302 1356 q 356 1374 336 1369 q 399 1382 376 1378 q 445 1385 422 1385 q 522 1373 485 1385 q 581 1335 558 1361 q 603 1266 603 1309 q 583 1196 603 1224 q 529 1152 562 1167 q 462 1133 497 1136 l 462 1093 l 386 1093 z "},"Ȇ":{"ha":824,"x_min":128,"x_max":745,"o":"m 128 0 q 128 159 128 83 q 128 327 128 235 l 128 660 q 128 830 128 752 q 128 990 128 908 l 744 990 l 744 883 q 595 883 674 883 q 407 883 515 883 l 182 883 l 251 972 q 251 811 251 889 q 251 642 251 734 l 251 346 q 251 178 251 255 q 251 19 251 101 l 189 108 l 418 108 q 590 108 509 108 q 745 108 671 108 l 745 0 l 128 0 m 224 449 l 224 554 l 417 554 q 582 554 513 554 q 716 554 651 554 l 716 449 q 579 449 648 449 q 416 449 510 449 l 224 449 m 576 1091 q 540 1226 576 1184 q 438 1269 505 1269 q 333 1227 369 1269 q 297 1095 297 1185 l 213 1095 q 238 1238 213 1181 q 313 1325 263 1296 q 438 1354 363 1354 q 603 1289 546 1354 q 660 1095 660 1223 l 576 1091 z "},"Ē":{"ha":824,"x_min":128,"x_max":745,"o":"m 128 0 q 128 159 128 83 q 128 327 128 235 l 128 660 q 128 830 128 752 q 128 990 128 908 l 744 990 l 744 883 q 595 883 674 883 q 407 883 515 883 l 182 883 l 251 972 q 251 811 251 889 q 251 642 251 734 l 251 346 q 251 178 251 255 q 251 19 251 101 l 189 108 l 418 108 q 590 108 509 108 q 745 108 671 108 l 745 0 l 128 0 m 224 449 l 224 554 l 417 554 q 582 554 513 554 q 716 554 651 554 l 716 449 q 579 449 648 449 q 416 449 510 449 l 224 449 m 220 1160 l 220 1250 q 324 1250 269 1250 q 438 1250 379 1250 q 552 1250 498 1250 q 656 1250 607 1250 l 656 1160 q 552 1160 607 1160 q 438 1160 498 1160 q 324 1160 379 1160 q 220 1160 269 1160 z "},"Ḗ":{"ha":824,"x_min":128,"x_max":745,"o":"m 128 0 q 128 159 128 83 q 128 327 128 235 l 128 660 q 128 830 128 752 q 128 990 128 908 l 744 990 l 744 883 q 595 883 674 883 q 407 883 515 883 l 182 883 l 251 972 q 251 811 251 889 q 251 642 251 734 l 251 346 q 251 178 251 255 q 251 19 251 101 l 189 108 l 418 108 q 590 108 509 108 q 745 108 671 108 l 745 0 l 128 0 m 224 449 l 224 554 l 417 554 q 582 554 513 554 q 716 554 651 554 l 716 449 q 579 449 648 449 q 416 449 510 449 l 224 449 m 220 1160 l 220 1250 q 324 1250 269 1250 q 438 1250 379 1250 q 552 1250 498 1250 q 656 1250 607 1250 l 656 1160 q 552 1160 607 1160 q 438 1160 498 1160 q 324 1160 379 1160 q 220 1160 269 1160 m 335 1340 q 430 1466 383 1403 q 524 1592 477 1528 l 652 1593 q 577 1508 614 1550 q 502 1424 540 1466 q 428 1342 465 1383 l 335 1340 z "},"Ḕ":{"ha":824,"x_min":128,"x_max":745,"o":"m 128 0 q 128 159 128 83 q 128 327 128 235 l 128 660 q 128 830 128 752 q 128 990 128 908 l 744 990 l 744 883 q 595 883 674 883 q 407 883 515 883 l 182 883 l 251 972 q 251 811 251 889 q 251 642 251 734 l 251 346 q 251 178 251 255 q 251 19 251 101 l 189 108 l 418 108 q 590 108 509 108 q 745 108 671 108 l 745 0 l 128 0 m 224 449 l 224 554 l 417 554 q 582 554 513 554 q 716 554 651 554 l 716 449 q 579 449 648 449 q 416 449 510 449 l 224 449 m 220 1160 l 220 1250 q 324 1250 269 1250 q 438 1250 379 1250 q 552 1250 498 1250 q 656 1250 607 1250 l 656 1160 q 552 1160 607 1160 q 438 1160 498 1160 q 324 1160 379 1160 q 220 1160 269 1160 m 448 1340 q 374 1423 411 1381 q 300 1506 338 1464 q 224 1592 263 1548 l 352 1593 q 447 1467 399 1531 q 541 1342 494 1404 l 448 1340 z "},"Ę":{"ha":824,"x_min":128,"x_max":750,"o":"m 128 0 q 128 159 128 83 q 128 327 128 235 l 128 660 q 128 830 128 752 q 128 990 128 908 l 744 990 l 744 883 q 595 883 674 883 q 407 883 515 883 l 182 883 l 251 972 q 251 811 251 889 q 251 642 251 734 l 251 346 q 251 178 251 255 q 251 19 251 101 l 189 108 l 418 108 q 590 108 509 108 q 745 108 671 108 l 745 0 l 128 0 m 224 449 l 224 554 l 417 554 q 582 554 513 554 q 716 554 651 554 l 716 449 q 579 449 648 449 q 416 449 510 449 l 224 449 m 669 -289 q 585 -275 619 -289 q 534 -235 551 -260 q 517 -176 517 -210 q 533 -111 517 -142 q 580 -51 549 -80 q 658 5 612 -22 l 658 30 l 718 35 l 744 0 q 648 -68 688 -28 q 608 -150 608 -108 q 629 -195 608 -181 q 683 -210 649 -210 q 724 -207 707 -210 q 750 -200 740 -203 l 750 -277 q 713 -285 735 -282 q 669 -289 691 -289 z "},"Ẽ":{"ha":824,"x_min":128,"x_max":745,"o":"m 128 0 q 128 159 128 83 q 128 327 128 235 l 128 660 q 128 830 128 752 q 128 990 128 908 l 744 990 l 744 883 q 595 883 674 883 q 407 883 515 883 l 182 883 l 251 972 q 251 811 251 889 q 251 642 251 734 l 251 346 q 251 178 251 255 q 251 19 251 101 l 189 108 l 418 108 q 590 108 509 108 q 745 108 671 108 l 745 0 l 128 0 m 224 449 l 224 554 l 417 554 q 582 554 513 554 q 716 554 651 554 l 716 449 q 579 449 648 449 q 416 449 510 449 l 224 449 m 556 1089 q 484 1107 514 1089 q 429 1149 453 1125 q 383 1191 405 1173 q 336 1209 361 1209 q 280 1183 296 1209 q 262 1110 264 1158 l 192 1110 q 227 1249 192 1201 q 324 1297 263 1297 q 395 1279 365 1297 q 449 1238 425 1261 q 494 1196 472 1214 q 542 1178 517 1178 q 598 1203 582 1178 q 615 1276 613 1229 l 685 1276 q 650 1137 685 1185 q 556 1089 615 1089 z "},"F":{"ha":797,"x_min":128,"x_max":732,"o":"m 128 0 q 128 159 128 83 q 128 327 128 235 l 128 659 q 128 830 128 753 q 128 990 128 908 l 732 990 l 732 882 q 583 882 663 882 q 396 882 503 882 l 199 882 l 252 972 q 252 811 252 889 q 252 641 252 734 l 252 327 q 252 159 252 235 q 252 0 252 83 l 128 0 m 222 443 l 222 548 l 405 548 q 570 548 501 548 q 704 548 640 548 l 704 443 q 566 443 635 443 q 403 443 497 443 l 222 443 z "},"G":{"ha":1018,"x_min":69,"x_max":922,"o":"m 597 -15 q 370 24 468 -15 q 205 132 272 63 q 104 295 138 201 q 69 497 69 388 q 131 762 69 647 q 305 943 192 878 q 569 1008 417 1008 q 670 1001 621 1008 q 762 982 719 994 q 842 956 806 970 q 905 928 878 942 l 894 808 q 782 859 836 840 q 676 888 728 879 q 576 897 625 897 q 425 870 494 897 q 305 791 356 843 q 227 665 254 739 q 199 497 199 590 q 223 338 199 412 q 297 209 247 265 q 424 123 347 153 q 606 92 501 92 q 684 95 645 92 q 761 108 723 99 q 835 130 799 117 q 907 163 872 144 l 922 44 q 863 23 898 33 q 785 4 828 13 q 694 -10 742 -5 q 597 -15 647 -15 m 803 42 q 803 171 803 116 q 803 281 803 226 q 803 396 803 346 q 803 497 803 446 l 922 497 q 922 396 922 446 q 922 281 922 346 q 922 171 922 226 q 922 44 922 117 l 803 42 z "},"Ğ":{"ha":1018,"x_min":69,"x_max":922,"o":"m 597 -15 q 370 24 468 -15 q 205 132 272 63 q 104 295 138 201 q 69 497 69 388 q 131 762 69 647 q 305 943 192 878 q 569 1008 417 1008 q 670 1001 621 1008 q 762 982 719 994 q 842 956 806 970 q 905 928 878 942 l 894 808 q 782 859 836 840 q 676 888 728 879 q 576 897 625 897 q 425 870 494 897 q 305 791 356 843 q 227 665 254 739 q 199 497 199 590 q 223 338 199 412 q 297 209 247 265 q 424 123 347 153 q 606 92 501 92 q 684 95 645 92 q 761 108 723 99 q 835 130 799 117 q 907 163 872 144 l 922 44 q 863 23 898 33 q 785 4 828 13 q 694 -10 742 -5 q 597 -15 647 -15 m 803 42 q 803 171 803 116 q 803 281 803 226 q 803 396 803 346 q 803 497 803 446 l 922 497 q 922 396 922 446 q 922 281 922 346 q 922 171 922 226 q 922 44 922 117 l 803 42 m 552 1085 q 386 1151 443 1085 q 328 1345 328 1217 l 413 1349 q 449 1214 413 1256 q 552 1171 485 1171 q 656 1213 620 1171 q 692 1345 692 1255 l 776 1345 q 751 1202 776 1260 q 676 1115 726 1144 q 552 1085 626 1085 z "},"Ǧ":{"ha":1018,"x_min":69,"x_max":922,"o":"m 597 -15 q 370 24 468 -15 q 205 132 272 63 q 104 295 138 201 q 69 497 69 388 q 131 762 69 647 q 305 943 192 878 q 569 1008 417 1008 q 670 1001 621 1008 q 762 982 719 994 q 842 956 806 970 q 905 928 878 942 l 894 808 q 782 859 836 840 q 676 888 728 879 q 576 897 625 897 q 425 870 494 897 q 305 791 356 843 q 227 665 254 739 q 199 497 199 590 q 223 338 199 412 q 297 209 247 265 q 424 123 347 153 q 606 92 501 92 q 684 95 645 92 q 761 108 723 99 q 835 130 799 117 q 907 163 872 144 l 922 44 q 863 23 898 33 q 785 4 828 13 q 694 -10 742 -5 q 597 -15 647 -15 m 803 42 q 803 171 803 116 q 803 281 803 226 q 803 396 803 346 q 803 497 803 446 l 922 497 q 922 396 922 446 q 922 281 922 346 q 922 171 922 226 q 922 44 922 117 l 803 42 m 492 1092 q 397 1218 444 1156 q 303 1344 350 1281 l 396 1345 q 483 1243 440 1294 q 572 1140 526 1192 l 538 1140 q 626 1242 583 1192 q 713 1342 669 1292 l 806 1342 q 712 1218 759 1281 q 617 1092 665 1156 l 492 1092 z "},"Ĝ":{"ha":1018,"x_min":69,"x_max":922,"o":"m 597 -15 q 370 24 468 -15 q 205 132 272 63 q 104 295 138 201 q 69 497 69 388 q 131 762 69 647 q 305 943 192 878 q 569 1008 417 1008 q 670 1001 621 1008 q 762 982 719 994 q 842 956 806 970 q 905 928 878 942 l 894 808 q 782 859 836 840 q 676 888 728 879 q 576 897 625 897 q 425 870 494 897 q 305 791 356 843 q 227 665 254 739 q 199 497 199 590 q 223 338 199 412 q 297 209 247 265 q 424 123 347 153 q 606 92 501 92 q 684 95 645 92 q 761 108 723 99 q 835 130 799 117 q 907 163 872 144 l 922 44 q 863 23 898 33 q 785 4 828 13 q 694 -10 742 -5 q 597 -15 647 -15 m 803 42 q 803 171 803 116 q 803 281 803 226 q 803 396 803 346 q 803 497 803 446 l 922 497 q 922 396 922 446 q 922 281 922 346 q 922 171 922 226 q 922 44 922 117 l 803 42 m 711 1091 q 624 1193 667 1143 q 535 1297 581 1244 l 569 1297 q 482 1194 524 1244 q 394 1094 439 1144 l 301 1094 q 395 1218 348 1156 q 490 1344 442 1281 l 615 1344 q 710 1218 663 1281 q 804 1093 757 1156 l 711 1091 z "},"Ģ":{"ha":1018,"x_min":69,"x_max":922,"o":"m 597 -15 q 370 24 468 -15 q 205 132 272 63 q 104 295 138 201 q 69 497 69 388 q 131 762 69 647 q 305 943 192 878 q 569 1008 417 1008 q 670 1001 621 1008 q 762 982 719 994 q 842 956 806 970 q 905 928 878 942 l 894 808 q 782 859 836 840 q 676 888 728 879 q 576 897 625 897 q 425 870 494 897 q 305 791 356 843 q 227 665 254 739 q 199 497 199 590 q 223 338 199 412 q 297 209 247 265 q 424 123 347 153 q 606 92 501 92 q 684 95 645 92 q 761 108 723 99 q 835 130 799 117 q 907 163 872 144 l 922 44 q 863 23 898 33 q 785 4 828 13 q 694 -10 742 -5 q 597 -15 647 -15 m 803 42 q 803 171 803 116 q 803 281 803 226 q 803 396 803 346 q 803 497 803 446 l 922 497 q 922 396 922 446 q 922 281 922 346 q 922 171 922 226 q 922 44 922 117 l 803 42 m 460 -396 q 495 -319 488 -356 q 502 -226 502 -281 q 502 -180 502 -203 q 502 -134 502 -157 l 560 -130 q 614 -151 596 -131 q 632 -203 632 -172 q 618 -275 632 -239 q 577 -341 603 -310 q 516 -394 551 -372 l 460 -396 z "},"Ġ":{"ha":1018,"x_min":69,"x_max":922,"o":"m 597 -15 q 370 24 468 -15 q 205 132 272 63 q 104 295 138 201 q 69 497 69 388 q 131 762 69 647 q 305 943 192 878 q 569 1008 417 1008 q 670 1001 621 1008 q 762 982 719 994 q 842 956 806 970 q 905 928 878 942 l 894 808 q 782 859 836 840 q 676 888 728 879 q 576 897 625 897 q 425 870 494 897 q 305 791 356 843 q 227 665 254 739 q 199 497 199 590 q 223 338 199 412 q 297 209 247 265 q 424 123 347 153 q 606 92 501 92 q 684 95 645 92 q 761 108 723 99 q 835 130 799 117 q 907 163 872 144 l 922 44 q 863 23 898 33 q 785 4 828 13 q 694 -10 742 -5 q 597 -15 647 -15 m 803 42 q 803 171 803 116 q 803 281 803 226 q 803 396 803 346 q 803 497 803 446 l 922 497 q 922 396 922 446 q 922 281 922 346 q 922 171 922 226 q 922 44 922 117 l 803 42 m 552 1129 q 491 1150 515 1129 q 467 1214 467 1170 q 491 1277 467 1256 q 553 1299 515 1299 q 615 1276 592 1299 q 638 1214 638 1254 q 615 1150 638 1170 q 552 1129 592 1129 z "},"Ḡ":{"ha":1018,"x_min":69,"x_max":922,"o":"m 597 -15 q 370 24 468 -15 q 205 132 272 63 q 104 295 138 201 q 69 497 69 388 q 131 762 69 647 q 305 943 192 878 q 569 1008 417 1008 q 670 1001 621 1008 q 762 982 719 994 q 842 956 806 970 q 905 928 878 942 l 894 808 q 782 859 836 840 q 676 888 728 879 q 576 897 625 897 q 425 870 494 897 q 305 791 356 843 q 227 665 254 739 q 199 497 199 590 q 223 338 199 412 q 297 209 247 265 q 424 123 347 153 q 606 92 501 92 q 684 95 645 92 q 761 108 723 99 q 835 130 799 117 q 907 163 872 144 l 922 44 q 863 23 898 33 q 785 4 828 13 q 694 -10 742 -5 q 597 -15 647 -15 m 803 42 q 803 171 803 116 q 803 281 803 226 q 803 396 803 346 q 803 497 803 446 l 922 497 q 922 396 922 446 q 922 281 922 346 q 922 171 922 226 q 922 44 922 117 l 803 42 m 336 1160 l 336 1250 q 440 1250 385 1250 q 554 1250 495 1250 q 668 1250 614 1250 q 772 1250 723 1250 l 772 1160 q 668 1160 723 1160 q 554 1160 614 1160 q 440 1160 495 1160 q 336 1160 385 1160 z "},"H":{"ha":1041,"x_min":128,"x_max":913,"o":"m 787 0 q 787 159 787 83 q 787 327 787 235 l 787 659 q 787 830 787 753 q 787 990 787 908 l 913 990 q 913 830 913 908 q 913 659 913 753 l 913 327 q 913 159 913 235 q 913 0 913 83 l 787 0 m 128 0 q 128 159 128 83 q 128 327 128 235 l 128 659 q 128 830 128 753 q 128 990 128 908 l 254 990 q 254 830 254 908 q 254 659 254 753 l 254 327 q 254 159 254 235 q 254 0 254 83 l 128 0 m 210 447 l 210 556 l 835 556 l 835 447 l 210 447 z "},"Ħ":{"ha":1041,"x_min":21,"x_max":1022,"o":"m 787 0 q 787 159 787 83 q 787 327 787 235 l 787 659 q 787 830 787 753 q 787 990 787 908 l 913 990 q 913 882 913 935 q 913 776 913 830 q 913 659 913 722 l 913 327 q 913 159 913 235 q 913 0 913 83 l 787 0 m 128 0 q 128 159 128 83 q 128 327 128 235 l 128 659 q 128 776 128 722 q 128 882 128 830 q 128 990 128 935 l 254 990 q 254 830 254 908 q 254 659 254 753 l 254 327 q 254 159 254 235 q 254 0 254 83 l 128 0 m 210 438 l 210 542 l 835 542 l 835 438 l 210 438 m 21 724 l 21 812 q 160 812 93 812 q 285 812 226 812 l 758 812 q 883 812 817 812 q 1022 812 950 812 l 1022 724 q 883 724 950 724 q 758 724 817 724 l 285 724 q 160 724 226 724 q 21 724 93 724 z "},"Ḫ":{"ha":1041,"x_min":128,"x_max":913,"o":"m 787 0 q 787 159 787 83 q 787 327 787 235 l 787 659 q 787 830 787 753 q 787 990 787 908 l 913 990 q 913 830 913 908 q 913 659 913 753 l 913 327 q 913 159 913 235 q 913 0 913 83 l 787 0 m 128 0 q 128 159 128 83 q 128 327 128 235 l 128 659 q 128 830 128 753 q 128 990 128 908 l 254 990 q 254 830 254 908 q 254 659 254 753 l 254 327 q 254 159 254 235 q 254 0 254 83 l 128 0 m 210 447 l 210 556 l 835 556 l 835 447 l 210 447 m 520 -345 q 354 -280 412 -345 q 297 -86 297 -214 l 382 -82 q 418 -217 382 -175 q 520 -260 453 -260 q 624 -218 588 -260 q 660 -86 660 -176 l 745 -86 q 720 -229 745 -172 q 644 -316 694 -287 q 520 -345 594 -345 z "},"Ĥ":{"ha":1041,"x_min":128,"x_max":913,"o":"m 787 0 q 787 159 787 83 q 787 327 787 235 l 787 659 q 787 830 787 753 q 787 990 787 908 l 913 990 q 913 830 913 908 q 913 659 913 753 l 913 327 q 913 159 913 235 q 913 0 913 83 l 787 0 m 128 0 q 128 159 128 83 q 128 327 128 235 l 128 659 q 128 830 128 753 q 128 990 128 908 l 254 990 q 254 830 254 908 q 254 659 254 753 l 254 327 q 254 159 254 235 q 254 0 254 83 l 128 0 m 210 447 l 210 556 l 835 556 l 835 447 l 210 447 m 678 1091 q 591 1193 635 1143 q 503 1297 548 1244 l 536 1297 q 449 1194 492 1244 q 362 1094 406 1144 l 269 1094 q 363 1218 315 1156 q 457 1344 410 1281 l 583 1344 q 677 1218 630 1281 q 772 1093 724 1156 l 678 1091 z "},"Ḥ":{"ha":1041,"x_min":128,"x_max":913,"o":"m 787 0 q 787 159 787 83 q 787 327 787 235 l 787 659 q 787 830 787 753 q 787 990 787 908 l 913 990 q 913 830 913 908 q 913 659 913 753 l 913 327 q 913 159 913 235 q 913 0 913 83 l 787 0 m 128 0 q 128 159 128 83 q 128 327 128 235 l 128 659 q 128 830 128 753 q 128 990 128 908 l 254 990 q 254 830 254 908 q 254 659 254 753 l 254 327 q 254 159 254 235 q 254 0 254 83 l 128 0 m 210 447 l 210 556 l 835 556 l 835 447 l 210 447 m 521 -299 q 460 -278 483 -299 q 436 -215 436 -258 q 460 -151 436 -172 q 522 -130 483 -130 q 583 -152 560 -130 q 606 -215 606 -174 q 583 -278 606 -258 q 521 -299 560 -299 z "},"I":{"ha":388,"x_min":131,"x_max":258,"o":"m 131 0 q 131 159 131 83 q 131 327 131 235 l 131 659 q 131 830 131 753 q 131 990 131 908 l 258 990 q 258 830 258 908 q 258 659 258 753 l 258 327 q 258 159 258 235 q 258 0 258 83 l 131 0 z "},"Í":{"ha":388,"x_min":90,"x_max":406,"o":"m 131 0 q 131 159 131 83 q 131 327 131 235 l 131 659 q 131 830 131 753 q 131 990 131 908 l 258 990 q 258 830 258 908 q 258 659 258 753 l 258 327 q 258 159 258 235 q 258 0 258 83 l 131 0 m 90 1092 q 184 1219 138 1156 q 278 1344 231 1281 l 406 1346 q 331 1261 368 1303 q 257 1177 294 1219 q 183 1094 219 1135 l 90 1092 z "},"Ĭ":{"ha":388,"x_min":-33,"x_max":415,"o":"m 131 0 q 131 159 131 83 q 131 327 131 235 l 131 659 q 131 830 131 753 q 131 990 131 908 l 258 990 q 258 830 258 908 q 258 659 258 753 l 258 327 q 258 159 258 235 q 258 0 258 83 l 131 0 m 190 1085 q 24 1151 81 1085 q -33 1345 -33 1217 l 51 1349 q 87 1214 51 1256 q 190 1171 123 1171 q 294 1213 258 1171 q 330 1345 330 1255 l 415 1345 q 389 1202 415 1260 q 314 1115 364 1144 q 190 1085 264 1085 z "},"Î":{"ha":388,"x_min":-60,"x_max":442,"o":"m 131 0 q 131 159 131 83 q 131 327 131 235 l 131 659 q 131 830 131 753 q 131 990 131 908 l 258 990 q 258 830 258 908 q 258 659 258 753 l 258 327 q 258 159 258 235 q 258 0 258 83 l 131 0 m 349 1091 q 262 1193 306 1143 q 174 1297 219 1244 l 207 1297 q 120 1194 163 1244 q 33 1094 77 1144 l -60 1094 q 33 1218 -14 1156 q 128 1344 81 1281 l 253 1344 q 348 1218 301 1281 q 442 1093 395 1156 l 349 1091 z "},"Ȉ":{"ha":388,"x_min":-167,"x_max":392,"o":"m 131 0 q 131 159 131 83 q 131 327 131 235 l 131 659 q 131 830 131 753 q 131 990 131 908 l 258 990 q 258 830 258 908 q 258 659 258 753 l 258 327 q 258 159 258 235 q 258 0 258 83 l 131 0 m 50 1092 q -21 1175 15 1133 q -93 1259 -57 1217 q -167 1344 -130 1301 l -47 1346 q 45 1220 -1 1284 q 138 1094 92 1157 l 50 1092 m 308 1092 q 247 1175 278 1133 q 184 1259 215 1217 q 121 1344 153 1301 l 237 1346 q 314 1221 275 1284 q 392 1094 352 1158 l 308 1092 z "},"Ï":{"ha":388,"x_min":-31,"x_max":415,"o":"m 131 0 q 131 159 131 83 q 131 327 131 235 l 131 659 q 131 830 131 753 q 131 990 131 908 l 258 990 q 258 830 258 908 q 258 659 258 753 l 258 327 q 258 159 258 235 q 258 0 258 83 l 131 0 m 339 1129 q 284 1150 305 1129 q 263 1210 263 1170 q 284 1270 263 1249 q 340 1291 306 1291 q 395 1269 375 1291 q 415 1210 415 1247 q 395 1150 415 1170 q 339 1129 374 1129 m 44 1129 q -10 1150 10 1129 q -31 1210 -31 1170 q -10 1270 -31 1249 q 46 1291 11 1291 q 101 1269 81 1291 q 121 1210 121 1247 q 100 1150 121 1170 q 44 1129 80 1129 z "},"Ḯ":{"ha":388,"x_min":-31,"x_max":415,"o":"m 131 0 q 131 159 131 83 q 131 327 131 235 l 131 659 q 131 830 131 753 q 131 990 131 908 l 258 990 q 258 830 258 908 q 258 659 258 753 l 258 327 q 258 159 258 235 q 258 0 258 83 l 131 0 m 339 1129 q 284 1150 305 1129 q 263 1210 263 1170 q 284 1270 263 1249 q 340 1291 306 1291 q 395 1269 375 1291 q 415 1210 415 1247 q 395 1150 415 1170 q 339 1129 374 1129 m 44 1129 q -10 1150 10 1129 q -31 1210 -31 1170 q -10 1270 -31 1249 q 46 1291 11 1291 q 101 1269 81 1291 q 121 1210 121 1247 q 100 1150 121 1170 q 44 1129 80 1129 m 88 1344 q 183 1470 136 1408 q 276 1596 230 1533 l 405 1597 q 330 1512 367 1554 q 255 1428 292 1470 q 181 1346 218 1387 l 88 1344 z "},"İ":{"ha":388,"x_min":106,"x_max":276,"o":"m 131 0 q 131 159 131 83 q 131 327 131 235 l 131 659 q 131 830 131 753 q 131 990 131 908 l 258 990 q 258 830 258 908 q 258 659 258 753 l 258 327 q 258 159 258 235 q 258 0 258 83 l 131 0 m 190 1129 q 129 1150 153 1129 q 106 1214 106 1170 q 129 1277 106 1256 q 192 1299 153 1299 q 253 1276 230 1299 q 276 1214 276 1254 q 253 1150 276 1170 q 190 1129 230 1129 z "},"Ị":{"ha":388,"x_min":107,"x_max":277,"o":"m 131 0 q 131 159 131 83 q 131 327 131 235 l 131 659 q 131 830 131 753 q 131 990 131 908 l 258 990 q 258 830 258 908 q 258 659 258 753 l 258 327 q 258 159 258 235 q 258 0 258 83 l 131 0 m 192 -299 q 131 -278 154 -299 q 107 -215 107 -258 q 131 -151 107 -172 q 193 -130 154 -130 q 254 -152 231 -130 q 277 -215 277 -174 q 254 -278 277 -258 q 192 -299 231 -299 z "},"Ì":{"ha":388,"x_min":-22,"x_max":295,"o":"m 131 0 q 131 159 131 83 q 131 327 131 235 l 131 659 q 131 830 131 753 q 131 990 131 908 l 258 990 q 258 830 258 908 q 258 659 258 753 l 258 327 q 258 159 258 235 q 258 0 258 83 l 131 0 m 202 1092 q 128 1175 165 1134 q 55 1259 92 1217 q -22 1344 17 1301 l 106 1346 q 201 1220 153 1283 q 295 1094 248 1157 l 202 1092 z "},"Ỉ":{"ha":388,"x_min":44,"x_max":358,"o":"m 131 0 q 131 159 131 83 q 131 327 131 235 l 131 659 q 131 830 131 753 q 131 990 131 908 l 258 990 q 258 830 258 908 q 258 659 258 753 l 258 327 q 258 159 258 235 q 258 0 258 83 l 131 0 m 140 1093 l 140 1167 q 227 1195 192 1172 q 263 1253 263 1219 q 239 1296 263 1283 q 184 1308 216 1308 q 141 1304 163 1308 q 97 1292 119 1300 q 50 1272 75 1283 l 44 1349 q 73 1362 56 1356 q 110 1374 90 1369 q 153 1382 131 1378 q 199 1385 176 1385 q 276 1373 240 1385 q 335 1335 312 1361 q 358 1266 358 1309 q 337 1196 358 1224 q 283 1152 316 1167 q 216 1133 251 1136 l 216 1093 l 140 1093 z "},"Ȋ":{"ha":388,"x_min":-33,"x_max":415,"o":"m 131 0 q 131 159 131 83 q 131 327 131 235 l 131 659 q 131 830 131 753 q 131 990 131 908 l 258 990 q 258 830 258 908 q 258 659 258 753 l 258 327 q 258 159 258 235 q 258 0 258 83 l 131 0 m 330 1091 q 294 1226 330 1184 q 192 1269 259 1269 q 87 1227 123 1269 q 51 1095 51 1185 l -33 1095 q -8 1238 -33 1181 q 67 1325 17 1296 q 192 1354 117 1354 q 357 1289 300 1354 q 415 1095 415 1223 l 330 1091 z "},"Ī":{"ha":388,"x_min":-26,"x_max":410,"o":"m 131 0 q 131 159 131 83 q 131 327 131 235 l 131 659 q 131 830 131 753 q 131 990 131 908 l 258 990 q 258 830 258 908 q 258 659 258 753 l 258 327 q 258 159 258 235 q 258 0 258 83 l 131 0 m -26 1160 l -26 1250 q 78 1250 24 1250 q 192 1250 133 1250 q 307 1250 252 1250 q 410 1250 361 1250 l 410 1160 q 307 1160 361 1160 q 192 1160 252 1160 q 78 1160 133 1160 q -26 1160 24 1160 z "},"Į":{"ha":388,"x_min":30,"x_max":263,"o":"m 131 0 q 131 159 131 83 q 131 327 131 235 l 131 659 q 131 830 131 753 q 131 990 131 908 l 258 990 q 258 830 258 908 q 258 659 258 753 l 258 327 q 258 159 258 235 q 258 0 258 83 l 131 0 m 182 -289 q 98 -275 132 -289 q 47 -235 65 -260 q 30 -176 30 -210 q 46 -111 30 -142 q 93 -51 62 -80 q 171 5 125 -22 l 171 30 l 231 35 l 258 0 q 161 -68 201 -28 q 122 -150 122 -108 q 142 -195 122 -181 q 197 -210 163 -210 q 237 -207 220 -210 q 263 -200 253 -203 l 263 -277 q 226 -285 248 -282 q 182 -289 204 -289 z "},"Ĩ":{"ha":388,"x_min":-54,"x_max":439,"o":"m 131 0 q 131 159 131 83 q 131 327 131 235 l 131 659 q 131 830 131 753 q 131 990 131 908 l 258 990 q 258 830 258 908 q 258 659 258 753 l 258 327 q 258 159 258 235 q 258 0 258 83 l 131 0 m 310 1089 q 238 1107 268 1089 q 183 1149 208 1125 q 137 1191 159 1173 q 90 1209 115 1209 q 34 1183 50 1209 q 16 1110 18 1158 l -54 1110 q -18 1249 -54 1201 q 78 1297 17 1297 q 149 1279 119 1297 q 203 1238 179 1261 q 249 1196 226 1214 q 297 1178 271 1178 q 352 1203 336 1178 q 369 1276 367 1229 l 439 1276 q 404 1137 439 1185 q 310 1089 369 1089 z "},"J":{"ha":404,"x_min":21,"x_max":274,"o":"m 21 -219 q 90 -128 61 -174 q 133 -29 118 -83 q 148 94 148 24 l 148 380 l 148 659 q 148 830 148 753 q 148 990 148 908 l 274 990 q 274 830 274 908 q 274 659 274 753 l 274 411 q 274 242 274 324 q 274 83 274 160 q 264 -19 274 26 q 237 -101 254 -65 q 197 -166 219 -137 q 150 -219 174 -195 l 21 -219 z "},"Ĵ":{"ha":404,"x_min":-44,"x_max":459,"o":"m 21 -219 q 90 -128 61 -174 q 133 -29 118 -83 q 148 94 148 24 l 148 380 l 148 659 q 148 830 148 753 q 148 990 148 908 l 274 990 q 274 830 274 908 q 274 659 274 753 l 274 411 q 274 242 274 324 q 274 83 274 160 q 264 -19 274 26 q 237 -101 254 -65 q 197 -166 219 -137 q 150 -219 174 -195 l 21 -219 m 366 1091 q 279 1193 322 1143 q 190 1297 235 1244 l 224 1297 q 136 1194 179 1244 q 49 1094 94 1144 l -44 1094 q 50 1218 3 1156 q 144 1344 97 1281 l 270 1344 q 365 1218 317 1281 q 459 1093 412 1156 l 366 1091 z "},"K":{"ha":932,"x_min":128,"x_max":890,"o":"m 733 0 q 609 134 667 72 q 496 257 551 197 l 308 460 l 240 460 l 240 564 l 307 564 l 470 734 q 584 853 528 794 q 715 990 640 912 l 867 990 q 718 836 791 912 q 574 686 646 761 l 390 495 l 388 551 l 592 326 q 693 215 640 275 q 799 99 747 156 q 890 0 851 43 l 733 0 m 128 0 q 128 159 128 83 q 128 327 128 235 l 128 659 q 128 830 128 753 q 128 990 128 908 l 254 990 q 254 830 254 908 q 254 659 254 753 l 254 327 q 254 159 254 235 q 254 0 254 83 l 128 0 z "},"Ķ":{"ha":932,"x_min":128,"x_max":890,"o":"m 733 0 q 609 134 667 72 q 496 257 551 197 l 308 460 l 240 460 l 240 564 l 307 564 l 470 734 q 584 853 528 794 q 715 990 640 912 l 867 990 q 718 836 791 912 q 574 686 646 761 l 390 495 l 388 551 l 592 326 q 693 215 640 275 q 799 99 747 156 q 890 0 851 43 l 733 0 m 128 0 q 128 159 128 83 q 128 327 128 235 l 128 659 q 128 830 128 753 q 128 990 128 908 l 254 990 q 254 830 254 908 q 254 659 254 753 l 254 327 q 254 159 254 235 q 254 0 254 83 l 128 0 m 382 -396 q 417 -319 410 -356 q 424 -226 424 -281 q 424 -180 424 -203 q 424 -134 424 -157 l 481 -130 q 535 -151 517 -131 q 553 -203 553 -172 q 539 -275 553 -239 q 499 -341 525 -310 q 438 -394 473 -372 l 382 -396 z "},"L":{"ha":795,"x_min":128,"x_max":747,"o":"m 128 0 q 128 159 128 83 q 128 327 128 235 l 128 659 q 128 830 128 753 q 128 990 128 908 l 254 990 q 254 830 254 908 q 254 659 254 753 l 254 347 q 254 178 254 255 q 254 19 254 102 l 207 112 l 389 112 q 529 112 468 112 q 641 112 590 112 q 747 112 693 112 l 747 0 l 128 0 z "},"Ǉ":{"ha":1199,"x_min":128,"x_max":1069,"o":"m 128 0 q 128 159 128 83 q 128 327 128 235 l 128 659 q 128 830 128 753 q 128 990 128 908 l 254 990 q 254 830 254 908 q 254 659 254 753 l 254 347 q 254 178 254 255 q 254 19 254 102 l 207 112 l 389 112 q 529 112 468 112 q 641 112 590 112 q 747 112 693 112 l 747 0 l 128 0 m 816 -219 q 885 -128 856 -174 q 928 -29 913 -83 q 943 94 943 24 l 943 380 l 943 659 q 943 830 943 753 q 943 990 943 908 l 1069 990 q 1069 830 1069 908 q 1069 659 1069 753 l 1069 411 q 1069 242 1069 324 q 1069 83 1069 160 q 1059 -19 1069 26 q 1032 -101 1049 -65 q 992 -166 1015 -137 q 945 -219 969 -195 l 816 -219 z "},"Ĺ":{"ha":795,"x_min":128,"x_max":747,"o":"m 128 0 q 128 159 128 83 q 128 327 128 235 l 128 659 q 128 830 128 753 q 128 990 128 908 l 254 990 q 254 830 254 908 q 254 659 254 753 l 254 347 q 254 178 254 255 q 254 19 254 102 l 207 112 l 389 112 q 529 112 468 112 q 641 112 590 112 q 747 112 693 112 l 747 0 l 128 0 m 178 1092 q 273 1219 226 1156 q 367 1344 320 1281 l 495 1346 q 420 1261 457 1303 q 345 1177 383 1219 q 272 1094 308 1135 l 178 1092 z "},"Ľ":{"ha":795,"x_min":128,"x_max":747,"o":"m 128 0 q 128 159 128 83 q 128 327 128 235 l 128 659 q 128 830 128 753 q 128 990 128 908 l 254 990 q 254 830 254 908 q 254 659 254 753 l 254 347 q 254 178 254 255 q 254 19 254 102 l 207 112 l 389 112 q 529 112 468 112 q 641 112 590 112 q 747 112 693 112 l 747 0 l 128 0 m 439 756 q 463 828 453 790 q 477 902 473 867 q 482 964 482 938 q 482 1019 482 992 q 482 1074 482 1047 l 533 1078 q 570 1060 557 1076 q 583 1013 583 1044 q 576 944 583 980 q 557 874 569 908 q 530 809 544 840 q 499 758 515 779 l 439 756 z "},"Ļ":{"ha":795,"x_min":128,"x_max":747,"o":"m 128 0 q 128 159 128 83 q 128 327 128 235 l 128 659 q 128 830 128 753 q 128 990 128 908 l 254 990 q 254 830 254 908 q 254 659 254 753 l 254 347 q 254 178 254 255 q 254 19 254 102 l 207 112 l 389 112 q 529 112 468 112 q 641 112 590 112 q 747 112 693 112 l 747 0 l 128 0 m 342 -396 q 376 -319 369 -356 q 383 -226 383 -281 q 383 -180 383 -203 q 383 -134 383 -157 l 441 -130 q 495 -151 477 -131 q 513 -203 513 -172 q 499 -275 513 -239 q 459 -341 485 -310 q 397 -394 433 -372 l 342 -396 z "},"Ŀ":{"ha":795,"x_min":128,"x_max":747,"o":"m 128 0 q 128 159 128 83 q 128 327 128 235 l 128 659 q 128 830 128 753 q 128 990 128 908 l 254 990 q 254 830 254 908 q 254 659 254 753 l 254 347 q 254 178 254 255 q 254 19 254 102 l 207 112 l 389 112 q 529 112 468 112 q 641 112 590 112 q 747 112 693 112 l 747 0 l 128 0 m 592 415 q 531 436 554 415 q 508 500 508 457 q 531 564 508 542 q 593 585 554 585 q 655 563 632 585 q 678 500 678 541 q 655 436 678 457 q 592 415 632 415 z "},"Ḷ":{"ha":795,"x_min":128,"x_max":747,"o":"m 128 0 q 128 159 128 83 q 128 327 128 235 l 128 659 q 128 830 128 753 q 128 990 128 908 l 254 990 q 254 830 254 908 q 254 659 254 753 l 254 347 q 254 178 254 255 q 254 19 254 102 l 207 112 l 389 112 q 529 112 468 112 q 641 112 590 112 q 747 112 693 112 l 747 0 l 128 0 m 435 -299 q 374 -278 397 -299 q 350 -215 350 -258 q 374 -151 350 -172 q 436 -130 397 -130 q 497 -152 474 -130 q 520 -215 520 -174 q 497 -278 520 -258 q 435 -299 474 -299 z "},"ǈ":{"ha":1149,"x_min":128,"x_max":1057,"o":"m 128 0 q 128 159 128 83 q 128 327 128 235 l 128 659 q 128 830 128 753 q 128 990 128 908 l 254 990 q 254 830 254 908 q 254 659 254 753 l 254 347 q 254 178 254 255 q 254 19 254 102 l 207 112 l 389 112 q 529 112 468 112 q 641 112 590 112 q 747 112 693 112 l 747 0 l 128 0 m 802 -271 q 868 -182 842 -227 q 905 -82 893 -136 q 916 42 916 -28 l 916 304 l 916 374 q 916 488 916 435 q 916 589 916 540 q 916 689 916 638 l 1031 693 q 1031 592 1031 642 q 1031 489 1031 542 q 1031 374 1031 436 q 1031 233 1031 293 q 1031 123 1031 172 q 1031 26 1031 74 q 1024 -69 1031 -26 q 1002 -149 1017 -113 q 969 -215 988 -185 q 925 -267 949 -244 l 802 -271 m 972 848 q 910 869 934 848 q 887 933 887 890 q 910 996 887 975 q 973 1017 934 1017 q 1034 995 1011 1017 q 1057 933 1057 974 q 1034 869 1057 890 q 972 848 1011 848 z "},"Ḻ":{"ha":795,"x_min":128,"x_max":747,"o":"m 128 0 q 128 159 128 83 q 128 327 128 235 l 128 659 q 128 830 128 753 q 128 990 128 908 l 254 990 q 254 830 254 908 q 254 659 254 753 l 254 347 q 254 178 254 255 q 254 19 254 102 l 207 112 l 389 112 q 529 112 468 112 q 641 112 590 112 q 747 112 693 112 l 747 0 l 128 0 m 217 -249 l 217 -160 q 322 -160 267 -160 q 435 -160 376 -160 q 550 -160 495 -160 q 653 -160 604 -160 l 653 -249 q 550 -249 604 -249 q 435 -249 495 -249 q 322 -249 376 -249 q 217 -249 267 -249 z "},"Ł":{"ha":806,"x_min":-16,"x_max":759,"o":"m 140 0 q 140 159 140 83 q 140 327 140 235 l 140 659 q 140 830 140 753 q 140 990 140 908 l 266 990 q 266 830 266 908 q 266 659 266 753 l 266 347 q 266 178 266 255 q 266 19 266 102 l 218 112 l 400 112 q 540 112 479 112 q 653 112 601 112 q 759 112 705 112 l 759 0 l 140 0 m 10 383 l -16 471 q 114 509 51 490 q 231 544 176 528 l 299 564 q 417 599 355 581 q 547 638 480 617 l 572 549 q 443 511 506 530 q 325 476 381 493 l 257 456 q 140 421 202 440 q 10 383 78 403 z "},"M":{"ha":1330,"x_min":93,"x_max":1238,"o":"m 93 0 q 113 159 103 81 q 134 330 123 238 l 175 656 q 196 826 186 747 q 217 990 206 904 l 343 990 q 426 786 386 885 q 506 591 467 688 l 663 206 l 673 206 l 828 590 q 908 786 868 689 q 990 990 947 883 l 1116 990 q 1136 827 1126 906 q 1157 657 1145 749 l 1197 327 q 1218 159 1208 237 q 1238 0 1228 82 l 1117 0 q 1087 251 1101 132 q 1060 472 1072 369 l 1024 768 l 1015 768 l 889 449 q 797 217 843 333 q 712 0 751 101 l 626 0 q 571 139 601 63 q 508 294 540 215 q 445 447 476 373 l 315 768 l 306 768 l 270 473 q 243 251 258 369 q 213 0 229 132 l 93 0 z "},"Ṃ":{"ha":1330,"x_min":93,"x_max":1238,"o":"m 93 0 q 113 159 103 81 q 134 330 123 238 l 175 656 q 196 826 186 747 q 217 990 206 904 l 343 990 q 426 786 386 885 q 506 591 467 688 l 663 206 l 673 206 l 828 590 q 908 786 868 689 q 990 990 947 883 l 1116 990 q 1136 827 1126 906 q 1157 657 1145 749 l 1197 327 q 1218 159 1208 237 q 1238 0 1228 82 l 1117 0 q 1087 251 1101 132 q 1060 472 1072 369 l 1024 768 l 1015 768 l 889 449 q 797 217 843 333 q 712 0 751 101 l 626 0 q 571 139 601 63 q 508 294 540 215 q 445 447 476 373 l 315 768 l 306 768 l 270 473 q 243 251 258 369 q 213 0 229 132 l 93 0 m 665 -299 q 603 -278 627 -299 q 580 -215 580 -258 q 603 -151 580 -172 q 666 -130 627 -130 q 727 -152 704 -130 q 750 -215 750 -174 q 727 -278 750 -258 q 665 -299 704 -299 z "},"N":{"ha":1047,"x_min":128,"x_max":919,"o":"m 128 0 q 128 159 128 83 q 128 327 128 235 l 128 659 q 128 830 128 753 q 128 990 128 908 l 242 990 q 413 749 331 865 q 574 521 494 633 l 789 218 l 799 218 l 799 659 q 799 830 799 753 q 799 990 799 908 l 919 990 q 919 830 919 908 q 919 659 919 753 l 919 327 q 919 159 919 235 q 919 0 919 83 l 807 0 q 652 219 733 104 q 474 472 571 334 l 258 776 l 248 776 l 248 327 q 248 159 248 235 q 248 0 248 83 l 128 0 z "},"Ǌ":{"ha":1451,"x_min":128,"x_max":1322,"o":"m 128 0 q 128 159 128 83 q 128 327 128 235 l 128 659 q 128 830 128 753 q 128 990 128 908 l 242 990 q 413 749 331 865 q 574 521 494 633 l 789 218 l 799 218 l 799 659 q 799 830 799 753 q 799 990 799 908 l 919 990 q 919 830 919 908 q 919 659 919 753 l 919 327 q 919 159 919 235 q 919 0 919 83 l 807 0 q 652 219 733 104 q 474 472 571 334 l 258 776 l 248 776 l 248 327 q 248 159 248 235 q 248 0 248 83 l 128 0 m 1068 -219 q 1137 -128 1108 -174 q 1180 -29 1165 -83 q 1195 94 1195 24 l 1195 380 l 1195 659 q 1195 830 1195 753 q 1195 990 1195 908 l 1322 990 q 1322 830 1322 908 q 1322 659 1322 753 l 1322 411 q 1322 242 1322 324 q 1322 83 1322 160 q 1311 -19 1322 26 q 1284 -101 1301 -65 q 1244 -166 1267 -137 q 1197 -219 1222 -195 l 1068 -219 z "},"Ń":{"ha":1047,"x_min":128,"x_max":919,"o":"m 128 0 q 128 159 128 83 q 128 327 128 235 l 128 659 q 128 830 128 753 q 128 990 128 908 l 242 990 q 413 749 331 865 q 574 521 494 633 l 789 218 l 799 218 l 799 659 q 799 830 799 753 q 799 990 799 908 l 919 990 q 919 830 919 908 q 919 659 919 753 l 919 327 q 919 159 919 235 q 919 0 919 83 l 807 0 q 652 219 733 104 q 474 472 571 334 l 258 776 l 248 776 l 248 327 q 248 159 248 235 q 248 0 248 83 l 128 0 m 422 1092 q 516 1219 469 1156 q 610 1344 563 1281 l 738 1346 q 663 1261 700 1303 q 589 1177 626 1219 q 515 1094 551 1135 l 422 1092 z "},"Ň":{"ha":1047,"x_min":128,"x_max":919,"o":"m 128 0 q 128 159 128 83 q 128 327 128 235 l 128 659 q 128 830 128 753 q 128 990 128 908 l 242 990 q 413 749 331 865 q 574 521 494 633 l 789 218 l 799 218 l 799 659 q 799 830 799 753 q 799 990 799 908 l 919 990 q 919 830 919 908 q 919 659 919 753 l 919 327 q 919 159 919 235 q 919 0 919 83 l 807 0 q 652 219 733 104 q 474 472 571 334 l 258 776 l 248 776 l 248 327 q 248 159 248 235 q 248 0 248 83 l 128 0 m 462 1092 q 367 1218 415 1156 q 273 1344 320 1281 l 366 1345 q 453 1243 410 1294 q 542 1140 497 1192 l 508 1140 q 596 1242 553 1192 q 683 1342 639 1292 l 776 1342 q 682 1218 729 1281 q 588 1092 635 1156 l 462 1092 z "},"Ņ":{"ha":1047,"x_min":128,"x_max":919,"o":"m 128 0 q 128 159 128 83 q 128 327 128 235 l 128 659 q 128 830 128 753 q 128 990 128 908 l 242 990 q 413 749 331 865 q 574 521 494 633 l 789 218 l 799 218 l 799 659 q 799 830 799 753 q 799 990 799 908 l 919 990 q 919 830 919 908 q 919 659 919 753 l 919 327 q 919 159 919 235 q 919 0 919 83 l 807 0 q 652 219 733 104 q 474 472 571 334 l 258 776 l 248 776 l 248 327 q 248 159 248 235 q 248 0 248 83 l 128 0 m 431 -396 q 465 -319 458 -356 q 472 -226 472 -281 q 472 -180 472 -203 q 472 -134 472 -157 l 530 -130 q 584 -151 566 -131 q 602 -203 602 -172 q 588 -275 602 -239 q 548 -341 574 -310 q 486 -394 522 -372 l 431 -396 z "},"Ṅ":{"ha":1047,"x_min":128,"x_max":919,"o":"m 128 0 q 128 159 128 83 q 128 327 128 235 l 128 659 q 128 830 128 753 q 128 990 128 908 l 242 990 q 413 749 331 865 q 574 521 494 633 l 789 218 l 799 218 l 799 659 q 799 830 799 753 q 799 990 799 908 l 919 990 q 919 830 919 908 q 919 659 919 753 l 919 327 q 919 159 919 235 q 919 0 919 83 l 807 0 q 652 219 733 104 q 474 472 571 334 l 258 776 l 248 776 l 248 327 q 248 159 248 235 q 248 0 248 83 l 128 0 m 523 1129 q 462 1150 485 1129 q 438 1214 438 1170 q 462 1277 438 1256 q 524 1299 485 1299 q 585 1276 563 1299 q 608 1214 608 1254 q 585 1150 608 1170 q 523 1129 563 1129 z "},"Ṇ":{"ha":1047,"x_min":128,"x_max":919,"o":"m 128 0 q 128 159 128 83 q 128 327 128 235 l 128 659 q 128 830 128 753 q 128 990 128 908 l 242 990 q 413 749 331 865 q 574 521 494 633 l 789 218 l 799 218 l 799 659 q 799 830 799 753 q 799 990 799 908 l 919 990 q 919 830 919 908 q 919 659 919 753 l 919 327 q 919 159 919 235 q 919 0 919 83 l 807 0 q 652 219 733 104 q 474 472 571 334 l 258 776 l 248 776 l 248 327 q 248 159 248 235 q 248 0 248 83 l 128 0 m 524 -299 q 463 -278 486 -299 q 439 -215 439 -258 q 463 -151 439 -172 q 525 -130 486 -130 q 586 -152 563 -130 q 609 -215 609 -174 q 586 -278 609 -258 q 524 -299 563 -299 z "},"Ŋ":{"ha":1047,"x_min":128,"x_max":919,"o":"m 666 -267 q 735 -176 706 -222 q 778 -76 763 -130 q 793 47 793 -23 l 793 74 l 840 0 l 807 0 q 652 219 733 105 q 474 472 572 334 l 258 776 l 248 776 l 248 327 q 248 159 248 235 q 248 0 248 83 l 128 0 q 128 159 128 83 q 128 327 128 235 l 128 659 q 128 830 128 753 q 128 990 128 908 l 242 990 q 413 750 331 865 q 574 521 494 635 l 789 218 l 799 218 l 799 659 q 799 830 799 753 q 799 990 799 908 l 919 990 q 919 830 919 908 q 919 659 919 753 l 919 365 q 919 197 919 278 q 919 37 919 115 q 909 -65 919 -19 q 881 -148 899 -111 q 842 -214 864 -185 q 794 -267 819 -242 l 666 -267 z "},"ǋ":{"ha":1401,"x_min":128,"x_max":1310,"o":"m 128 0 q 128 159 128 83 q 128 327 128 235 l 128 659 q 128 830 128 753 q 128 990 128 908 l 242 990 q 413 749 331 865 q 574 521 494 633 l 789 218 l 799 218 l 799 659 q 799 830 799 753 q 799 990 799 908 l 919 990 q 919 830 919 908 q 919 659 919 753 l 919 327 q 919 159 919 235 q 919 0 919 83 l 807 0 q 652 219 733 104 q 474 472 571 334 l 258 776 l 248 776 l 248 327 q 248 159 248 235 q 248 0 248 83 l 128 0 m 1054 -271 q 1120 -182 1094 -227 q 1157 -82 1145 -136 q 1168 42 1168 -28 l 1168 304 l 1168 374 q 1168 488 1168 435 q 1168 589 1168 540 q 1168 689 1168 638 l 1283 693 q 1283 592 1283 642 q 1283 489 1283 542 q 1283 374 1283 436 q 1283 233 1283 293 q 1283 123 1283 172 q 1283 26 1283 74 q 1276 -69 1283 -26 q 1255 -149 1269 -113 q 1221 -215 1240 -185 q 1177 -267 1201 -244 l 1054 -271 m 1224 848 q 1163 869 1186 848 q 1139 933 1139 890 q 1163 996 1139 975 q 1225 1017 1186 1017 q 1286 995 1263 1017 q 1309 933 1309 974 q 1286 869 1309 890 q 1224 848 1263 848 z "},"Ṉ":{"ha":1047,"x_min":128,"x_max":919,"o":"m 128 0 q 128 159 128 83 q 128 327 128 235 l 128 659 q 128 830 128 753 q 128 990 128 908 l 242 990 q 413 749 331 865 q 574 521 494 633 l 789 218 l 799 218 l 799 659 q 799 830 799 753 q 799 990 799 908 l 919 990 q 919 830 919 908 q 919 659 919 753 l 919 327 q 919 159 919 235 q 919 0 919 83 l 807 0 q 652 219 733 104 q 474 472 571 334 l 258 776 l 248 776 l 248 327 q 248 159 248 235 q 248 0 248 83 l 128 0 m 306 -249 l 306 -160 q 410 -160 356 -160 q 524 -160 465 -160 q 639 -160 584 -160 q 742 -160 693 -160 l 742 -249 q 639 -249 693 -249 q 524 -249 584 -249 q 410 -249 465 -249 q 306 -249 356 -249 z "},"Ñ":{"ha":1047,"x_min":128,"x_max":919,"o":"m 128 0 q 128 159 128 83 q 128 327 128 235 l 128 659 q 128 830 128 753 q 128 990 128 908 l 242 990 q 413 749 331 865 q 574 521 494 633 l 789 218 l 799 218 l 799 659 q 799 830 799 753 q 799 990 799 908 l 919 990 q 919 830 919 908 q 919 659 919 753 l 919 327 q 919 159 919 235 q 919 0 919 83 l 807 0 q 652 219 733 104 q 474 472 571 334 l 258 776 l 248 776 l 248 327 q 248 159 248 235 q 248 0 248 83 l 128 0 m 642 1089 q 570 1107 600 1089 q 515 1149 540 1125 q 469 1191 491 1173 q 422 1209 447 1209 q 366 1183 382 1209 q 348 1110 350 1158 l 278 1110 q 314 1249 278 1201 q 410 1297 349 1297 q 481 1279 451 1297 q 535 1238 511 1261 q 581 1196 558 1214 q 628 1178 603 1178 q 684 1203 668 1178 q 701 1276 699 1229 l 771 1276 q 736 1137 771 1185 q 642 1089 701 1089 z "},"O":{"ha":1135,"x_min":69,"x_max":1065,"o":"m 572 -15 q 352 25 447 -15 q 195 137 258 66 q 101 301 132 208 q 69 496 69 393 q 128 756 69 640 q 298 940 187 872 q 568 1008 409 1008 q 782 969 689 1008 q 938 859 874 929 q 1033 696 1001 789 q 1065 497 1065 603 q 1006 234 1065 350 q 838 52 948 119 q 572 -15 727 -15 m 569 93 q 733 126 664 93 q 846 216 801 159 q 913 345 891 273 q 934 497 934 418 q 911 655 934 581 q 841 783 888 728 q 727 869 795 838 q 569 900 659 900 q 407 867 476 900 q 292 778 338 835 q 223 649 246 722 q 200 497 200 576 q 222 344 200 416 q 290 215 244 272 q 405 126 335 158 q 569 93 474 93 z "},"Ó":{"ha":1135,"x_min":69,"x_max":1065,"o":"m 572 -15 q 352 25 447 -15 q 195 137 258 66 q 101 301 132 208 q 69 496 69 393 q 128 756 69 640 q 298 940 187 872 q 568 1008 409 1008 q 782 969 689 1008 q 938 859 874 929 q 1033 696 1001 789 q 1065 497 1065 603 q 1006 234 1065 350 q 838 52 948 119 q 572 -15 727 -15 m 569 93 q 733 126 664 93 q 846 216 801 159 q 913 345 891 273 q 934 497 934 418 q 911 655 934 581 q 841 783 888 728 q 727 869 795 838 q 569 900 659 900 q 407 867 476 900 q 292 778 338 835 q 223 649 246 722 q 200 497 200 576 q 222 344 200 416 q 290 215 244 272 q 405 126 335 158 q 569 93 474 93 m 464 1092 q 559 1219 512 1156 q 652 1344 606 1281 l 781 1346 q 705 1261 742 1303 q 631 1177 668 1219 q 557 1094 594 1135 l 464 1092 z "},"Ŏ":{"ha":1135,"x_min":69,"x_max":1065,"o":"m 572 -15 q 352 25 447 -15 q 195 137 258 66 q 101 301 132 208 q 69 496 69 393 q 128 756 69 640 q 298 940 187 872 q 568 1008 409 1008 q 782 969 689 1008 q 938 859 874 929 q 1033 696 1001 789 q 1065 497 1065 603 q 1006 234 1065 350 q 838 52 948 119 q 572 -15 727 -15 m 569 93 q 733 126 664 93 q 846 216 801 159 q 913 345 891 273 q 934 497 934 418 q 911 655 934 581 q 841 783 888 728 q 727 869 795 838 q 569 900 659 900 q 407 867 476 900 q 292 778 338 835 q 223 649 246 722 q 200 497 200 576 q 222 344 200 416 q 290 215 244 272 q 405 126 335 158 q 569 93 474 93 m 565 1085 q 398 1151 456 1085 q 341 1345 341 1217 l 426 1349 q 461 1214 426 1256 q 565 1171 497 1171 q 668 1213 633 1171 q 704 1345 704 1255 l 789 1345 q 764 1202 789 1260 q 688 1115 738 1144 q 565 1085 638 1085 z "},"Ô":{"ha":1135,"x_min":69,"x_max":1065,"o":"m 572 -15 q 352 25 447 -15 q 195 137 258 66 q 101 301 132 208 q 69 496 69 393 q 128 756 69 640 q 298 940 187 872 q 568 1008 409 1008 q 782 969 689 1008 q 938 859 874 929 q 1033 696 1001 789 q 1065 497 1065 603 q 1006 234 1065 350 q 838 52 948 119 q 572 -15 727 -15 m 569 93 q 733 126 664 93 q 846 216 801 159 q 913 345 891 273 q 934 497 934 418 q 911 655 934 581 q 841 783 888 728 q 727 869 795 838 q 569 900 659 900 q 407 867 476 900 q 292 778 338 835 q 223 649 246 722 q 200 497 200 576 q 222 344 200 416 q 290 215 244 272 q 405 126 335 158 q 569 93 474 93 m 724 1091 q 636 1193 680 1143 q 548 1297 593 1244 l 581 1297 q 494 1194 537 1244 q 407 1094 451 1144 l 314 1094 q 408 1218 360 1156 q 502 1344 455 1281 l 628 1344 q 722 1218 675 1281 q 817 1093 769 1156 l 724 1091 z "},"Ố":{"ha":1135,"x_min":69,"x_max":1065,"o":"m 572 -15 q 352 25 447 -15 q 195 137 258 66 q 101 301 132 208 q 69 496 69 393 q 128 756 69 640 q 298 940 187 872 q 568 1008 409 1008 q 782 969 689 1008 q 938 859 874 929 q 1033 696 1001 789 q 1065 497 1065 603 q 1006 234 1065 350 q 838 52 948 119 q 572 -15 727 -15 m 569 93 q 733 126 664 93 q 846 216 801 159 q 913 345 891 273 q 934 497 934 418 q 911 655 934 581 q 841 783 888 728 q 727 869 795 838 q 569 900 659 900 q 407 867 476 900 q 292 778 338 835 q 223 649 246 722 q 200 497 200 576 q 222 344 200 416 q 290 215 244 272 q 405 126 335 158 q 569 93 474 93 m 721 1285 q 812 1410 767 1348 q 901 1533 857 1472 l 1017 1535 q 947 1451 982 1492 q 876 1368 911 1409 q 807 1286 842 1327 l 721 1285 m 319 1094 q 411 1217 365 1155 q 506 1341 458 1278 l 619 1341 q 547 1257 582 1298 q 478 1175 513 1215 q 409 1094 444 1135 l 319 1094 m 722 1091 q 653 1174 688 1133 q 583 1256 618 1215 q 512 1341 549 1298 l 626 1341 q 718 1217 672 1279 q 811 1093 765 1154 l 722 1091 z "},"Ộ":{"ha":1135,"x_min":69,"x_max":1065,"o":"m 572 -15 q 352 25 447 -15 q 195 137 258 66 q 101 301 132 208 q 69 496 69 393 q 128 756 69 640 q 298 940 187 872 q 568 1008 409 1008 q 782 969 689 1008 q 938 859 874 929 q 1033 696 1001 789 q 1065 497 1065 603 q 1006 234 1065 350 q 838 52 948 119 q 572 -15 727 -15 m 569 93 q 733 126 664 93 q 846 216 801 159 q 913 345 891 273 q 934 497 934 418 q 911 655 934 581 q 841 783 888 728 q 727 869 795 838 q 569 900 659 900 q 407 867 476 900 q 292 778 338 835 q 223 649 246 722 q 200 497 200 576 q 222 344 200 416 q 290 215 244 272 q 405 126 335 158 q 569 93 474 93 m 566 -299 q 505 -278 528 -299 q 481 -215 481 -258 q 505 -151 481 -172 q 567 -130 528 -130 q 628 -152 606 -130 q 651 -215 651 -174 q 628 -278 651 -258 q 566 -299 606 -299 m 724 1091 q 636 1193 680 1143 q 548 1297 593 1244 l 581 1297 q 494 1194 537 1244 q 407 1094 451 1144 l 314 1094 q 408 1218 360 1156 q 502 1344 455 1281 l 628 1344 q 722 1218 675 1281 q 817 1093 769 1156 l 724 1091 z "},"Ồ":{"ha":1135,"x_min":69,"x_max":1065,"o":"m 572 -15 q 352 25 447 -15 q 195 137 258 66 q 101 301 132 208 q 69 496 69 393 q 128 756 69 640 q 298 940 187 872 q 568 1008 409 1008 q 782 969 689 1008 q 938 859 874 929 q 1033 696 1001 789 q 1065 497 1065 603 q 1006 234 1065 350 q 838 52 948 119 q 572 -15 727 -15 m 569 93 q 733 126 664 93 q 846 216 801 159 q 913 345 891 273 q 934 497 934 418 q 911 655 934 581 q 841 783 888 728 q 727 869 795 838 q 569 900 659 900 q 407 867 476 900 q 292 778 338 835 q 223 649 246 722 q 200 497 200 576 q 222 344 200 416 q 290 215 244 272 q 405 126 335 158 q 569 93 474 93 m 800 1286 q 731 1367 766 1326 q 661 1450 697 1408 q 590 1534 626 1492 l 706 1536 q 795 1413 750 1475 q 886 1288 840 1350 l 800 1286 m 319 1094 q 411 1217 365 1155 q 506 1341 458 1278 l 619 1341 q 547 1257 582 1298 q 478 1175 513 1215 q 409 1094 444 1135 l 319 1094 m 722 1091 q 653 1174 688 1133 q 583 1256 618 1215 q 512 1341 549 1298 l 626 1341 q 718 1217 672 1279 q 811 1093 765 1154 l 722 1091 z "},"Ổ":{"ha":1135,"x_min":69,"x_max":1065,"o":"m 572 -15 q 352 25 447 -15 q 195 137 258 66 q 101 301 132 208 q 69 496 69 393 q 128 756 69 640 q 298 940 187 872 q 568 1008 409 1008 q 782 969 689 1008 q 938 859 874 929 q 1033 696 1001 789 q 1065 497 1065 603 q 1006 234 1065 350 q 838 52 948 119 q 572 -15 727 -15 m 569 93 q 733 126 664 93 q 846 216 801 159 q 913 345 891 273 q 934 497 934 418 q 911 655 934 581 q 841 783 888 728 q 727 869 795 838 q 569 900 659 900 q 407 867 476 900 q 292 778 338 835 q 223 649 246 722 q 200 497 200 576 q 222 344 200 416 q 290 215 244 272 q 405 126 335 158 q 569 93 474 93 m 319 1094 q 411 1217 365 1155 q 506 1341 458 1278 l 619 1341 q 547 1257 582 1298 q 478 1175 513 1215 q 409 1094 444 1135 l 319 1094 m 722 1091 q 653 1174 688 1133 q 583 1256 618 1215 q 512 1341 549 1298 l 626 1341 q 718 1217 672 1279 q 811 1093 765 1154 l 722 1091 m 746 1276 l 746 1348 q 829 1378 795 1355 q 863 1435 863 1401 q 841 1477 863 1465 q 787 1489 818 1489 q 745 1485 766 1489 q 704 1473 725 1481 q 659 1453 683 1465 l 653 1526 q 681 1537 665 1531 q 716 1548 697 1543 q 757 1557 735 1553 q 801 1560 778 1560 q 873 1548 838 1560 q 929 1511 907 1537 q 951 1446 951 1486 q 931 1379 951 1406 q 879 1336 910 1351 q 816 1315 848 1320 l 816 1276 l 746 1276 z "},"Ỗ":{"ha":1135,"x_min":69,"x_max":1065,"o":"m 572 -15 q 352 25 447 -15 q 195 137 258 66 q 101 301 132 208 q 69 496 69 393 q 128 756 69 640 q 298 940 187 872 q 568 1008 409 1008 q 782 969 689 1008 q 938 859 874 929 q 1033 696 1001 789 q 1065 497 1065 603 q 1006 234 1065 350 q 838 52 948 119 q 572 -15 727 -15 m 569 93 q 733 126 664 93 q 846 216 801 159 q 913 345 891 273 q 934 497 934 418 q 911 655 934 581 q 841 783 888 728 q 727 869 795 838 q 569 900 659 900 q 407 867 476 900 q 292 778 338 835 q 223 649 246 722 q 200 497 200 576 q 222 344 200 416 q 290 215 244 272 q 405 126 335 158 q 569 93 474 93 m 319 1094 q 412 1217 365 1155 q 506 1341 458 1278 l 619 1341 q 547 1257 582 1298 q 478 1175 513 1215 q 409 1094 444 1135 l 319 1094 m 722 1091 q 653 1174 688 1133 q 583 1256 618 1215 q 512 1341 548 1298 l 626 1341 q 718 1217 672 1279 q 811 1093 765 1154 l 722 1091 m 680 1374 q 609 1391 639 1374 q 557 1432 580 1409 q 512 1473 533 1455 q 465 1490 490 1490 q 410 1465 426 1490 q 393 1394 394 1440 l 326 1394 q 361 1526 326 1480 q 454 1572 395 1572 q 524 1554 494 1572 q 576 1513 553 1536 q 621 1473 599 1490 q 667 1456 642 1456 q 722 1480 706 1456 q 738 1551 738 1505 l 806 1551 q 772 1419 806 1465 q 680 1374 738 1374 z "},"Ȍ":{"ha":1135,"x_min":69,"x_max":1065,"o":"m 572 -15 q 352 25 447 -15 q 195 137 258 66 q 101 301 132 208 q 69 496 69 393 q 128 756 69 640 q 298 940 187 872 q 568 1008 409 1008 q 782 969 689 1008 q 938 859 874 929 q 1033 696 1001 789 q 1065 497 1065 603 q 1006 234 1065 350 q 838 52 948 119 q 572 -15 727 -15 m 569 93 q 733 126 664 93 q 846 216 801 159 q 913 345 891 273 q 934 497 934 418 q 911 655 934 581 q 841 783 888 728 q 727 869 795 838 q 569 900 659 900 q 407 867 476 900 q 292 778 338 835 q 223 649 246 722 q 200 497 200 576 q 222 344 200 416 q 290 215 244 272 q 405 126 335 158 q 569 93 474 93 m 424 1092 q 353 1175 389 1133 q 281 1259 317 1217 q 208 1344 244 1301 l 328 1346 q 419 1220 373 1284 q 513 1094 466 1157 l 424 1092 m 683 1092 q 621 1175 652 1133 q 559 1259 590 1217 q 495 1344 528 1301 l 611 1346 q 688 1221 649 1284 q 766 1094 726 1158 l 683 1092 z "},"Ö":{"ha":1135,"x_min":69,"x_max":1065,"o":"m 572 -15 q 352 25 447 -15 q 195 137 258 66 q 101 301 132 208 q 69 496 69 393 q 128 756 69 640 q 298 940 187 872 q 568 1008 409 1008 q 782 969 689 1008 q 938 859 874 929 q 1033 696 1001 789 q 1065 497 1065 603 q 1006 234 1065 350 q 838 52 948 119 q 572 -15 727 -15 m 569 93 q 733 126 664 93 q 846 216 801 159 q 913 345 891 273 q 934 497 934 418 q 911 655 934 581 q 841 783 888 728 q 727 869 795 838 q 569 900 659 900 q 407 867 476 900 q 292 778 338 835 q 223 649 246 722 q 200 497 200 576 q 222 344 200 416 q 290 215 244 272 q 405 126 335 158 q 569 93 474 93 m 713 1129 q 658 1150 679 1129 q 638 1210 638 1170 q 659 1270 638 1249 q 715 1291 680 1291 q 769 1269 749 1291 q 790 1210 790 1247 q 769 1150 790 1170 q 713 1129 749 1129 m 419 1129 q 364 1150 385 1129 q 343 1210 343 1170 q 364 1270 343 1249 q 420 1291 385 1291 q 475 1269 455 1291 q 495 1210 495 1247 q 475 1150 495 1170 q 419 1129 454 1129 z "},"Ȫ":{"ha":1135,"x_min":69,"x_max":1065,"o":"m 572 -15 q 352 25 447 -15 q 195 137 258 66 q 101 301 132 208 q 69 496 69 393 q 128 756 69 640 q 298 940 187 872 q 568 1008 409 1008 q 782 969 689 1008 q 938 859 874 929 q 1033 696 1001 789 q 1065 497 1065 603 q 1006 234 1065 350 q 838 52 948 119 q 572 -15 727 -15 m 569 93 q 733 126 664 93 q 846 216 801 159 q 913 345 891 273 q 934 497 934 418 q 911 655 934 581 q 841 783 888 728 q 727 869 795 838 q 569 900 659 900 q 407 867 476 900 q 292 778 338 835 q 223 649 246 722 q 200 497 200 576 q 222 344 200 416 q 290 215 244 272 q 405 126 335 158 q 569 93 474 93 m 713 1129 q 658 1150 679 1129 q 638 1210 638 1170 q 659 1270 638 1249 q 715 1291 680 1291 q 769 1269 749 1291 q 790 1210 790 1247 q 769 1150 790 1170 q 713 1129 749 1129 m 419 1129 q 364 1150 385 1129 q 343 1210 343 1170 q 364 1270 343 1249 q 420 1291 385 1291 q 475 1269 455 1291 q 495 1210 495 1247 q 475 1150 495 1170 q 419 1129 454 1129 m 347 1412 l 347 1501 q 451 1501 397 1501 q 565 1501 506 1501 q 680 1501 625 1501 q 783 1501 734 1501 l 783 1412 q 680 1412 734 1412 q 565 1412 625 1412 q 451 1412 506 1412 q 347 1412 397 1412 z "},"Ȱ":{"ha":1135,"x_min":69,"x_max":1065,"o":"m 572 -15 q 352 25 447 -15 q 195 137 258 66 q 101 301 132 208 q 69 496 69 393 q 128 756 69 640 q 298 940 187 872 q 568 1008 409 1008 q 782 969 689 1008 q 938 859 874 929 q 1033 696 1001 789 q 1065 497 1065 603 q 1006 234 1065 350 q 838 52 948 119 q 572 -15 727 -15 m 569 93 q 733 126 664 93 q 846 216 801 159 q 913 345 891 273 q 934 497 934 418 q 911 655 934 581 q 841 783 888 728 q 727 869 795 838 q 569 900 659 900 q 407 867 476 900 q 292 778 338 835 q 223 649 246 722 q 200 497 200 576 q 222 344 200 416 q 290 215 244 272 q 405 126 335 158 q 569 93 474 93 m 565 1129 q 504 1150 528 1129 q 481 1214 481 1170 q 504 1277 481 1256 q 567 1299 528 1299 q 628 1276 605 1299 q 651 1214 651 1254 q 628 1150 651 1170 q 565 1129 605 1129 m 348 1416 l 348 1506 q 452 1506 397 1506 q 566 1506 507 1506 q 680 1506 626 1506 q 784 1506 735 1506 l 784 1416 q 680 1416 735 1416 q 566 1416 626 1416 q 452 1416 507 1416 q 348 1416 397 1416 z "},"Ọ":{"ha":1135,"x_min":69,"x_max":1065,"o":"m 572 -15 q 352 25 447 -15 q 195 137 258 66 q 101 301 132 208 q 69 496 69 393 q 128 756 69 640 q 298 940 187 872 q 568 1008 409 1008 q 782 969 689 1008 q 938 859 874 929 q 1033 696 1001 789 q 1065 497 1065 603 q 1006 234 1065 350 q 838 52 948 119 q 572 -15 727 -15 m 569 93 q 733 126 664 93 q 846 216 801 159 q 913 345 891 273 q 934 497 934 418 q 911 655 934 581 q 841 783 888 728 q 727 869 795 838 q 569 900 659 900 q 407 867 476 900 q 292 778 338 835 q 223 649 246 722 q 200 497 200 576 q 222 344 200 416 q 290 215 244 272 q 405 126 335 158 q 569 93 474 93 m 566 -299 q 505 -278 528 -299 q 481 -215 481 -258 q 505 -151 481 -172 q 567 -130 528 -130 q 628 -152 606 -130 q 651 -215 651 -174 q 628 -278 651 -258 q 566 -299 606 -299 z "},"Ò":{"ha":1135,"x_min":69,"x_max":1065,"o":"m 572 -15 q 352 25 447 -15 q 195 137 258 66 q 101 301 132 208 q 69 496 69 393 q 128 756 69 640 q 298 940 187 872 q 568 1008 409 1008 q 782 969 689 1008 q 938 859 874 929 q 1033 696 1001 789 q 1065 497 1065 603 q 1006 234 1065 350 q 838 52 948 119 q 572 -15 727 -15 m 569 93 q 733 126 664 93 q 846 216 801 159 q 913 345 891 273 q 934 497 934 418 q 911 655 934 581 q 841 783 888 728 q 727 869 795 838 q 569 900 659 900 q 407 867 476 900 q 292 778 338 835 q 223 649 246 722 q 200 497 200 576 q 222 344 200 416 q 290 215 244 272 q 405 126 335 158 q 569 93 474 93 m 576 1092 q 503 1175 540 1134 q 429 1259 466 1217 q 353 1344 392 1301 l 481 1346 q 575 1220 528 1283 q 669 1094 622 1157 l 576 1092 z "},"Ỏ":{"ha":1135,"x_min":69,"x_max":1065,"o":"m 572 -15 q 352 25 447 -15 q 195 137 258 66 q 101 301 132 208 q 69 496 69 393 q 128 756 69 640 q 298 940 187 872 q 568 1008 409 1008 q 782 969 689 1008 q 938 859 874 929 q 1033 696 1001 789 q 1065 497 1065 603 q 1006 234 1065 350 q 838 52 948 119 q 572 -15 727 -15 m 569 93 q 733 126 664 93 q 846 216 801 159 q 913 345 891 273 q 934 497 934 418 q 911 655 934 581 q 841 783 888 728 q 727 869 795 838 q 569 900 659 900 q 407 867 476 900 q 292 778 338 835 q 223 649 246 722 q 200 497 200 576 q 222 344 200 416 q 290 215 244 272 q 405 126 335 158 q 569 93 474 93 m 515 1093 l 515 1167 q 601 1195 566 1172 q 637 1253 637 1219 q 614 1296 637 1283 q 558 1308 590 1308 q 515 1304 537 1308 q 472 1292 494 1300 q 424 1272 449 1283 l 418 1349 q 448 1362 431 1356 q 485 1374 465 1369 q 527 1382 505 1378 q 574 1385 550 1385 q 650 1373 614 1385 q 709 1335 686 1361 q 732 1266 732 1309 q 711 1196 732 1224 q 658 1152 690 1167 q 590 1133 625 1136 l 590 1093 l 515 1093 z "},"Ơ":{"ha":1164,"x_min":69,"x_max":1138,"o":"m 572 -15 q 352 25 447 -15 q 195 137 258 66 q 101 301 132 208 q 69 496 69 393 q 128 756 69 640 q 298 940 187 872 q 568 1008 409 1008 q 782 969 689 1008 q 938 859 874 929 q 1033 696 1001 789 q 1065 497 1065 603 q 1006 234 1065 350 q 838 52 948 119 q 572 -15 727 -15 m 569 93 q 733 126 664 93 q 846 216 801 159 q 913 345 891 273 q 934 497 934 418 q 911 655 934 581 q 841 783 888 728 q 727 869 795 838 q 569 900 659 900 q 407 867 476 900 q 292 778 338 835 q 223 649 246 722 q 200 497 200 576 q 222 344 200 416 q 290 215 244 272 q 405 126 335 158 q 569 93 474 93 m 901 797 l 878 865 q 983 883 948 865 q 1031 931 1018 901 q 1043 999 1043 961 q 1035 1075 1043 1034 q 1017 1149 1026 1115 l 1103 1155 q 1120 1109 1113 1133 q 1133 1057 1128 1085 q 1138 999 1138 1030 q 1111 891 1138 936 q 1032 822 1085 846 q 901 797 980 797 z "},"Ớ":{"ha":1164,"x_min":69,"x_max":1138,"o":"m 572 -15 q 352 25 447 -15 q 195 137 258 66 q 101 301 132 208 q 69 496 69 393 q 128 756 69 640 q 298 940 187 872 q 568 1008 409 1008 q 782 969 689 1008 q 938 859 874 929 q 1033 696 1001 789 q 1065 497 1065 603 q 1006 234 1065 350 q 838 52 948 119 q 572 -15 727 -15 m 569 93 q 733 126 664 93 q 846 216 801 159 q 913 345 891 273 q 934 497 934 418 q 911 655 934 581 q 841 783 888 728 q 727 869 795 838 q 569 900 659 900 q 407 867 476 900 q 292 778 338 835 q 223 649 246 722 q 200 497 200 576 q 222 344 200 416 q 290 215 244 272 q 405 126 335 158 q 569 93 474 93 m 901 797 l 878 865 q 983 883 948 865 q 1031 931 1018 901 q 1043 999 1043 961 q 1035 1075 1043 1034 q 1017 1149 1026 1115 l 1103 1155 q 1120 1109 1113 1133 q 1133 1057 1128 1085 q 1138 999 1138 1030 q 1111 891 1138 936 q 1032 822 1085 846 q 901 797 980 797 m 464 1092 q 559 1219 512 1156 q 652 1344 606 1281 l 781 1346 q 705 1261 742 1303 q 631 1177 668 1219 q 557 1094 594 1135 l 464 1092 z "},"Ợ":{"ha":1164,"x_min":69,"x_max":1138,"o":"m 572 -15 q 352 25 447 -15 q 195 137 258 66 q 101 301 132 208 q 69 496 69 393 q 128 756 69 640 q 298 940 187 872 q 568 1008 409 1008 q 782 969 689 1008 q 938 859 874 929 q 1033 696 1001 789 q 1065 497 1065 603 q 1006 234 1065 350 q 838 52 948 119 q 572 -15 727 -15 m 569 93 q 733 126 664 93 q 846 216 801 159 q 913 345 891 273 q 934 497 934 418 q 911 655 934 581 q 841 783 888 728 q 727 869 795 838 q 569 900 659 900 q 407 867 476 900 q 292 778 338 835 q 223 649 246 722 q 200 497 200 576 q 222 344 200 416 q 290 215 244 272 q 405 126 335 158 q 569 93 474 93 m 901 797 l 878 865 q 983 883 948 865 q 1031 931 1018 901 q 1043 999 1043 961 q 1035 1075 1043 1034 q 1017 1149 1026 1115 l 1103 1155 q 1120 1109 1113 1133 q 1133 1057 1128 1085 q 1138 999 1138 1030 q 1111 891 1138 936 q 1032 822 1085 846 q 901 797 980 797 m 566 -299 q 505 -278 528 -299 q 481 -215 481 -258 q 505 -151 481 -172 q 567 -130 528 -130 q 628 -152 606 -130 q 651 -215 651 -174 q 628 -278 651 -258 q 566 -299 606 -299 z "},"Ờ":{"ha":1164,"x_min":69,"x_max":1138,"o":"m 572 -15 q 352 25 447 -15 q 195 137 258 66 q 101 301 132 208 q 69 496 69 393 q 128 756 69 640 q 298 940 187 872 q 568 1008 409 1008 q 782 969 689 1008 q 938 859 874 929 q 1033 696 1001 789 q 1065 497 1065 603 q 1006 234 1065 350 q 838 52 948 119 q 572 -15 727 -15 m 569 93 q 733 126 664 93 q 846 216 801 159 q 913 345 891 273 q 934 497 934 418 q 911 655 934 581 q 841 783 888 728 q 727 869 795 838 q 569 900 659 900 q 407 867 476 900 q 292 778 338 835 q 223 649 246 722 q 200 497 200 576 q 222 344 200 416 q 290 215 244 272 q 405 126 335 158 q 569 93 474 93 m 901 797 l 878 865 q 983 883 948 865 q 1031 931 1018 901 q 1043 999 1043 961 q 1035 1075 1043 1034 q 1017 1149 1026 1115 l 1103 1155 q 1120 1109 1113 1133 q 1133 1057 1128 1085 q 1138 999 1138 1030 q 1111 891 1138 936 q 1032 822 1085 846 q 901 797 980 797 m 576 1092 q 503 1175 540 1134 q 429 1259 466 1217 q 353 1344 392 1301 l 481 1346 q 575 1220 528 1283 q 669 1094 622 1157 l 576 1092 z "},"Ở":{"ha":1164,"x_min":69,"x_max":1138,"o":"m 572 -15 q 352 25 447 -15 q 195 137 258 66 q 101 301 132 208 q 69 496 69 393 q 128 756 69 640 q 298 940 187 872 q 568 1008 409 1008 q 782 969 689 1008 q 938 859 874 929 q 1033 696 1001 789 q 1065 497 1065 603 q 1006 234 1065 350 q 838 52 948 119 q 572 -15 727 -15 m 569 93 q 733 126 664 93 q 846 216 801 159 q 913 345 891 273 q 934 497 934 418 q 911 655 934 581 q 841 783 888 728 q 727 869 795 838 q 569 900 659 900 q 407 867 476 900 q 292 778 338 835 q 223 649 246 722 q 200 497 200 576 q 222 344 200 416 q 290 215 244 272 q 405 126 335 158 q 569 93 474 93 m 901 797 l 878 865 q 983 883 948 865 q 1031 931 1018 901 q 1043 999 1043 961 q 1035 1075 1043 1034 q 1017 1149 1026 1115 l 1103 1155 q 1120 1109 1113 1133 q 1133 1057 1128 1085 q 1138 999 1138 1030 q 1111 891 1138 936 q 1032 822 1085 846 q 901 797 980 797 m 515 1093 l 515 1167 q 601 1195 566 1172 q 637 1253 637 1219 q 614 1296 637 1283 q 558 1308 590 1308 q 515 1304 537 1308 q 472 1292 494 1300 q 424 1272 449 1283 l 418 1349 q 448 1362 431 1356 q 485 1374 465 1369 q 527 1382 505 1378 q 574 1385 550 1385 q 650 1373 614 1385 q 709 1335 686 1361 q 732 1266 732 1309 q 711 1196 732 1224 q 658 1152 690 1167 q 590 1133 625 1136 l 590 1093 l 515 1093 z "},"Ỡ":{"ha":1164,"x_min":69,"x_max":1138,"o":"m 572 -15 q 352 25 447 -15 q 195 137 258 66 q 101 301 132 208 q 69 496 69 393 q 128 756 69 640 q 298 940 187 872 q 568 1008 409 1008 q 782 969 689 1008 q 938 859 874 929 q 1033 696 1001 789 q 1065 497 1065 603 q 1006 234 1065 350 q 838 52 948 119 q 572 -15 727 -15 m 569 93 q 733 126 664 93 q 846 216 801 159 q 913 345 891 273 q 934 497 934 418 q 911 655 934 581 q 841 783 888 728 q 727 869 795 838 q 569 900 659 900 q 407 867 476 900 q 292 778 338 835 q 223 649 246 722 q 200 497 200 576 q 222 344 200 416 q 290 215 244 272 q 405 126 335 158 q 569 93 474 93 m 901 797 l 878 865 q 983 883 948 865 q 1031 931 1018 901 q 1043 999 1043 961 q 1035 1075 1043 1034 q 1017 1149 1026 1115 l 1103 1155 q 1120 1109 1113 1133 q 1133 1057 1128 1085 q 1138 999 1138 1030 q 1111 891 1138 936 q 1032 822 1085 846 q 901 797 980 797 m 684 1089 q 612 1107 642 1089 q 558 1149 582 1125 q 511 1191 533 1173 q 465 1209 490 1209 q 408 1183 424 1209 q 390 1110 392 1158 l 320 1110 q 356 1249 320 1201 q 453 1297 392 1297 q 524 1279 494 1297 q 577 1238 553 1261 q 623 1196 601 1214 q 671 1178 645 1178 q 726 1203 710 1178 q 743 1276 742 1229 l 813 1276 q 778 1137 813 1185 q 684 1089 744 1089 z "},"Ő":{"ha":1135,"x_min":69,"x_max":1065,"o":"m 572 -15 q 352 25 447 -15 q 195 137 258 66 q 101 301 132 208 q 69 496 69 393 q 128 756 69 640 q 298 940 187 872 q 568 1008 409 1008 q 782 969 689 1008 q 938 859 874 929 q 1033 696 1001 789 q 1065 497 1065 603 q 1006 234 1065 350 q 838 52 948 119 q 572 -15 727 -15 m 569 93 q 733 126 664 93 q 846 216 801 159 q 913 345 891 273 q 934 497 934 418 q 911 655 934 581 q 841 783 888 728 q 727 869 795 838 q 569 900 659 900 q 407 867 476 900 q 292 778 338 835 q 223 649 246 722 q 200 497 200 576 q 222 344 200 416 q 290 215 244 272 q 405 126 335 158 q 569 93 474 93 m 619 1092 q 712 1218 665 1155 q 805 1344 758 1281 l 928 1346 q 854 1261 891 1303 q 781 1177 817 1219 q 708 1094 744 1135 l 619 1092 m 366 1092 q 444 1219 406 1156 q 522 1344 483 1281 l 640 1346 q 576 1261 608 1303 q 513 1177 544 1219 q 451 1094 482 1135 l 366 1092 z "},"Ȏ":{"ha":1135,"x_min":69,"x_max":1065,"o":"m 572 -15 q 352 25 447 -15 q 195 137 258 66 q 101 301 132 208 q 69 496 69 393 q 128 756 69 640 q 298 940 187 872 q 568 1008 409 1008 q 782 969 689 1008 q 938 859 874 929 q 1033 696 1001 789 q 1065 497 1065 603 q 1006 234 1065 350 q 838 52 948 119 q 572 -15 727 -15 m 569 93 q 733 126 664 93 q 846 216 801 159 q 913 345 891 273 q 934 497 934 418 q 911 655 934 581 q 841 783 888 728 q 727 869 795 838 q 569 900 659 900 q 407 867 476 900 q 292 778 338 835 q 223 649 246 722 q 200 497 200 576 q 222 344 200 416 q 290 215 244 272 q 405 126 335 158 q 569 93 474 93 m 704 1091 q 669 1226 704 1184 q 566 1269 633 1269 q 461 1227 497 1269 q 426 1095 426 1185 l 341 1095 q 366 1238 341 1181 q 442 1325 392 1296 q 566 1354 492 1354 q 732 1289 674 1354 q 789 1095 789 1223 l 704 1091 z "},"Ō":{"ha":1135,"x_min":69,"x_max":1065,"o":"m 572 -15 q 352 25 447 -15 q 195 137 258 66 q 101 301 132 208 q 69 496 69 393 q 128 756 69 640 q 298 940 187 872 q 568 1008 409 1008 q 782 969 689 1008 q 938 859 874 929 q 1033 696 1001 789 q 1065 497 1065 603 q 1006 234 1065 350 q 838 52 948 119 q 572 -15 727 -15 m 569 93 q 733 126 664 93 q 846 216 801 159 q 913 345 891 273 q 934 497 934 418 q 911 655 934 581 q 841 783 888 728 q 727 869 795 838 q 569 900 659 900 q 407 867 476 900 q 292 778 338 835 q 223 649 246 722 q 200 497 200 576 q 222 344 200 416 q 290 215 244 272 q 405 126 335 158 q 569 93 474 93 m 349 1160 l 349 1250 q 453 1250 398 1250 q 567 1250 508 1250 q 681 1250 626 1250 q 785 1250 735 1250 l 785 1160 q 681 1160 735 1160 q 567 1160 626 1160 q 453 1160 508 1160 q 349 1160 398 1160 z "},"Ṓ":{"ha":1135,"x_min":69,"x_max":1065,"o":"m 572 -15 q 352 25 447 -15 q 195 137 258 66 q 101 301 132 208 q 69 496 69 393 q 128 756 69 640 q 298 940 187 872 q 568 1008 409 1008 q 782 969 689 1008 q 938 859 874 929 q 1033 696 1001 789 q 1065 497 1065 603 q 1006 234 1065 350 q 838 52 948 119 q 572 -15 727 -15 m 569 93 q 733 126 664 93 q 846 216 801 159 q 913 345 891 273 q 934 497 934 418 q 911 655 934 581 q 841 783 888 728 q 727 869 795 838 q 569 900 659 900 q 407 867 476 900 q 292 778 338 835 q 223 649 246 722 q 200 497 200 576 q 222 344 200 416 q 290 215 244 272 q 405 126 335 158 q 569 93 474 93 m 349 1160 l 349 1250 q 453 1250 398 1250 q 567 1250 508 1250 q 681 1250 626 1250 q 785 1250 735 1250 l 785 1160 q 681 1160 735 1160 q 567 1160 626 1160 q 453 1160 508 1160 q 349 1160 398 1160 m 464 1340 q 559 1466 512 1403 q 652 1592 606 1528 l 781 1593 q 705 1508 742 1550 q 631 1424 668 1466 q 557 1342 594 1383 l 464 1340 z "},"Ṑ":{"ha":1135,"x_min":69,"x_max":1065,"o":"m 572 -15 q 352 25 447 -15 q 195 137 258 66 q 101 301 132 208 q 69 496 69 393 q 128 756 69 640 q 298 940 187 872 q 568 1008 409 1008 q 782 969 689 1008 q 938 859 874 929 q 1033 696 1001 789 q 1065 497 1065 603 q 1006 234 1065 350 q 838 52 948 119 q 572 -15 727 -15 m 569 93 q 733 126 664 93 q 846 216 801 159 q 913 345 891 273 q 934 497 934 418 q 911 655 934 581 q 841 783 888 728 q 727 869 795 838 q 569 900 659 900 q 407 867 476 900 q 292 778 338 835 q 223 649 246 722 q 200 497 200 576 q 222 344 200 416 q 290 215 244 272 q 405 126 335 158 q 569 93 474 93 m 349 1160 l 349 1250 q 453 1250 398 1250 q 567 1250 508 1250 q 681 1250 626 1250 q 785 1250 735 1250 l 785 1160 q 681 1160 735 1160 q 567 1160 626 1160 q 453 1160 508 1160 q 349 1160 398 1160 m 576 1340 q 503 1423 540 1381 q 429 1506 466 1464 q 353 1592 392 1548 l 481 1593 q 575 1467 528 1531 q 669 1342 622 1404 l 576 1340 z "},"Ǫ":{"ha":1135,"x_min":69,"x_max":1065,"o":"m 572 -15 q 352 25 447 -15 q 195 137 258 66 q 101 301 132 208 q 69 496 69 393 q 128 756 69 640 q 298 940 187 872 q 568 1008 409 1008 q 782 969 689 1008 q 938 859 874 929 q 1033 696 1001 789 q 1065 497 1065 603 q 1006 234 1065 350 q 838 52 948 119 q 572 -15 727 -15 m 569 93 q 733 126 664 93 q 846 216 801 159 q 913 345 891 273 q 934 497 934 418 q 911 655 934 581 q 841 783 888 728 q 727 869 795 838 q 569 900 659 900 q 407 867 476 900 q 292 778 338 835 q 223 649 246 722 q 200 497 200 576 q 222 344 200 416 q 290 215 244 272 q 405 126 335 158 q 569 93 474 93 m 624 -289 q 541 -275 574 -289 q 490 -235 507 -260 q 472 -176 472 -210 q 488 -111 472 -142 q 536 -51 504 -80 q 613 5 567 -22 l 613 30 l 674 35 l 700 0 q 604 -68 644 -28 q 564 -150 564 -108 q 584 -195 564 -181 q 639 -210 605 -210 q 679 -207 663 -210 q 706 -200 696 -203 l 706 -277 q 668 -285 690 -282 q 624 -289 647 -289 z "},"Ø":{"ha":1135,"x_min":69,"x_max":1065,"o":"m 572 -15 q 352 25 447 -15 q 195 137 258 66 q 101 301 132 208 q 69 496 69 393 q 128 756 69 640 q 298 940 187 872 q 568 1008 409 1008 q 782 969 689 1008 q 938 859 874 929 q 1033 696 1001 789 q 1065 497 1065 603 q 1006 234 1065 350 q 838 52 948 119 q 572 -15 727 -15 m 569 93 q 733 126 664 93 q 846 216 801 159 q 913 345 891 273 q 934 497 934 418 q 911 655 934 581 q 841 783 888 728 q 727 869 795 838 q 569 900 659 900 q 407 867 476 900 q 292 778 338 835 q 223 649 246 722 q 200 497 200 576 q 222 344 200 416 q 290 215 244 272 q 405 126 335 158 q 569 93 474 93 m 183 -90 l 119 -36 q 255 143 191 59 q 394 324 319 226 l 667 681 q 810 868 744 781 q 946 1045 876 954 l 1013 994 q 876 817 942 902 q 735 632 811 731 l 459 272 q 318 86 384 173 q 183 -90 251 0 z "},"Ǿ":{"ha":1135,"x_min":69,"x_max":1065,"o":"m 572 -15 q 352 25 447 -15 q 195 137 258 66 q 101 301 132 208 q 69 496 69 393 q 128 756 69 640 q 298 940 187 872 q 568 1008 409 1008 q 782 969 689 1008 q 938 859 874 929 q 1033 696 1001 789 q 1065 497 1065 603 q 1006 234 1065 350 q 838 52 948 119 q 572 -15 727 -15 m 569 93 q 733 126 664 93 q 846 216 801 159 q 913 345 891 273 q 934 497 934 418 q 911 655 934 581 q 841 783 888 728 q 727 869 795 838 q 569 900 659 900 q 407 867 476 900 q 292 778 338 835 q 223 649 246 722 q 200 497 200 576 q 222 344 200 416 q 290 215 244 272 q 405 126 335 158 q 569 93 474 93 m 183 -90 l 119 -36 q 255 143 191 59 q 394 324 319 226 l 667 681 q 810 868 744 781 q 946 1045 876 954 l 1013 994 q 876 817 942 902 q 735 632 811 731 l 459 272 q 318 86 384 173 q 183 -90 251 0 m 464 1092 q 559 1219 512 1156 q 652 1344 606 1281 l 781 1346 q 705 1261 742 1303 q 631 1177 668 1219 q 557 1094 594 1135 l 464 1092 z "},"Õ":{"ha":1135,"x_min":69,"x_max":1065,"o":"m 572 -15 q 352 25 447 -15 q 195 137 258 66 q 101 301 132 208 q 69 496 69 393 q 128 756 69 640 q 298 940 187 872 q 568 1008 409 1008 q 782 969 689 1008 q 938 859 874 929 q 1033 696 1001 789 q 1065 497 1065 603 q 1006 234 1065 350 q 838 52 948 119 q 572 -15 727 -15 m 569 93 q 733 126 664 93 q 846 216 801 159 q 913 345 891 273 q 934 497 934 418 q 911 655 934 581 q 841 783 888 728 q 727 869 795 838 q 569 900 659 900 q 407 867 476 900 q 292 778 338 835 q 223 649 246 722 q 200 497 200 576 q 222 344 200 416 q 290 215 244 272 q 405 126 335 158 q 569 93 474 93 m 684 1089 q 612 1107 642 1089 q 558 1149 582 1125 q 511 1191 533 1173 q 465 1209 490 1209 q 408 1183 424 1209 q 390 1110 392 1158 l 320 1110 q 356 1249 320 1201 q 453 1297 392 1297 q 524 1279 494 1297 q 577 1238 553 1261 q 623 1196 601 1214 q 671 1178 645 1178 q 726 1203 710 1178 q 743 1276 742 1229 l 813 1276 q 778 1137 813 1185 q 684 1089 744 1089 z "},"Ṍ":{"ha":1135,"x_min":69,"x_max":1065,"o":"m 572 -15 q 352 25 447 -15 q 195 137 258 66 q 101 301 132 208 q 69 496 69 393 q 128 756 69 640 q 298 940 187 872 q 568 1008 409 1008 q 782 969 689 1008 q 938 859 874 929 q 1033 696 1001 789 q 1065 497 1065 603 q 1006 234 1065 350 q 838 52 948 119 q 572 -15 727 -15 m 569 93 q 733 126 664 93 q 846 216 801 159 q 913 345 891 273 q 934 497 934 418 q 911 655 934 581 q 841 783 888 728 q 727 869 795 838 q 569 900 659 900 q 407 867 476 900 q 292 778 338 835 q 223 649 246 722 q 200 497 200 576 q 222 344 200 416 q 290 215 244 272 q 405 126 335 158 q 569 93 474 93 m 684 1089 q 612 1107 642 1089 q 558 1149 582 1125 q 511 1191 533 1173 q 465 1209 490 1209 q 408 1183 424 1209 q 390 1110 392 1158 l 320 1110 q 356 1249 320 1201 q 453 1297 392 1297 q 524 1279 494 1297 q 577 1238 553 1261 q 623 1196 601 1214 q 671 1178 645 1178 q 726 1203 710 1178 q 743 1276 742 1229 l 813 1276 q 778 1137 813 1185 q 684 1089 744 1089 m 464 1358 q 559 1485 512 1422 q 652 1610 606 1547 l 781 1612 q 705 1527 742 1569 q 631 1443 668 1485 q 557 1360 594 1401 l 464 1358 z "},"Ṏ":{"ha":1135,"x_min":69,"x_max":1065,"o":"m 572 -15 q 352 25 447 -15 q 195 137 258 66 q 101 301 132 208 q 69 496 69 393 q 128 756 69 640 q 298 940 187 872 q 568 1008 409 1008 q 782 969 689 1008 q 938 859 874 929 q 1033 696 1001 789 q 1065 497 1065 603 q 1006 234 1065 350 q 838 52 948 119 q 572 -15 727 -15 m 569 93 q 733 126 664 93 q 846 216 801 159 q 913 345 891 273 q 934 497 934 418 q 911 655 934 581 q 841 783 888 728 q 727 869 795 838 q 569 900 659 900 q 407 867 476 900 q 292 778 338 835 q 223 649 246 722 q 200 497 200 576 q 222 344 200 416 q 290 215 244 272 q 405 126 335 158 q 569 93 474 93 m 684 1089 q 612 1107 642 1089 q 558 1149 582 1125 q 511 1191 533 1173 q 465 1209 490 1209 q 408 1183 424 1209 q 390 1110 392 1158 l 320 1110 q 356 1249 320 1201 q 453 1297 392 1297 q 524 1279 494 1297 q 577 1238 553 1261 q 623 1196 601 1214 q 671 1178 645 1178 q 726 1203 710 1178 q 743 1276 742 1229 l 813 1276 q 778 1137 813 1185 q 684 1089 744 1089 m 713 1395 q 658 1416 679 1395 q 638 1476 638 1436 q 659 1536 638 1515 q 715 1557 680 1557 q 769 1535 749 1557 q 790 1476 790 1513 q 769 1416 790 1436 q 713 1395 749 1395 m 419 1395 q 364 1416 385 1395 q 343 1476 343 1436 q 364 1536 343 1515 q 420 1557 385 1557 q 475 1535 455 1557 q 495 1476 495 1513 q 475 1416 495 1436 q 419 1395 454 1395 z "},"Ȭ":{"ha":1135,"x_min":69,"x_max":1065,"o":"m 572 -15 q 352 25 447 -15 q 195 137 258 66 q 101 301 132 208 q 69 496 69 393 q 128 756 69 640 q 298 940 187 872 q 568 1008 409 1008 q 782 969 689 1008 q 938 859 874 929 q 1033 696 1001 789 q 1065 497 1065 603 q 1006 234 1065 350 q 838 52 948 119 q 572 -15 727 -15 m 569 93 q 733 126 664 93 q 846 216 801 159 q 913 345 891 273 q 934 497 934 418 q 911 655 934 581 q 841 783 888 728 q 727 869 795 838 q 569 900 659 900 q 407 867 476 900 q 292 778 338 835 q 223 649 246 722 q 200 497 200 576 q 222 344 200 416 q 290 215 244 272 q 405 126 335 158 q 569 93 474 93 m 684 1089 q 612 1107 642 1089 q 558 1149 582 1125 q 511 1191 533 1173 q 465 1209 490 1209 q 408 1183 424 1209 q 390 1110 392 1158 l 320 1110 q 356 1249 320 1201 q 453 1297 392 1297 q 524 1279 494 1297 q 577 1238 553 1261 q 623 1196 601 1214 q 671 1178 645 1178 q 726 1203 710 1178 q 743 1276 742 1229 l 813 1276 q 778 1137 813 1185 q 684 1089 744 1089 m 349 1426 l 349 1516 q 453 1516 398 1516 q 567 1516 508 1516 q 681 1516 626 1516 q 785 1516 735 1516 l 785 1426 q 681 1426 735 1426 q 567 1426 626 1426 q 453 1426 508 1426 q 349 1426 398 1426 z "},"Œ":{"ha":1507,"x_min":69,"x_max":1428,"o":"m 577 -15 q 363 23 458 -15 q 203 130 269 61 q 104 293 138 199 q 69 497 69 386 q 130 762 69 647 q 300 943 190 878 q 558 1008 410 1008 q 685 996 625 1008 q 796 965 746 984 q 881 927 846 947 l 869 806 q 713 876 788 855 q 569 897 638 897 q 380 849 463 897 q 248 710 297 800 q 200 497 200 620 q 225 341 200 414 q 299 212 250 267 q 421 125 349 156 q 588 93 493 93 q 730 112 660 93 q 863 177 800 131 l 874 56 q 785 15 834 31 q 683 -8 736 -1 q 577 -15 630 -15 m 811 0 q 811 159 811 83 q 811 327 811 235 l 811 660 q 811 830 811 752 q 811 990 811 908 l 1426 990 l 1426 883 q 1277 883 1357 883 q 1090 883 1198 883 l 865 883 l 935 972 q 935 811 935 889 q 935 642 935 734 l 935 346 q 935 178 935 255 q 935 19 935 101 l 872 108 l 1101 108 q 1273 108 1192 108 q 1428 108 1353 108 l 1428 0 l 811 0 m 907 449 l 907 554 l 1099 554 q 1265 554 1196 554 q 1399 554 1334 554 l 1399 449 q 1261 449 1331 449 q 1099 449 1192 449 l 907 449 z "},"P":{"ha":872,"x_min":128,"x_max":813,"o":"m 128 0 q 128 159 128 83 q 128 327 128 235 l 128 660 q 128 830 128 752 q 128 990 128 908 q 274 990 185 990 q 478 990 363 990 q 666 960 592 990 q 776 868 740 931 q 813 707 813 805 q 780 545 813 616 q 667 435 746 475 q 452 394 588 394 q 378 394 417 394 q 301 394 338 394 q 235 394 263 394 l 235 499 l 428 499 q 574 519 517 499 q 658 586 631 540 q 685 706 685 632 q 665 803 685 767 q 613 857 645 840 q 543 881 581 875 q 470 886 506 886 l 191 886 l 252 972 q 252 811 252 889 q 252 642 252 734 l 252 327 q 252 159 252 235 q 252 0 252 83 l 128 0 z "},"Þ":{"ha":871,"x_min":128,"x_max":813,"o":"m 128 0 q 128 159 128 83 q 128 327 128 235 l 128 660 q 128 830 128 752 q 128 990 128 908 l 252 990 q 252 830 252 908 q 252 660 252 752 l 252 327 q 252 159 252 235 q 252 0 252 83 l 128 0 m 452 218 q 378 218 417 218 q 301 218 338 218 q 236 218 264 218 l 236 322 l 428 322 q 574 343 517 322 q 658 410 631 364 q 685 529 685 456 q 665 626 685 590 q 613 680 645 663 q 543 703 581 698 q 470 709 506 709 l 236 709 l 236 813 q 341 813 281 813 q 478 813 401 813 q 666 783 592 813 q 776 691 740 753 q 813 530 813 628 q 780 369 813 440 q 667 258 746 299 q 452 218 588 218 z "},"Q":{"ha":1135,"x_min":69,"x_max":1065,"o":"m 897 -234 q 809 -161 853 -197 q 722 -90 766 -126 l 610 3 l 679 76 l 818 -32 q 909 -102 863 -67 q 1009 -181 954 -137 l 897 -234 m 572 -15 q 352 25 447 -15 q 195 137 258 66 q 101 301 132 208 q 69 496 69 393 q 128 756 69 640 q 298 940 187 872 q 568 1008 409 1008 q 782 969 689 1008 q 938 859 874 929 q 1033 696 1001 789 q 1065 497 1065 603 q 1006 234 1065 350 q 838 52 948 119 q 572 -15 727 -15 m 569 93 q 733 126 664 93 q 846 216 801 159 q 913 345 891 273 q 934 497 934 418 q 911 655 934 581 q 841 783 888 728 q 727 869 795 838 q 569 900 659 900 q 407 867 476 900 q 292 778 338 835 q 223 649 246 722 q 200 497 200 576 q 222 344 200 416 q 290 215 244 272 q 405 126 335 158 q 569 93 474 93 z "},"R":{"ha":931,"x_min":128,"x_max":890,"o":"m 128 0 q 128 159 128 83 q 128 327 128 235 l 128 660 q 128 830 128 752 q 128 990 128 908 q 220 990 168 990 q 333 990 272 990 q 463 990 394 990 q 652 964 576 990 q 765 878 727 937 q 803 722 803 819 q 771 574 803 641 q 666 466 740 506 q 467 424 592 425 l 506 479 l 663 284 q 740 188 699 239 q 820 87 781 136 q 890 0 859 38 l 742 0 q 648 121 693 63 q 558 235 602 179 l 380 464 l 457 402 l 230 402 l 230 506 l 418 506 q 561 526 505 506 q 645 591 617 546 q 673 710 673 635 q 653 807 673 772 q 601 860 633 843 q 531 881 569 876 q 459 886 494 886 l 167 886 l 251 972 q 251 810 251 887 q 251 642 251 733 l 251 327 q 251 159 251 235 q 251 0 251 83 l 128 0 z "},"Ŕ":{"ha":931,"x_min":128,"x_max":890,"o":"m 128 0 q 128 159 128 83 q 128 327 128 235 l 128 660 q 128 830 128 752 q 128 990 128 908 q 220 990 168 990 q 333 990 272 990 q 463 990 394 990 q 652 964 576 990 q 765 878 727 937 q 803 722 803 819 q 771 574 803 641 q 666 466 740 506 q 467 424 592 425 l 506 479 l 663 284 q 740 188 699 239 q 820 87 781 136 q 890 0 859 38 l 742 0 q 648 121 693 63 q 558 235 602 179 l 380 464 l 457 402 l 230 402 l 230 506 l 418 506 q 561 526 505 506 q 645 591 617 546 q 673 710 673 635 q 653 807 673 772 q 601 860 633 843 q 531 881 569 876 q 459 886 494 886 l 167 886 l 251 972 q 251 810 251 887 q 251 642 251 733 l 251 327 q 251 159 251 235 q 251 0 251 83 l 128 0 m 338 1092 q 432 1219 385 1156 q 526 1344 479 1281 l 654 1346 q 579 1261 616 1303 q 505 1177 542 1219 q 431 1094 467 1135 l 338 1092 z "},"Ř":{"ha":931,"x_min":128,"x_max":890,"o":"m 128 0 q 128 159 128 83 q 128 327 128 235 l 128 660 q 128 830 128 752 q 128 990 128 908 q 220 990 168 990 q 333 990 272 990 q 463 990 394 990 q 652 964 576 990 q 765 878 727 937 q 803 722 803 819 q 771 574 803 641 q 666 466 740 506 q 467 424 592 425 l 506 479 l 663 284 q 740 188 699 239 q 820 87 781 136 q 890 0 859 38 l 742 0 q 648 121 693 63 q 558 235 602 179 l 380 464 l 457 402 l 230 402 l 230 506 l 418 506 q 561 526 505 506 q 645 591 617 546 q 673 710 673 635 q 653 807 673 772 q 601 860 633 843 q 531 881 569 876 q 459 886 494 886 l 167 886 l 251 972 q 251 810 251 887 q 251 642 251 733 l 251 327 q 251 159 251 235 q 251 0 251 83 l 128 0 m 378 1092 q 283 1218 331 1156 q 189 1344 236 1281 l 282 1345 q 369 1243 326 1294 q 458 1140 413 1192 l 424 1140 q 512 1242 469 1192 q 599 1342 555 1292 l 692 1342 q 598 1218 645 1281 q 503 1092 551 1156 l 378 1092 z "},"Ŗ":{"ha":931,"x_min":128,"x_max":890,"o":"m 128 0 q 128 159 128 83 q 128 327 128 235 l 128 660 q 128 830 128 752 q 128 990 128 908 q 220 990 168 990 q 333 990 272 990 q 463 990 394 990 q 652 964 576 990 q 765 878 727 937 q 803 722 803 819 q 771 574 803 641 q 666 466 740 506 q 467 424 592 425 l 506 479 l 663 284 q 740 188 699 239 q 820 87 781 136 q 890 0 859 38 l 742 0 q 648 121 693 63 q 558 235 602 179 l 380 464 l 457 402 l 230 402 l 230 506 l 418 506 q 561 526 505 506 q 645 591 617 546 q 673 710 673 635 q 653 807 673 772 q 601 860 633 843 q 531 881 569 876 q 459 886 494 886 l 167 886 l 251 972 q 251 810 251 887 q 251 642 251 733 l 251 327 q 251 159 251 235 q 251 0 251 83 l 128 0 m 374 -396 q 409 -319 402 -356 q 416 -226 416 -281 q 416 -180 416 -203 q 416 -134 416 -157 l 474 -130 q 528 -151 510 -131 q 546 -203 546 -172 q 532 -275 546 -239 q 491 -341 517 -310 q 430 -394 465 -372 l 374 -396 z "},"Ȑ":{"ha":931,"x_min":81,"x_max":890,"o":"m 128 0 q 128 159 128 83 q 128 327 128 235 l 128 660 q 128 830 128 752 q 128 990 128 908 q 220 990 168 990 q 333 990 272 990 q 463 990 394 990 q 652 964 576 990 q 765 878 727 937 q 803 722 803 819 q 771 574 803 641 q 666 466 740 506 q 467 424 592 425 l 506 479 l 663 284 q 740 188 699 239 q 820 87 781 136 q 890 0 859 38 l 742 0 q 648 121 693 63 q 558 235 602 179 l 380 464 l 457 402 l 230 402 l 230 506 l 418 506 q 561 526 505 506 q 645 591 617 546 q 673 710 673 635 q 653 807 673 772 q 601 860 633 843 q 531 881 569 876 q 459 886 494 886 l 167 886 l 251 972 q 251 810 251 887 q 251 642 251 733 l 251 327 q 251 159 251 235 q 251 0 251 83 l 128 0 m 298 1092 q 227 1175 263 1133 q 155 1259 191 1217 q 81 1344 118 1301 l 201 1346 q 293 1220 247 1284 q 386 1094 340 1157 l 298 1092 m 556 1092 q 494 1175 526 1133 q 432 1259 463 1217 q 369 1344 401 1301 l 485 1346 q 561 1221 523 1284 q 640 1094 600 1158 l 556 1092 z "},"Ṛ":{"ha":931,"x_min":128,"x_max":890,"o":"m 128 0 q 128 159 128 83 q 128 327 128 235 l 128 660 q 128 830 128 752 q 128 990 128 908 q 220 990 168 990 q 333 990 272 990 q 463 990 394 990 q 652 964 576 990 q 765 878 727 937 q 803 722 803 819 q 771 574 803 641 q 666 466 740 506 q 467 424 592 425 l 506 479 l 663 284 q 740 188 699 239 q 820 87 781 136 q 890 0 859 38 l 742 0 q 648 121 693 63 q 558 235 602 179 l 380 464 l 457 402 l 230 402 l 230 506 l 418 506 q 561 526 505 506 q 645 591 617 546 q 673 710 673 635 q 653 807 673 772 q 601 860 633 843 q 531 881 569 876 q 459 886 494 886 l 167 886 l 251 972 q 251 810 251 887 q 251 642 251 733 l 251 327 q 251 159 251 235 q 251 0 251 83 l 128 0 m 467 -299 q 406 -278 430 -299 q 383 -215 383 -258 q 406 -151 383 -172 q 469 -130 430 -130 q 530 -152 507 -130 q 553 -215 553 -174 q 530 -278 553 -258 q 467 -299 507 -299 z "},"Ȓ":{"ha":931,"x_min":128,"x_max":890,"o":"m 128 0 q 128 159 128 83 q 128 327 128 235 l 128 660 q 128 830 128 752 q 128 990 128 908 q 220 990 168 990 q 333 990 272 990 q 463 990 394 990 q 652 964 576 990 q 765 878 727 937 q 803 722 803 819 q 771 574 803 641 q 666 466 740 506 q 467 424 592 425 l 506 479 l 663 284 q 740 188 699 239 q 820 87 781 136 q 890 0 859 38 l 742 0 q 648 121 693 63 q 558 235 602 179 l 380 464 l 457 402 l 230 402 l 230 506 l 418 506 q 561 526 505 506 q 645 591 617 546 q 673 710 673 635 q 653 807 673 772 q 601 860 633 843 q 531 881 569 876 q 459 886 494 886 l 167 886 l 251 972 q 251 810 251 887 q 251 642 251 733 l 251 327 q 251 159 251 235 q 251 0 251 83 l 128 0 m 578 1091 q 542 1226 578 1184 q 440 1269 507 1269 q 335 1227 371 1269 q 299 1095 299 1185 l 215 1095 q 240 1238 215 1181 q 315 1325 265 1296 q 440 1354 365 1354 q 605 1289 548 1354 q 663 1095 663 1223 l 578 1091 z "},"Ṟ":{"ha":931,"x_min":128,"x_max":890,"o":"m 128 0 q 128 159 128 83 q 128 327 128 235 l 128 660 q 128 830 128 752 q 128 990 128 908 q 220 990 168 990 q 333 990 272 990 q 463 990 394 990 q 652 964 576 990 q 765 878 727 937 q 803 722 803 819 q 771 574 803 641 q 666 466 740 506 q 467 424 592 425 l 506 479 l 663 284 q 740 188 699 239 q 820 87 781 136 q 890 0 859 38 l 742 0 q 648 121 693 63 q 558 235 602 179 l 380 464 l 457 402 l 230 402 l 230 506 l 418 506 q 561 526 505 506 q 645 591 617 546 q 673 710 673 635 q 653 807 673 772 q 601 860 633 843 q 531 881 569 876 q 459 886 494 886 l 167 886 l 251 972 q 251 810 251 887 q 251 642 251 733 l 251 327 q 251 159 251 235 q 251 0 251 83 l 128 0 m 250 -249 l 250 -160 q 354 -160 299 -160 q 468 -160 409 -160 q 582 -160 528 -160 q 686 -160 637 -160 l 686 -249 q 582 -249 637 -249 q 468 -249 528 -249 q 354 -249 409 -249 q 250 -249 299 -249 z "},"S":{"ha":815,"x_min":76,"x_max":758,"o":"m 416 -15 q 291 -4 354 -15 q 175 25 228 8 q 90 59 122 42 l 101 178 q 198 133 148 152 q 301 103 249 114 q 408 93 353 93 q 520 110 470 93 q 598 164 569 127 q 627 262 627 201 q 597 349 627 315 q 511 408 567 383 q 374 458 454 433 q 213 523 279 488 q 111 609 146 558 q 76 739 76 660 q 112 877 76 816 q 221 973 149 938 q 400 1008 293 1008 q 488 1002 444 1008 q 571 985 531 996 q 643 961 610 974 q 699 934 676 948 l 686 815 q 597 862 644 843 q 503 891 549 881 q 417 900 456 900 q 313 883 360 900 q 237 832 266 867 q 208 744 208 798 q 233 665 208 697 q 309 609 257 634 q 444 558 362 585 q 632 482 564 521 q 730 393 701 444 q 758 269 758 342 q 723 124 758 188 q 611 22 687 60 q 416 -15 535 -15 z "},"Ś":{"ha":814,"x_min":76,"x_max":758,"o":"m 416 -15 q 291 -4 354 -15 q 175 25 228 8 q 90 59 122 42 l 101 178 q 198 133 148 152 q 301 103 249 114 q 408 93 353 93 q 520 110 470 93 q 598 164 569 127 q 627 262 627 201 q 597 349 627 315 q 511 408 567 383 q 374 458 454 433 q 213 523 279 488 q 111 609 146 558 q 76 739 76 660 q 112 877 76 816 q 221 973 149 938 q 400 1008 293 1008 q 488 1002 444 1008 q 571 985 531 996 q 643 961 610 974 q 699 934 676 948 l 686 815 q 597 862 644 843 q 503 891 549 881 q 417 900 456 900 q 313 883 360 900 q 237 832 266 867 q 208 744 208 798 q 233 665 208 697 q 309 609 257 634 q 444 558 362 585 q 632 482 564 521 q 730 393 701 444 q 758 269 758 342 q 723 124 758 188 q 611 22 687 60 q 416 -15 535 -15 m 310 1092 q 405 1219 358 1156 q 498 1344 451 1281 l 626 1346 q 551 1261 588 1303 q 477 1177 514 1219 q 403 1094 440 1135 l 310 1092 z "},"Ṥ":{"ha":814,"x_min":76,"x_max":758,"o":"m 416 -15 q 291 -4 354 -15 q 175 25 228 8 q 90 59 122 42 l 101 178 q 198 133 148 152 q 301 103 249 114 q 408 93 353 93 q 520 110 470 93 q 598 164 569 127 q 627 262 627 201 q 597 349 627 315 q 511 408 567 383 q 374 458 454 433 q 213 523 279 488 q 111 609 146 558 q 76 739 76 660 q 112 877 76 816 q 221 973 149 938 q 400 1008 293 1008 q 488 1002 444 1008 q 571 985 531 996 q 643 961 610 974 q 699 934 676 948 l 686 815 q 597 862 644 843 q 503 891 549 881 q 417 900 456 900 q 313 883 360 900 q 237 832 266 867 q 208 744 208 798 q 233 665 208 697 q 309 609 257 634 q 444 558 362 585 q 632 482 564 521 q 730 393 701 444 q 758 269 758 342 q 723 124 758 188 q 611 22 687 60 q 416 -15 535 -15 m 310 1092 q 405 1219 358 1156 q 498 1344 451 1281 l 626 1346 q 551 1261 588 1303 q 477 1177 514 1219 q 403 1094 440 1135 l 310 1092 m 410 1407 q 349 1427 372 1407 q 325 1492 325 1448 q 349 1555 325 1533 q 411 1576 372 1576 q 472 1554 449 1576 q 495 1492 495 1532 q 472 1427 495 1448 q 410 1407 449 1407 z "},"Š":{"ha":814,"x_min":76,"x_max":758,"o":"m 416 -15 q 291 -4 354 -15 q 175 25 228 8 q 90 59 122 42 l 101 178 q 198 133 148 152 q 301 103 249 114 q 408 93 353 93 q 520 110 470 93 q 598 164 569 127 q 627 262 627 201 q 597 349 627 315 q 511 408 567 383 q 374 458 454 433 q 213 523 279 488 q 111 609 146 558 q 76 739 76 660 q 112 877 76 816 q 221 973 149 938 q 400 1008 293 1008 q 488 1002 444 1008 q 571 985 531 996 q 643 961 610 974 q 699 934 676 948 l 686 815 q 597 862 644 843 q 503 891 549 881 q 417 900 456 900 q 313 883 360 900 q 237 832 266 867 q 208 744 208 798 q 233 665 208 697 q 309 609 257 634 q 444 558 362 585 q 632 482 564 521 q 730 393 701 444 q 758 269 758 342 q 723 124 758 188 q 611 22 687 60 q 416 -15 535 -15 m 350 1092 q 256 1218 303 1156 q 161 1344 208 1281 l 254 1345 q 341 1243 298 1294 q 430 1140 385 1192 l 397 1140 q 484 1242 441 1192 q 571 1342 527 1292 l 664 1342 q 570 1218 617 1281 q 476 1092 524 1156 l 350 1092 z "},"Ṧ":{"ha":814,"x_min":76,"x_max":758,"o":"m 416 -15 q 291 -4 354 -15 q 175 25 228 8 q 90 59 122 42 l 101 178 q 198 133 148 152 q 301 103 249 114 q 408 93 353 93 q 520 110 470 93 q 598 164 569 127 q 627 262 627 201 q 597 349 627 315 q 511 408 567 383 q 374 458 454 433 q 213 523 279 488 q 111 609 146 558 q 76 739 76 660 q 112 877 76 816 q 221 973 149 938 q 400 1008 293 1008 q 488 1002 444 1008 q 571 985 531 996 q 643 961 610 974 q 699 934 676 948 l 686 815 q 597 862 644 843 q 503 891 549 881 q 417 900 456 900 q 313 883 360 900 q 237 832 266 867 q 208 744 208 798 q 233 665 208 697 q 309 609 257 634 q 444 558 362 585 q 632 482 564 521 q 730 393 701 444 q 758 269 758 342 q 723 124 758 188 q 611 22 687 60 q 416 -15 535 -15 m 350 1092 q 256 1218 303 1156 q 161 1344 208 1281 l 254 1345 q 341 1243 298 1294 q 430 1140 385 1192 l 397 1140 q 484 1242 441 1192 q 571 1342 527 1292 l 664 1342 q 570 1218 617 1281 q 476 1092 524 1156 l 350 1092 m 410 1397 q 349 1417 372 1397 q 325 1481 325 1438 q 349 1544 325 1523 q 411 1566 372 1566 q 472 1544 449 1566 q 495 1481 495 1522 q 472 1417 495 1438 q 410 1397 449 1397 z "},"Ş":{"ha":814,"x_min":76,"x_max":758,"o":"m 416 -15 q 291 -4 354 -15 q 175 25 228 8 q 90 59 122 42 l 101 178 q 198 133 148 152 q 301 103 249 114 q 408 93 353 93 q 520 110 470 93 q 598 164 569 127 q 627 262 627 201 q 597 349 627 315 q 511 408 567 383 q 374 458 454 433 q 213 523 279 488 q 111 609 146 558 q 76 739 76 660 q 112 877 76 816 q 221 973 149 938 q 400 1008 293 1008 q 488 1002 444 1008 q 571 985 531 996 q 643 961 610 974 q 699 934 676 948 l 686 815 q 597 862 644 843 q 503 891 549 881 q 417 900 456 900 q 313 883 360 900 q 237 832 266 867 q 208 744 208 798 q 233 665 208 697 q 309 609 257 634 q 444 558 362 585 q 632 482 564 521 q 730 393 701 444 q 758 269 758 342 q 723 124 758 188 q 611 22 687 60 q 416 -15 535 -15 m 379 -299 q 349 -297 365 -299 q 318 -293 333 -296 q 294 -287 304 -291 l 294 -214 q 323 -220 303 -217 q 365 -224 342 -224 q 433 -208 413 -224 q 452 -168 452 -192 q 442 -141 452 -154 q 407 -117 433 -128 q 333 -101 381 -107 l 387 26 l 453 26 l 453 0 l 419 -80 q 497 -103 469 -87 q 535 -141 524 -119 q 547 -185 547 -162 q 530 -242 547 -216 q 476 -283 513 -268 q 379 -299 440 -299 z "},"Ŝ":{"ha":814,"x_min":76,"x_max":758,"o":"m 416 -15 q 291 -4 354 -15 q 175 25 228 8 q 90 59 122 42 l 101 178 q 198 133 148 152 q 301 103 249 114 q 408 93 353 93 q 520 110 470 93 q 598 164 569 127 q 627 262 627 201 q 597 349 627 315 q 511 408 567 383 q 374 458 454 433 q 213 523 279 488 q 111 609 146 558 q 76 739 76 660 q 112 877 76 816 q 221 973 149 938 q 400 1008 293 1008 q 488 1002 444 1008 q 571 985 531 996 q 643 961 610 974 q 699 934 676 948 l 686 815 q 597 862 644 843 q 503 891 549 881 q 417 900 456 900 q 313 883 360 900 q 237 832 266 867 q 208 744 208 798 q 233 665 208 697 q 309 609 257 634 q 444 558 362 585 q 632 482 564 521 q 730 393 701 444 q 758 269 758 342 q 723 124 758 188 q 611 22 687 60 q 416 -15 535 -15 m 569 1091 q 482 1193 526 1143 q 394 1297 439 1244 l 427 1297 q 340 1194 383 1244 q 253 1094 297 1144 l 160 1094 q 253 1218 206 1156 q 348 1344 301 1281 l 474 1344 q 568 1218 521 1281 q 663 1093 615 1156 l 569 1091 z "},"Ș":{"ha":814,"x_min":76,"x_max":758,"o":"m 416 -15 q 291 -4 354 -15 q 175 25 228 8 q 90 59 122 42 l 101 178 q 198 133 148 152 q 301 103 249 114 q 408 93 353 93 q 520 110 470 93 q 598 164 569 127 q 627 262 627 201 q 597 349 627 315 q 511 408 567 383 q 374 458 454 433 q 213 523 279 488 q 111 609 146 558 q 76 739 76 660 q 112 877 76 816 q 221 973 149 938 q 400 1008 293 1008 q 488 1002 444 1008 q 571 985 531 996 q 643 961 610 974 q 699 934 676 948 l 686 815 q 597 862 644 843 q 503 891 549 881 q 417 900 456 900 q 313 883 360 900 q 237 832 266 867 q 208 744 208 798 q 233 665 208 697 q 309 609 257 634 q 444 558 362 585 q 632 482 564 521 q 730 393 701 444 q 758 269 758 342 q 723 124 758 188 q 611 22 687 60 q 416 -15 535 -15 m 319 -396 q 353 -319 347 -356 q 360 -226 360 -281 q 360 -180 360 -203 q 360 -134 360 -157 l 418 -130 q 472 -151 454 -131 q 490 -203 490 -172 q 476 -275 490 -239 q 436 -341 462 -310 q 374 -394 410 -372 l 319 -396 z "},"Ṡ":{"ha":814,"x_min":76,"x_max":758,"o":"m 416 -15 q 291 -4 354 -15 q 175 25 228 8 q 90 59 122 42 l 101 178 q 198 133 148 152 q 301 103 249 114 q 408 93 353 93 q 520 110 470 93 q 598 164 569 127 q 627 262 627 201 q 597 349 627 315 q 511 408 567 383 q 374 458 454 433 q 213 523 279 488 q 111 609 146 558 q 76 739 76 660 q 112 877 76 816 q 221 973 149 938 q 400 1008 293 1008 q 488 1002 444 1008 q 571 985 531 996 q 643 961 610 974 q 699 934 676 948 l 686 815 q 597 862 644 843 q 503 891 549 881 q 417 900 456 900 q 313 883 360 900 q 237 832 266 867 q 208 744 208 798 q 233 665 208 697 q 309 609 257 634 q 444 558 362 585 q 632 482 564 521 q 730 393 701 444 q 758 269 758 342 q 723 124 758 188 q 611 22 687 60 q 416 -15 535 -15 m 410 1129 q 349 1150 373 1129 q 326 1214 326 1170 q 349 1277 326 1256 q 412 1299 373 1299 q 473 1276 450 1299 q 496 1214 496 1254 q 473 1150 496 1170 q 410 1129 450 1129 z "},"Ṣ":{"ha":814,"x_min":76,"x_max":758,"o":"m 416 -15 q 291 -4 354 -15 q 175 25 228 8 q 90 59 122 42 l 101 178 q 198 133 148 152 q 301 103 249 114 q 408 93 353 93 q 520 110 470 93 q 598 164 569 127 q 627 262 627 201 q 597 349 627 315 q 511 408 567 383 q 374 458 454 433 q 213 523 279 488 q 111 609 146 558 q 76 739 76 660 q 112 877 76 816 q 221 973 149 938 q 400 1008 293 1008 q 488 1002 444 1008 q 571 985 531 996 q 643 961 610 974 q 699 934 676 948 l 686 815 q 597 862 644 843 q 503 891 549 881 q 417 900 456 900 q 313 883 360 900 q 237 832 266 867 q 208 744 208 798 q 233 665 208 697 q 309 609 257 634 q 444 558 362 585 q 632 482 564 521 q 730 393 701 444 q 758 269 758 342 q 723 124 758 188 q 611 22 687 60 q 416 -15 535 -15 m 412 -299 q 351 -278 374 -299 q 327 -215 327 -258 q 351 -151 327 -172 q 413 -130 374 -130 q 474 -152 451 -130 q 497 -215 497 -174 q 474 -278 497 -258 q 412 -299 451 -299 z "},"Ṩ":{"ha":814,"x_min":76,"x_max":758,"o":"m 416 -15 q 291 -4 354 -15 q 175 25 228 8 q 90 59 122 42 l 101 178 q 198 133 148 152 q 301 103 249 114 q 408 93 353 93 q 520 110 470 93 q 598 164 569 127 q 627 262 627 201 q 597 349 627 315 q 511 408 567 383 q 374 458 454 433 q 213 523 279 488 q 111 609 146 558 q 76 739 76 660 q 112 877 76 816 q 221 973 149 938 q 400 1008 293 1008 q 488 1002 444 1008 q 571 985 531 996 q 643 961 610 974 q 699 934 676 948 l 686 815 q 597 862 644 843 q 503 891 549 881 q 417 900 456 900 q 313 883 360 900 q 237 832 266 867 q 208 744 208 798 q 233 665 208 697 q 309 609 257 634 q 444 558 362 585 q 632 482 564 521 q 730 393 701 444 q 758 269 758 342 q 723 124 758 188 q 611 22 687 60 q 416 -15 535 -15 m 412 -299 q 351 -278 374 -299 q 327 -215 327 -258 q 351 -151 327 -172 q 413 -130 374 -130 q 474 -152 451 -130 q 497 -215 497 -174 q 474 -278 497 -258 q 412 -299 451 -299 m 410 1129 q 349 1150 373 1129 q 326 1214 326 1170 q 349 1277 326 1256 q 412 1299 373 1299 q 473 1276 450 1299 q 496 1214 496 1254 q 473 1150 496 1170 q 410 1129 450 1129 z "},"ẞ":{"ha":994,"x_min":115,"x_max":936,"o":"m 588 -10 q 524 -7 558 -10 q 458 3 490 -3 q 399 16 425 9 l 399 122 q 479 101 436 109 q 570 93 522 93 q 693 111 640 93 q 775 169 746 129 q 805 275 805 209 q 724 416 805 365 q 482 484 644 467 l 482 563 q 557 636 519 599 q 632 709 595 673 l 780 853 l 782 808 q 706 856 749 835 q 613 888 664 876 q 501 900 561 900 q 350 869 408 900 q 267 776 293 838 q 240 626 240 715 l 240 327 q 240 159 240 235 q 240 0 240 83 l 115 0 q 115 159 115 83 q 115 327 115 235 q 115 483 115 406 q 115 639 115 561 q 156 837 115 754 q 281 964 197 920 q 496 1008 365 1008 q 617 998 560 1008 q 722 970 674 987 q 807 935 770 953 q 867 900 843 916 l 854 792 q 775 720 814 756 q 695 648 735 685 l 555 522 l 549 567 q 775 508 690 549 q 898 408 860 468 q 936 268 936 347 q 901 127 936 190 q 790 27 867 64 q 588 -10 714 -10 z "},"Ə":{"ha":1094,"x_min":69,"x_max":1024,"o":"m 551 -15 q 337 25 428 -15 q 187 136 247 66 q 99 299 128 207 q 69 492 69 390 l 72 551 l 928 551 l 928 451 l 174 451 l 194 478 q 214 334 194 403 q 276 211 233 265 q 386 125 319 156 q 549 94 453 94 q 709 125 642 94 q 817 213 775 157 q 878 339 858 268 q 897 489 897 410 l 897 524 q 870 684 897 614 q 791 802 842 753 q 663 875 739 850 q 490 900 588 900 q 405 895 447 900 q 319 879 362 890 q 235 852 276 868 q 156 814 194 835 l 142 928 q 221 961 178 947 q 310 987 263 976 q 406 1003 357 997 q 503 1008 454 1008 q 723 974 626 1008 q 887 874 819 940 q 989 713 954 808 q 1024 497 1024 617 q 969 233 1024 348 q 809 51 915 117 q 551 -15 703 -15 z "},"T":{"ha":890,"x_min":43,"x_max":847,"o":"m 383 0 q 383 159 383 83 q 383 327 383 235 l 383 641 q 383 811 383 734 q 383 972 383 889 l 433 878 l 315 878 q 166 878 231 878 q 43 878 101 878 l 43 990 l 847 990 l 847 878 q 724 878 789 878 q 575 878 660 878 l 458 878 l 508 972 q 508 811 508 889 q 508 641 508 734 l 508 327 q 508 159 508 235 q 508 0 508 83 l 383 0 z "},"Ŧ":{"ha":890,"x_min":43,"x_max":847,"o":"m 170 417 l 170 508 q 298 508 237 508 q 413 508 359 508 l 478 508 q 594 508 533 508 q 721 508 656 508 l 721 417 q 594 417 656 417 q 478 417 533 417 l 413 417 q 298 417 359 417 q 170 417 237 417 m 383 0 q 383 159 383 83 q 383 327 383 235 l 383 641 q 383 811 383 734 q 383 972 383 889 l 433 878 l 315 878 q 166 878 231 878 q 43 878 101 878 l 43 990 l 847 990 l 847 878 q 724 878 789 878 q 575 878 660 878 l 458 878 l 508 972 q 508 811 508 889 q 508 641 508 734 l 508 327 q 508 159 508 235 q 508 0 508 83 l 383 0 z "},"Ť":{"ha":890,"x_min":43,"x_max":847,"o":"m 383 0 q 383 159 383 83 q 383 327 383 235 l 383 641 q 383 811 383 734 q 383 972 383 889 l 433 878 l 315 878 q 166 878 231 878 q 43 878 101 878 l 43 990 l 847 990 l 847 878 q 724 878 789 878 q 575 878 660 878 l 458 878 l 508 972 q 508 811 508 889 q 508 641 508 734 l 508 327 q 508 159 508 235 q 508 0 508 83 l 383 0 m 383 1092 q 289 1218 336 1156 q 194 1344 242 1281 l 288 1345 q 375 1243 331 1294 q 463 1140 418 1192 l 430 1140 q 517 1242 474 1192 q 604 1342 560 1292 l 697 1342 q 604 1218 651 1281 q 509 1092 557 1156 l 383 1092 z "},"Ţ":{"ha":890,"x_min":43,"x_max":847,"o":"m 383 0 q 383 159 383 83 q 383 327 383 235 l 383 641 q 383 811 383 734 q 383 972 383 889 l 433 878 l 315 878 q 166 878 231 878 q 43 878 101 878 l 43 990 l 847 990 l 847 878 q 724 878 789 878 q 575 878 660 878 l 458 878 l 508 972 q 508 811 508 889 q 508 641 508 734 l 508 327 q 508 159 508 235 q 508 0 508 83 l 383 0 m 412 -299 q 381 -297 397 -299 q 351 -293 365 -296 q 326 -287 337 -291 l 326 -214 q 355 -220 336 -217 q 397 -224 374 -224 q 465 -208 446 -224 q 485 -168 485 -192 q 475 -141 485 -154 q 440 -117 465 -128 q 365 -101 414 -107 l 419 26 l 486 26 l 486 0 l 451 -80 q 529 -103 501 -87 q 568 -141 557 -119 q 579 -185 579 -162 q 563 -242 579 -216 q 509 -283 546 -268 q 412 -299 472 -299 z "},"Ț":{"ha":890,"x_min":43,"x_max":847,"o":"m 383 0 q 383 159 383 83 q 383 327 383 235 l 383 641 q 383 811 383 734 q 383 972 383 889 l 433 878 l 315 878 q 166 878 231 878 q 43 878 101 878 l 43 990 l 847 990 l 847 878 q 724 878 789 878 q 575 878 660 878 l 458 878 l 508 972 q 508 811 508 889 q 508 641 508 734 l 508 327 q 508 159 508 235 q 508 0 508 83 l 383 0 m 352 -396 q 387 -319 380 -356 q 394 -226 394 -281 q 394 -180 394 -203 q 394 -134 394 -157 l 451 -130 q 506 -151 488 -131 q 524 -203 524 -172 q 509 -275 524 -239 q 469 -341 495 -310 q 408 -394 443 -372 l 352 -396 z "},"Ṭ":{"ha":890,"x_min":43,"x_max":847,"o":"m 383 0 q 383 159 383 83 q 383 327 383 235 l 383 641 q 383 811 383 734 q 383 972 383 889 l 433 878 l 315 878 q 166 878 231 878 q 43 878 101 878 l 43 990 l 847 990 l 847 878 q 724 878 789 878 q 575 878 660 878 l 458 878 l 508 972 q 508 811 508 889 q 508 641 508 734 l 508 327 q 508 159 508 235 q 508 0 508 83 l 383 0 m 445 -299 q 384 -278 408 -299 q 360 -215 360 -258 q 384 -151 360 -172 q 447 -130 408 -130 q 508 -152 485 -130 q 531 -215 531 -174 q 508 -278 531 -258 q 445 -299 485 -299 z "},"Ṯ":{"ha":890,"x_min":43,"x_max":847,"o":"m 383 0 q 383 159 383 83 q 383 327 383 235 l 383 641 q 383 811 383 734 q 383 972 383 889 l 433 878 l 315 878 q 166 878 231 878 q 43 878 101 878 l 43 990 l 847 990 l 847 878 q 724 878 789 878 q 575 878 660 878 l 458 878 l 508 972 q 508 811 508 889 q 508 641 508 734 l 508 327 q 508 159 508 235 q 508 0 508 83 l 383 0 m 228 -249 l 228 -160 q 332 -160 277 -160 q 446 -160 387 -160 q 560 -160 506 -160 q 664 -160 615 -160 l 664 -249 q 560 -249 615 -249 q 446 -249 506 -249 q 332 -249 387 -249 q 228 -249 277 -249 z "},"U":{"ha":1015,"x_min":115,"x_max":898,"o":"m 508 -15 q 283 32 369 -15 q 156 166 197 80 q 115 368 115 253 q 115 443 115 397 q 115 546 115 490 q 115 659 115 602 q 115 830 115 753 q 115 990 115 908 l 240 990 q 240 830 240 908 q 240 659 240 753 l 240 381 q 267 226 240 291 q 352 127 293 162 q 508 93 410 93 q 664 127 606 93 q 747 226 722 162 q 773 382 773 291 l 773 659 q 773 830 773 753 q 773 990 773 908 l 898 990 q 898 830 898 908 q 898 659 898 753 q 898 545 898 602 q 898 442 898 489 q 898 368 898 396 q 857 166 898 253 q 730 32 816 80 q 508 -15 644 -15 z "},"Ú":{"ha":1015,"x_min":115,"x_max":898,"o":"m 508 -15 q 283 32 369 -15 q 156 166 197 80 q 115 368 115 253 q 115 443 115 397 q 115 546 115 490 q 115 659 115 602 q 115 830 115 753 q 115 990 115 908 l 240 990 q 240 830 240 908 q 240 659 240 753 l 240 381 q 267 226 240 291 q 352 127 293 162 q 508 93 410 93 q 664 127 606 93 q 747 226 722 162 q 773 382 773 291 l 773 659 q 773 830 773 753 q 773 990 773 908 l 898 990 q 898 830 898 908 q 898 659 898 753 q 898 545 898 602 q 898 442 898 489 q 898 368 898 396 q 857 166 898 253 q 730 32 816 80 q 508 -15 644 -15 m 406 1092 q 500 1219 453 1156 q 594 1344 547 1281 l 722 1346 q 647 1261 684 1303 q 573 1177 610 1219 q 499 1094 535 1135 l 406 1092 z "},"Ŭ":{"ha":1015,"x_min":115,"x_max":898,"o":"m 508 -15 q 283 32 369 -15 q 156 166 197 80 q 115 368 115 253 q 115 443 115 397 q 115 546 115 490 q 115 659 115 602 q 115 830 115 753 q 115 990 115 908 l 240 990 q 240 830 240 908 q 240 659 240 753 l 240 381 q 267 226 240 291 q 352 127 293 162 q 508 93 410 93 q 664 127 606 93 q 747 226 722 162 q 773 382 773 291 l 773 659 q 773 830 773 753 q 773 990 773 908 l 898 990 q 898 830 898 908 q 898 659 898 753 q 898 545 898 602 q 898 442 898 489 q 898 368 898 396 q 857 166 898 253 q 730 32 816 80 q 508 -15 644 -15 m 506 1085 q 340 1151 397 1085 q 283 1345 283 1217 l 367 1349 q 403 1214 367 1256 q 506 1171 439 1171 q 610 1213 574 1171 q 646 1345 646 1255 l 731 1345 q 705 1202 731 1260 q 630 1115 680 1144 q 506 1085 580 1085 z "},"Û":{"ha":1015,"x_min":115,"x_max":898,"o":"m 508 -15 q 283 32 369 -15 q 156 166 197 80 q 115 368 115 253 q 115 443 115 397 q 115 546 115 490 q 115 659 115 602 q 115 830 115 753 q 115 990 115 908 l 240 990 q 240 830 240 908 q 240 659 240 753 l 240 381 q 267 226 240 291 q 352 127 293 162 q 508 93 410 93 q 664 127 606 93 q 747 226 722 162 q 773 382 773 291 l 773 659 q 773 830 773 753 q 773 990 773 908 l 898 990 q 898 830 898 908 q 898 659 898 753 q 898 545 898 602 q 898 442 898 489 q 898 368 898 396 q 857 166 898 253 q 730 32 816 80 q 508 -15 644 -15 m 665 1091 q 578 1193 622 1143 q 490 1297 535 1244 l 523 1297 q 436 1194 478 1244 q 349 1094 393 1144 l 256 1094 q 349 1218 302 1156 q 444 1344 397 1281 l 569 1344 q 664 1218 617 1281 q 758 1093 711 1156 l 665 1091 z "},"Ȕ":{"ha":1015,"x_min":115,"x_max":898,"o":"m 508 -15 q 283 32 369 -15 q 156 166 197 80 q 115 368 115 253 q 115 443 115 397 q 115 546 115 490 q 115 659 115 602 q 115 830 115 753 q 115 990 115 908 l 240 990 q 240 830 240 908 q 240 659 240 753 l 240 381 q 267 226 240 291 q 352 127 293 162 q 508 93 410 93 q 664 127 606 93 q 747 226 722 162 q 773 382 773 291 l 773 659 q 773 830 773 753 q 773 990 773 908 l 898 990 q 898 830 898 908 q 898 659 898 753 q 898 545 898 602 q 898 442 898 489 q 898 368 898 396 q 857 166 898 253 q 730 32 816 80 q 508 -15 644 -15 m 366 1092 q 295 1175 331 1133 q 223 1259 259 1217 q 149 1344 186 1301 l 269 1346 q 361 1220 315 1284 q 454 1094 408 1157 l 366 1092 m 624 1092 q 563 1175 594 1133 q 500 1259 531 1217 q 437 1344 469 1301 l 553 1346 q 630 1221 591 1284 q 708 1094 668 1158 l 624 1092 z "},"Ü":{"ha":1015,"x_min":115,"x_max":898,"o":"m 508 -15 q 283 32 369 -15 q 156 166 197 80 q 115 368 115 253 q 115 443 115 397 q 115 546 115 490 q 115 659 115 602 q 115 830 115 753 q 115 990 115 908 l 240 990 q 240 830 240 908 q 240 659 240 753 l 240 381 q 267 226 240 291 q 352 127 293 162 q 508 93 410 93 q 664 127 606 93 q 747 226 722 162 q 773 382 773 291 l 773 659 q 773 830 773 753 q 773 990 773 908 l 898 990 q 898 830 898 908 q 898 659 898 753 q 898 545 898 602 q 898 442 898 489 q 898 368 898 396 q 857 166 898 253 q 730 32 816 80 q 508 -15 644 -15 m 655 1129 q 600 1150 621 1129 q 579 1210 579 1170 q 600 1270 579 1249 q 656 1291 622 1291 q 711 1269 691 1291 q 731 1210 731 1247 q 711 1150 731 1170 q 655 1129 690 1129 m 360 1129 q 306 1150 326 1129 q 285 1210 285 1170 q 306 1270 285 1249 q 362 1291 327 1291 q 417 1269 397 1291 q 437 1210 437 1247 q 416 1150 437 1170 q 360 1129 396 1129 z "},"Ụ":{"ha":1015,"x_min":115,"x_max":898,"o":"m 508 -15 q 283 32 369 -15 q 156 166 197 80 q 115 368 115 253 q 115 443 115 397 q 115 546 115 490 q 115 659 115 602 q 115 830 115 753 q 115 990 115 908 l 240 990 q 240 830 240 908 q 240 659 240 753 l 240 381 q 267 226 240 291 q 352 127 293 162 q 508 93 410 93 q 664 127 606 93 q 747 226 722 162 q 773 382 773 291 l 773 659 q 773 830 773 753 q 773 990 773 908 l 898 990 q 898 830 898 908 q 898 659 898 753 q 898 545 898 602 q 898 442 898 489 q 898 368 898 396 q 857 166 898 253 q 730 32 816 80 q 508 -15 644 -15 m 508 -299 q 447 -278 470 -299 q 423 -215 423 -258 q 447 -151 423 -172 q 509 -130 470 -130 q 570 -152 547 -130 q 593 -215 593 -174 q 570 -278 593 -258 q 508 -299 547 -299 z "},"Ù":{"ha":1015,"x_min":115,"x_max":898,"o":"m 508 -15 q 283 32 369 -15 q 156 166 197 80 q 115 368 115 253 q 115 443 115 397 q 115 546 115 490 q 115 659 115 602 q 115 830 115 753 q 115 990 115 908 l 240 990 q 240 830 240 908 q 240 659 240 753 l 240 381 q 267 226 240 291 q 352 127 293 162 q 508 93 410 93 q 664 127 606 93 q 747 226 722 162 q 773 382 773 291 l 773 659 q 773 830 773 753 q 773 990 773 908 l 898 990 q 898 830 898 908 q 898 659 898 753 q 898 545 898 602 q 898 442 898 489 q 898 368 898 396 q 857 166 898 253 q 730 32 816 80 q 508 -15 644 -15 m 518 1092 q 444 1175 481 1134 q 370 1259 408 1217 q 294 1344 333 1301 l 422 1346 q 517 1220 469 1283 q 611 1094 564 1157 l 518 1092 z "},"Ủ":{"ha":1015,"x_min":115,"x_max":898,"o":"m 508 -15 q 283 32 369 -15 q 156 166 197 80 q 115 368 115 253 q 115 443 115 397 q 115 546 115 490 q 115 659 115 602 q 115 830 115 753 q 115 990 115 908 l 240 990 q 240 830 240 908 q 240 659 240 753 l 240 381 q 267 226 240 291 q 352 127 293 162 q 508 93 410 93 q 664 127 606 93 q 747 226 722 162 q 773 382 773 291 l 773 659 q 773 830 773 753 q 773 990 773 908 l 898 990 q 898 830 898 908 q 898 659 898 753 q 898 545 898 602 q 898 442 898 489 q 898 368 898 396 q 857 166 898 253 q 730 32 816 80 q 508 -15 644 -15 m 456 1093 l 456 1167 q 543 1195 508 1172 q 578 1253 578 1219 q 555 1296 578 1283 q 500 1308 532 1308 q 457 1304 478 1308 q 413 1292 435 1300 q 366 1272 391 1283 l 360 1349 q 389 1362 372 1356 q 426 1374 406 1369 q 469 1382 447 1378 q 515 1385 492 1385 q 592 1373 556 1385 q 651 1335 628 1361 q 674 1266 674 1309 q 653 1196 674 1224 q 599 1152 632 1167 q 532 1133 567 1136 l 532 1093 l 456 1093 z "},"Ư":{"ha":1112,"x_min":115,"x_max":1112,"o":"m 508 -15 q 283 32 369 -15 q 156 166 197 80 q 115 368 115 253 q 115 443 115 397 q 115 546 115 490 q 115 659 115 602 q 115 830 115 753 q 115 990 115 908 l 240 990 q 240 830 240 908 q 240 659 240 753 l 240 381 q 267 226 240 291 q 352 127 293 162 q 508 93 410 93 q 664 127 606 93 q 747 226 722 162 q 773 382 773 291 l 773 659 q 773 830 773 753 q 773 990 773 908 l 898 990 q 898 830 898 908 q 898 659 898 753 q 898 545 898 602 q 898 442 898 489 q 898 368 898 396 q 857 166 898 253 q 730 32 816 80 q 508 -15 644 -15 m 876 797 l 853 865 q 957 883 922 865 q 1005 931 992 901 q 1017 999 1017 961 q 1009 1075 1017 1034 q 991 1149 1001 1115 l 1078 1155 q 1094 1109 1087 1133 q 1107 1057 1102 1085 q 1112 999 1112 1030 q 1085 891 1112 936 q 1007 822 1059 846 q 876 797 954 797 z "},"Ứ":{"ha":1112,"x_min":115,"x_max":1112,"o":"m 508 -15 q 283 32 369 -15 q 156 166 197 80 q 115 368 115 253 q 115 443 115 397 q 115 546 115 490 q 115 659 115 602 q 115 830 115 753 q 115 990 115 908 l 240 990 q 240 830 240 908 q 240 659 240 753 l 240 381 q 267 226 240 291 q 352 127 293 162 q 508 93 410 93 q 664 127 606 93 q 747 226 722 162 q 773 382 773 291 l 773 659 q 773 830 773 753 q 773 990 773 908 l 898 990 q 898 830 898 908 q 898 659 898 753 q 898 545 898 602 q 898 442 898 489 q 898 368 898 396 q 857 166 898 253 q 730 32 816 80 q 508 -15 644 -15 m 876 797 l 853 865 q 957 883 922 865 q 1005 931 992 901 q 1017 999 1017 961 q 1009 1075 1017 1034 q 991 1149 1001 1115 l 1078 1155 q 1094 1109 1087 1133 q 1107 1057 1102 1085 q 1112 999 1112 1030 q 1085 891 1112 936 q 1007 822 1059 846 q 876 797 954 797 m 406 1092 q 500 1219 453 1156 q 594 1344 547 1281 l 722 1346 q 647 1261 684 1303 q 573 1177 610 1219 q 499 1094 535 1135 l 406 1092 z "},"Ự":{"ha":1112,"x_min":115,"x_max":1112,"o":"m 508 -15 q 283 32 369 -15 q 156 166 197 80 q 115 368 115 253 q 115 443 115 397 q 115 546 115 490 q 115 659 115 602 q 115 830 115 753 q 115 990 115 908 l 240 990 q 240 830 240 908 q 240 659 240 753 l 240 381 q 267 226 240 291 q 352 127 293 162 q 508 93 410 93 q 664 127 606 93 q 747 226 722 162 q 773 382 773 291 l 773 659 q 773 830 773 753 q 773 990 773 908 l 898 990 q 898 830 898 908 q 898 659 898 753 q 898 545 898 602 q 898 442 898 489 q 898 368 898 396 q 857 166 898 253 q 730 32 816 80 q 508 -15 644 -15 m 876 797 l 853 865 q 957 883 922 865 q 1005 931 992 901 q 1017 999 1017 961 q 1009 1075 1017 1034 q 991 1149 1001 1115 l 1078 1155 q 1094 1109 1087 1133 q 1107 1057 1102 1085 q 1112 999 1112 1030 q 1085 891 1112 936 q 1007 822 1059 846 q 876 797 954 797 m 508 -299 q 447 -278 470 -299 q 423 -215 423 -258 q 447 -151 423 -172 q 509 -130 470 -130 q 570 -152 547 -130 q 593 -215 593 -174 q 570 -278 593 -258 q 508 -299 547 -299 z "},"Ừ":{"ha":1112,"x_min":115,"x_max":1112,"o":"m 508 -15 q 283 32 369 -15 q 156 166 197 80 q 115 368 115 253 q 115 443 115 397 q 115 546 115 490 q 115 659 115 602 q 115 830 115 753 q 115 990 115 908 l 240 990 q 240 830 240 908 q 240 659 240 753 l 240 381 q 267 226 240 291 q 352 127 293 162 q 508 93 410 93 q 664 127 606 93 q 747 226 722 162 q 773 382 773 291 l 773 659 q 773 830 773 753 q 773 990 773 908 l 898 990 q 898 830 898 908 q 898 659 898 753 q 898 545 898 602 q 898 442 898 489 q 898 368 898 396 q 857 166 898 253 q 730 32 816 80 q 508 -15 644 -15 m 876 797 l 853 865 q 957 883 922 865 q 1005 931 992 901 q 1017 999 1017 961 q 1009 1075 1017 1034 q 991 1149 1001 1115 l 1078 1155 q 1094 1109 1087 1133 q 1107 1057 1102 1085 q 1112 999 1112 1030 q 1085 891 1112 936 q 1007 822 1059 846 q 876 797 954 797 m 518 1092 q 444 1175 481 1134 q 370 1259 408 1217 q 294 1344 333 1301 l 422 1346 q 517 1220 469 1283 q 611 1094 564 1157 l 518 1092 z "},"Ử":{"ha":1112,"x_min":115,"x_max":1112,"o":"m 508 -15 q 283 32 369 -15 q 156 166 197 80 q 115 368 115 253 q 115 443 115 397 q 115 546 115 490 q 115 659 115 602 q 115 830 115 753 q 115 990 115 908 l 240 990 q 240 830 240 908 q 240 659 240 753 l 240 381 q 267 226 240 291 q 352 127 293 162 q 508 93 410 93 q 664 127 606 93 q 747 226 722 162 q 773 382 773 291 l 773 659 q 773 830 773 753 q 773 990 773 908 l 898 990 q 898 830 898 908 q 898 659 898 753 q 898 545 898 602 q 898 442 898 489 q 898 368 898 396 q 857 166 898 253 q 730 32 816 80 q 508 -15 644 -15 m 876 797 l 853 865 q 957 883 922 865 q 1005 931 992 901 q 1017 999 1017 961 q 1009 1075 1017 1034 q 991 1149 1001 1115 l 1078 1155 q 1094 1109 1087 1133 q 1107 1057 1102 1085 q 1112 999 1112 1030 q 1085 891 1112 936 q 1007 822 1059 846 q 876 797 954 797 m 456 1093 l 456 1167 q 543 1195 508 1172 q 578 1253 578 1219 q 555 1296 578 1283 q 500 1308 532 1308 q 457 1304 478 1308 q 413 1292 435 1300 q 366 1272 391 1283 l 360 1349 q 389 1362 372 1356 q 426 1374 406 1369 q 469 1382 447 1378 q 515 1385 492 1385 q 592 1373 556 1385 q 651 1335 628 1361 q 674 1266 674 1309 q 653 1196 674 1224 q 599 1152 632 1167 q 532 1133 567 1136 l 532 1093 l 456 1093 z "},"Ữ":{"ha":1112,"x_min":115,"x_max":1112,"o":"m 508 -15 q 283 32 369 -15 q 156 166 197 80 q 115 368 115 253 q 115 443 115 397 q 115 546 115 490 q 115 659 115 602 q 115 830 115 753 q 115 990 115 908 l 240 990 q 240 830 240 908 q 240 659 240 753 l 240 381 q 267 226 240 291 q 352 127 293 162 q 508 93 410 93 q 664 127 606 93 q 747 226 722 162 q 773 382 773 291 l 773 659 q 773 830 773 753 q 773 990 773 908 l 898 990 q 898 830 898 908 q 898 659 898 753 q 898 545 898 602 q 898 442 898 489 q 898 368 898 396 q 857 166 898 253 q 730 32 816 80 q 508 -15 644 -15 m 876 797 l 853 865 q 957 883 922 865 q 1005 931 992 901 q 1017 999 1017 961 q 1009 1075 1017 1034 q 991 1149 1001 1115 l 1078 1155 q 1094 1109 1087 1133 q 1107 1057 1102 1085 q 1112 999 1112 1030 q 1085 891 1112 936 q 1007 822 1059 846 q 876 797 954 797 m 626 1089 q 554 1107 584 1089 q 499 1149 524 1125 q 453 1191 475 1173 q 406 1209 431 1209 q 350 1183 366 1209 q 332 1110 334 1158 l 262 1110 q 298 1249 262 1201 q 394 1297 333 1297 q 465 1279 435 1297 q 519 1238 495 1261 q 565 1196 542 1214 q 613 1178 587 1178 q 668 1203 652 1178 q 685 1276 683 1229 l 755 1276 q 720 1137 755 1185 q 626 1089 685 1089 z "},"Ű":{"ha":1015,"x_min":115,"x_max":898,"o":"m 508 -15 q 283 32 369 -15 q 156 166 197 80 q 115 368 115 253 q 115 443 115 397 q 115 546 115 490 q 115 659 115 602 q 115 830 115 753 q 115 990 115 908 l 240 990 q 240 830 240 908 q 240 659 240 753 l 240 381 q 267 226 240 291 q 352 127 293 162 q 508 93 410 93 q 664 127 606 93 q 747 226 722 162 q 773 382 773 291 l 773 659 q 773 830 773 753 q 773 990 773 908 l 898 990 q 898 830 898 908 q 898 659 898 753 q 898 545 898 602 q 898 442 898 489 q 898 368 898 396 q 857 166 898 253 q 730 32 816 80 q 508 -15 644 -15 m 560 1092 q 653 1218 607 1155 q 747 1344 700 1281 l 869 1346 q 796 1261 833 1303 q 723 1177 759 1219 q 650 1094 686 1135 l 560 1092 m 308 1092 q 386 1219 347 1156 q 464 1344 425 1281 l 581 1346 q 518 1261 549 1303 q 455 1177 486 1219 q 392 1094 424 1135 l 308 1092 z "},"Ȗ":{"ha":1015,"x_min":115,"x_max":898,"o":"m 508 -15 q 283 32 369 -15 q 156 166 197 80 q 115 368 115 253 q 115 443 115 397 q 115 546 115 490 q 115 659 115 602 q 115 830 115 753 q 115 990 115 908 l 240 990 q 240 830 240 908 q 240 659 240 753 l 240 381 q 267 226 240 291 q 352 127 293 162 q 508 93 410 93 q 664 127 606 93 q 747 226 722 162 q 773 382 773 291 l 773 659 q 773 830 773 753 q 773 990 773 908 l 898 990 q 898 830 898 908 q 898 659 898 753 q 898 545 898 602 q 898 442 898 489 q 898 368 898 396 q 857 166 898 253 q 730 32 816 80 q 508 -15 644 -15 m 646 1091 q 610 1226 646 1184 q 508 1269 575 1269 q 403 1227 439 1269 q 367 1095 367 1185 l 283 1095 q 308 1238 283 1181 q 383 1325 333 1296 q 508 1354 433 1354 q 673 1289 616 1354 q 731 1095 731 1223 l 646 1091 z "},"Ū":{"ha":1015,"x_min":115,"x_max":898,"o":"m 508 -15 q 283 32 369 -15 q 156 166 197 80 q 115 368 115 253 q 115 443 115 397 q 115 546 115 490 q 115 659 115 602 q 115 830 115 753 q 115 990 115 908 l 240 990 q 240 830 240 908 q 240 659 240 753 l 240 381 q 267 226 240 291 q 352 127 293 162 q 508 93 410 93 q 664 127 606 93 q 747 226 722 162 q 773 382 773 291 l 773 659 q 773 830 773 753 q 773 990 773 908 l 898 990 q 898 830 898 908 q 898 659 898 753 q 898 545 898 602 q 898 442 898 489 q 898 368 898 396 q 857 166 898 253 q 730 32 816 80 q 508 -15 644 -15 m 290 1160 l 290 1250 q 394 1250 340 1250 q 508 1250 449 1250 q 623 1250 568 1250 q 726 1250 677 1250 l 726 1160 q 623 1160 677 1160 q 508 1160 568 1160 q 394 1160 449 1160 q 290 1160 340 1160 z "},"Ṻ":{"ha":1015,"x_min":115,"x_max":898,"o":"m 508 -15 q 283 32 369 -15 q 156 166 197 80 q 115 368 115 253 q 115 443 115 397 q 115 546 115 490 q 115 659 115 602 q 115 830 115 753 q 115 990 115 908 l 240 990 q 240 830 240 908 q 240 659 240 753 l 240 381 q 267 226 240 291 q 352 127 293 162 q 508 93 410 93 q 664 127 606 93 q 747 226 722 162 q 773 382 773 291 l 773 659 q 773 830 773 753 q 773 990 773 908 l 898 990 q 898 830 898 908 q 898 659 898 753 q 898 545 898 602 q 898 442 898 489 q 898 368 898 396 q 857 166 898 253 q 730 32 816 80 q 508 -15 644 -15 m 290 1160 l 290 1250 q 394 1250 340 1250 q 508 1250 449 1250 q 623 1250 568 1250 q 726 1250 677 1250 l 726 1160 q 623 1160 677 1160 q 508 1160 568 1160 q 394 1160 449 1160 q 290 1160 340 1160 m 655 1376 q 600 1397 621 1376 q 579 1457 579 1417 q 600 1517 579 1497 q 656 1538 622 1538 q 711 1516 691 1538 q 731 1457 731 1494 q 711 1397 731 1417 q 655 1376 690 1376 m 360 1376 q 306 1397 326 1376 q 285 1457 285 1417 q 306 1517 285 1497 q 362 1538 327 1538 q 417 1516 397 1538 q 437 1457 437 1494 q 416 1397 437 1417 q 360 1376 396 1376 z "},"Ų":{"ha":1015,"x_min":115,"x_max":898,"o":"m 508 -15 q 283 32 369 -15 q 156 166 197 80 q 115 368 115 253 q 115 443 115 397 q 115 546 115 490 q 115 659 115 602 q 115 830 115 753 q 115 990 115 908 l 240 990 q 240 830 240 908 q 240 659 240 753 l 240 381 q 267 226 240 291 q 352 127 293 162 q 508 93 410 93 q 664 127 606 93 q 747 226 722 162 q 773 382 773 291 l 773 659 q 773 830 773 753 q 773 990 773 908 l 898 990 q 898 830 898 908 q 898 659 898 753 q 898 545 898 602 q 898 442 898 489 q 898 368 898 396 q 857 166 898 253 q 730 32 816 80 q 508 -15 644 -15 m 563 -289 q 480 -275 513 -289 q 428 -235 446 -260 q 411 -176 411 -210 q 427 -111 411 -142 q 475 -51 443 -80 q 552 5 506 -22 l 552 30 l 613 35 l 639 0 q 543 -68 583 -28 q 503 -150 503 -108 q 523 -195 503 -181 q 578 -210 544 -210 q 618 -207 601 -210 q 644 -200 635 -203 l 644 -277 q 607 -285 629 -282 q 563 -289 585 -289 z "},"Ů":{"ha":1015,"x_min":115,"x_max":898,"o":"m 508 -15 q 283 32 369 -15 q 156 166 197 80 q 115 368 115 253 q 115 443 115 397 q 115 546 115 490 q 115 659 115 602 q 115 830 115 753 q 115 990 115 908 l 240 990 q 240 830 240 908 q 240 659 240 753 l 240 381 q 267 226 240 291 q 352 127 293 162 q 508 93 410 93 q 664 127 606 93 q 747 226 722 162 q 773 382 773 291 l 773 659 q 773 830 773 753 q 773 990 773 908 l 898 990 q 898 830 898 908 q 898 659 898 753 q 898 545 898 602 q 898 442 898 489 q 898 368 898 396 q 857 166 898 253 q 730 32 816 80 q 508 -15 644 -15 m 507 1083 q 425 1100 460 1083 q 369 1149 390 1117 q 349 1228 349 1182 q 393 1333 349 1294 q 508 1372 438 1372 q 591 1354 555 1372 q 646 1303 626 1336 q 666 1228 666 1271 q 646 1149 666 1181 q 590 1100 626 1117 q 507 1083 554 1083 m 507 1144 q 572 1165 547 1144 q 597 1228 597 1186 q 572 1289 597 1266 q 508 1313 547 1313 q 443 1290 469 1313 q 418 1228 418 1267 q 443 1165 418 1186 q 507 1144 469 1144 z "},"Ũ":{"ha":1015,"x_min":115,"x_max":898,"o":"m 508 -15 q 283 32 369 -15 q 156 166 197 80 q 115 368 115 253 q 115 443 115 397 q 115 546 115 490 q 115 659 115 602 q 115 830 115 753 q 115 990 115 908 l 240 990 q 240 830 240 908 q 240 659 240 753 l 240 381 q 267 226 240 291 q 352 127 293 162 q 508 93 410 93 q 664 127 606 93 q 747 226 722 162 q 773 382 773 291 l 773 659 q 773 830 773 753 q 773 990 773 908 l 898 990 q 898 830 898 908 q 898 659 898 753 q 898 545 898 602 q 898 442 898 489 q 898 368 898 396 q 857 166 898 253 q 730 32 816 80 q 508 -15 644 -15 m 626 1089 q 554 1107 584 1089 q 499 1149 524 1125 q 453 1191 475 1173 q 406 1209 431 1209 q 350 1183 366 1209 q 332 1110 334 1158 l 262 1110 q 298 1249 262 1201 q 394 1297 333 1297 q 465 1279 435 1297 q 519 1238 495 1261 q 565 1196 542 1214 q 613 1178 587 1178 q 668 1203 652 1178 q 685 1276 683 1229 l 755 1276 q 720 1137 755 1185 q 626 1089 685 1089 z "},"Ṹ":{"ha":1015,"x_min":115,"x_max":898,"o":"m 508 -15 q 283 32 369 -15 q 156 166 197 80 q 115 368 115 253 q 115 443 115 397 q 115 546 115 490 q 115 659 115 602 q 115 830 115 753 q 115 990 115 908 l 240 990 q 240 830 240 908 q 240 659 240 753 l 240 381 q 267 226 240 291 q 352 127 293 162 q 508 93 410 93 q 664 127 606 93 q 747 226 722 162 q 773 382 773 291 l 773 659 q 773 830 773 753 q 773 990 773 908 l 898 990 q 898 830 898 908 q 898 659 898 753 q 898 545 898 602 q 898 442 898 489 q 898 368 898 396 q 857 166 898 253 q 730 32 816 80 q 508 -15 644 -15 m 626 1089 q 554 1107 584 1089 q 499 1149 524 1125 q 453 1191 475 1173 q 406 1209 431 1209 q 350 1183 366 1209 q 332 1110 334 1158 l 262 1110 q 298 1249 262 1201 q 394 1297 333 1297 q 465 1279 435 1297 q 519 1238 495 1261 q 565 1196 542 1214 q 613 1178 587 1178 q 668 1203 652 1178 q 685 1276 683 1229 l 755 1276 q 720 1137 755 1185 q 626 1089 685 1089 m 406 1358 q 500 1485 453 1422 q 594 1610 547 1547 l 722 1612 q 647 1527 684 1569 q 573 1443 610 1485 q 499 1360 535 1401 l 406 1358 z "},"V":{"ha":953,"x_min":38,"x_max":915,"o":"m 392 0 q 336 158 366 74 q 280 314 306 242 l 169 624 q 127 740 150 678 q 82 867 105 802 q 38 990 59 931 l 177 990 q 255 763 213 884 q 333 536 297 642 l 472 130 l 484 130 l 625 538 q 702 763 662 647 q 780 990 742 880 l 915 990 q 871 867 894 931 q 826 741 849 803 q 785 626 804 679 l 674 313 q 619 158 649 241 q 563 0 590 76 l 392 0 z "},"W":{"ha":1417,"x_min":38,"x_max":1380,"o":"m 323 0 q 278 158 302 74 q 233 313 253 242 l 144 623 q 92 805 120 706 q 38 990 63 903 l 177 990 q 238 767 206 884 q 297 543 269 649 l 403 149 l 415 149 l 519 548 q 557 693 537 617 q 596 845 576 769 q 634 990 616 921 l 780 990 q 838 769 808 884 q 897 547 869 654 l 1003 149 l 1015 149 l 1122 549 q 1181 769 1150 652 q 1240 990 1213 887 l 1380 990 q 1326 805 1354 902 q 1274 626 1298 708 l 1183 313 q 1138 155 1162 239 q 1092 0 1114 72 l 931 0 q 873 215 903 102 q 815 428 842 328 l 709 814 l 697 814 l 593 428 q 536 214 567 328 q 478 0 506 100 l 323 0 z "},"Ẃ":{"ha":1417,"x_min":38,"x_max":1380,"o":"m 323 0 q 278 158 302 74 q 233 313 253 242 l 144 623 q 92 805 120 706 q 38 990 63 903 l 177 990 q 238 767 206 884 q 297 543 269 649 l 403 149 l 415 149 l 519 548 q 557 693 537 617 q 596 845 576 769 q 634 990 616 921 l 780 990 q 838 769 808 884 q 897 547 869 654 l 1003 149 l 1015 149 l 1122 549 q 1181 769 1150 652 q 1240 990 1213 887 l 1380 990 q 1326 805 1354 902 q 1274 626 1298 708 l 1183 313 q 1138 155 1162 239 q 1092 0 1114 72 l 931 0 q 873 215 903 102 q 815 428 842 328 l 709 814 l 697 814 l 593 428 q 536 214 567 328 q 478 0 506 100 l 323 0 m 603 1092 q 698 1219 651 1156 q 791 1344 744 1281 l 919 1346 q 844 1261 881 1303 q 770 1177 807 1219 q 696 1094 733 1135 l 603 1092 z "},"Ŵ":{"ha":1417,"x_min":38,"x_max":1380,"o":"m 323 0 q 278 158 302 74 q 233 313 253 242 l 144 623 q 92 805 120 706 q 38 990 63 903 l 177 990 q 238 767 206 884 q 297 543 269 649 l 403 149 l 415 149 l 519 548 q 557 693 537 617 q 596 845 576 769 q 634 990 616 921 l 780 990 q 838 769 808 884 q 897 547 869 654 l 1003 149 l 1015 149 l 1122 549 q 1181 769 1150 652 q 1240 990 1213 887 l 1380 990 q 1326 805 1354 902 q 1274 626 1298 708 l 1183 313 q 1138 155 1162 239 q 1092 0 1114 72 l 931 0 q 873 215 903 102 q 815 428 842 328 l 709 814 l 697 814 l 593 428 q 536 214 567 328 q 478 0 506 100 l 323 0 m 863 1091 q 775 1193 819 1143 q 687 1297 732 1244 l 720 1297 q 633 1194 676 1244 q 546 1094 590 1144 l 453 1094 q 547 1218 499 1156 q 641 1344 594 1281 l 767 1344 q 861 1218 814 1281 q 956 1093 908 1156 l 863 1091 z "},"Ẅ":{"ha":1417,"x_min":38,"x_max":1380,"o":"m 323 0 q 278 158 302 74 q 233 313 253 242 l 144 623 q 92 805 120 706 q 38 990 63 903 l 177 990 q 238 767 206 884 q 297 543 269 649 l 403 149 l 415 149 l 519 548 q 557 693 537 617 q 596 845 576 769 q 634 990 616 921 l 780 990 q 838 769 808 884 q 897 547 869 654 l 1003 149 l 1015 149 l 1122 549 q 1181 769 1150 652 q 1240 990 1213 887 l 1380 990 q 1326 805 1354 902 q 1274 626 1298 708 l 1183 313 q 1138 155 1162 239 q 1092 0 1114 72 l 931 0 q 873 215 903 102 q 815 428 842 328 l 709 814 l 697 814 l 593 428 q 536 214 567 328 q 478 0 506 100 l 323 0 m 852 1129 q 797 1150 818 1129 q 776 1210 776 1170 q 798 1270 776 1249 q 853 1291 819 1291 q 908 1269 888 1291 q 928 1210 928 1247 q 908 1150 928 1170 q 852 1129 888 1129 m 558 1129 q 503 1150 524 1129 q 482 1210 482 1170 q 503 1270 482 1249 q 559 1291 524 1291 q 614 1269 594 1291 q 634 1210 634 1247 q 614 1150 634 1170 q 558 1129 593 1129 z "},"Ẁ":{"ha":1417,"x_min":38,"x_max":1380,"o":"m 323 0 q 278 158 302 74 q 233 313 253 242 l 144 623 q 92 805 120 706 q 38 990 63 903 l 177 990 q 238 767 206 884 q 297 543 269 649 l 403 149 l 415 149 l 519 548 q 557 693 537 617 q 596 845 576 769 q 634 990 616 921 l 780 990 q 838 769 808 884 q 897 547 869 654 l 1003 149 l 1015 149 l 1122 549 q 1181 769 1150 652 q 1240 990 1213 887 l 1380 990 q 1326 805 1354 902 q 1274 626 1298 708 l 1183 313 q 1138 155 1162 239 q 1092 0 1114 72 l 931 0 q 873 215 903 102 q 815 428 842 328 l 709 814 l 697 814 l 593 428 q 536 214 567 328 q 478 0 506 100 l 323 0 m 715 1092 q 642 1175 678 1134 q 568 1259 605 1217 q 492 1344 531 1301 l 619 1346 q 714 1220 667 1283 q 808 1094 761 1157 l 715 1092 z "},"X":{"ha":942,"x_min":50,"x_max":893,"o":"m 51 0 q 135 137 92 67 q 226 282 178 206 l 378 526 l 378 490 l 245 692 q 152 834 199 763 q 50 990 105 906 l 195 990 q 280 859 239 924 q 358 738 321 795 l 454 588 l 466 588 l 560 739 q 636 861 597 797 q 717 990 676 926 l 858 990 q 764 840 809 911 q 681 708 719 768 l 538 481 l 538 521 l 685 304 q 790 152 740 225 q 893 0 840 78 l 743 0 q 660 125 699 66 q 584 238 621 183 l 465 417 l 452 417 l 340 237 q 269 122 305 179 q 193 0 233 65 l 51 0 z "},"Y":{"ha":906,"x_min":38,"x_max":869,"o":"m 394 387 l 178 753 q 112 866 144 811 q 38 990 80 920 l 182 990 q 247 876 220 924 q 299 785 274 828 q 352 691 323 742 l 448 522 l 460 522 l 553 685 q 610 784 585 740 q 663 877 635 828 q 728 990 691 925 l 869 990 q 799 870 834 930 q 730 753 764 811 l 514 387 l 394 387 m 392 0 q 392 159 392 83 q 392 327 392 235 l 392 492 l 517 492 l 517 327 q 517 159 517 235 q 517 0 517 83 l 392 0 z "},"Ý":{"ha":906,"x_min":38,"x_max":869,"o":"m 394 387 l 178 753 q 112 866 144 811 q 38 990 80 920 l 182 990 q 247 876 220 924 q 299 785 274 828 q 352 691 323 742 l 448 522 l 460 522 l 553 685 q 610 784 585 740 q 663 877 635 828 q 728 990 691 925 l 869 990 q 799 870 834 930 q 730 753 764 811 l 514 387 l 394 387 m 392 0 q 392 159 392 83 q 392 327 392 235 l 392 492 l 517 492 l 517 327 q 517 159 517 235 q 517 0 517 83 l 392 0 m 351 1092 q 446 1219 399 1156 q 540 1344 493 1281 l 668 1346 q 593 1261 630 1303 q 518 1177 556 1219 q 444 1094 481 1135 l 351 1092 z "},"Ŷ":{"ha":906,"x_min":38,"x_max":869,"o":"m 394 387 l 178 753 q 112 866 144 811 q 38 990 80 920 l 182 990 q 247 876 220 924 q 299 785 274 828 q 352 691 323 742 l 448 522 l 460 522 l 553 685 q 610 784 585 740 q 663 877 635 828 q 728 990 691 925 l 869 990 q 799 870 834 930 q 730 753 764 811 l 514 387 l 394 387 m 392 0 q 392 159 392 83 q 392 327 392 235 l 392 492 l 517 492 l 517 327 q 517 159 517 235 q 517 0 517 83 l 392 0 m 611 1091 q 524 1193 567 1143 q 435 1297 481 1244 l 469 1297 q 382 1194 424 1244 q 294 1094 339 1144 l 201 1094 q 295 1218 248 1156 q 390 1344 342 1281 l 515 1344 q 610 1218 563 1281 q 704 1093 657 1156 l 611 1091 z "},"Ÿ":{"ha":906,"x_min":38,"x_max":869,"o":"m 394 387 l 178 753 q 112 866 144 811 q 38 990 80 920 l 182 990 q 247 876 220 924 q 299 785 274 828 q 352 691 323 742 l 448 522 l 460 522 l 553 685 q 610 784 585 740 q 663 877 635 828 q 728 990 691 925 l 869 990 q 799 870 834 930 q 730 753 764 811 l 514 387 l 394 387 m 392 0 q 392 159 392 83 q 392 327 392 235 l 392 492 l 517 492 l 517 327 q 517 159 517 235 q 517 0 517 83 l 392 0 m 601 1129 q 546 1150 567 1129 q 525 1210 525 1170 q 546 1270 525 1249 q 602 1291 567 1291 q 657 1269 637 1291 q 677 1210 677 1247 q 657 1150 677 1170 q 601 1129 636 1129 m 306 1129 q 251 1150 272 1129 q 231 1210 231 1170 q 252 1270 231 1249 q 308 1291 273 1291 q 363 1269 342 1291 q 383 1210 383 1247 q 362 1150 383 1170 q 306 1129 342 1129 z "},"Ẏ":{"ha":906,"x_min":38,"x_max":869,"o":"m 394 387 l 178 753 q 112 866 144 811 q 38 990 80 920 l 182 990 q 247 876 220 924 q 299 785 274 828 q 352 691 323 742 l 448 522 l 460 522 l 553 685 q 610 784 585 740 q 663 877 635 828 q 728 990 691 925 l 869 990 q 799 870 834 930 q 730 753 764 811 l 514 387 l 394 387 m 392 0 q 392 159 392 83 q 392 327 392 235 l 392 492 l 517 492 l 517 327 q 517 159 517 235 q 517 0 517 83 l 392 0 m 452 1129 q 391 1150 415 1129 q 367 1214 367 1170 q 391 1277 367 1256 q 453 1299 415 1299 q 515 1276 492 1299 q 538 1214 538 1254 q 515 1150 538 1170 q 452 1129 492 1129 z "},"Ỵ":{"ha":906,"x_min":38,"x_max":869,"o":"m 394 387 l 178 753 q 112 866 144 811 q 38 990 80 920 l 182 990 q 247 876 220 924 q 299 785 274 828 q 352 691 323 742 l 448 522 l 460 522 l 553 685 q 610 784 585 740 q 663 877 635 828 q 728 990 691 925 l 869 990 q 799 870 834 930 q 730 753 764 811 l 514 387 l 394 387 m 392 0 q 392 159 392 83 q 392 327 392 235 l 392 492 l 517 492 l 517 327 q 517 159 517 235 q 517 0 517 83 l 392 0 m 453 -299 q 392 -278 416 -299 q 369 -215 369 -258 q 392 -151 369 -172 q 455 -130 416 -130 q 516 -152 493 -130 q 539 -215 539 -174 q 516 -278 539 -258 q 453 -299 493 -299 z "},"Ỳ":{"ha":906,"x_min":38,"x_max":869,"o":"m 394 387 l 178 753 q 112 866 144 811 q 38 990 80 920 l 182 990 q 247 876 220 924 q 299 785 274 828 q 352 691 323 742 l 448 522 l 460 522 l 553 685 q 610 784 585 740 q 663 877 635 828 q 728 990 691 925 l 869 990 q 799 870 834 930 q 730 753 764 811 l 514 387 l 394 387 m 392 0 q 392 159 392 83 q 392 327 392 235 l 392 492 l 517 492 l 517 327 q 517 159 517 235 q 517 0 517 83 l 392 0 m 464 1092 q 390 1175 427 1134 q 316 1259 353 1217 q 240 1344 279 1301 l 368 1346 q 463 1220 415 1283 q 557 1094 510 1157 l 464 1092 z "},"Ỷ":{"ha":906,"x_min":38,"x_max":869,"o":"m 394 387 l 178 753 q 112 866 144 811 q 38 990 80 920 l 182 990 q 247 876 220 924 q 299 785 274 828 q 352 691 323 742 l 448 522 l 460 522 l 553 685 q 610 784 585 740 q 663 877 635 828 q 728 990 691 925 l 869 990 q 799 870 834 930 q 730 753 764 811 l 514 387 l 394 387 m 392 0 q 392 159 392 83 q 392 327 392 235 l 392 492 l 517 492 l 517 327 q 517 159 517 235 q 517 0 517 83 l 392 0 m 402 1093 l 402 1167 q 489 1195 453 1172 q 524 1253 524 1219 q 501 1296 524 1283 q 446 1308 478 1308 q 403 1304 424 1308 q 359 1292 381 1300 q 312 1272 337 1283 l 306 1349 q 335 1362 318 1356 q 372 1374 352 1369 q 415 1382 392 1378 q 461 1385 438 1385 q 538 1373 501 1385 q 597 1335 574 1361 q 619 1266 619 1309 q 599 1196 619 1224 q 545 1152 578 1167 q 478 1133 513 1136 l 478 1093 l 402 1093 z "},"Ȳ":{"ha":906,"x_min":38,"x_max":869,"o":"m 394 387 l 178 753 q 112 866 144 811 q 38 990 80 920 l 182 990 q 247 876 220 924 q 299 785 274 828 q 352 691 323 742 l 448 522 l 460 522 l 553 685 q 610 784 585 740 q 663 877 635 828 q 728 990 691 925 l 869 990 q 799 870 834 930 q 730 753 764 811 l 514 387 l 394 387 m 392 0 q 392 159 392 83 q 392 327 392 235 l 392 492 l 517 492 l 517 327 q 517 159 517 235 q 517 0 517 83 l 392 0 m 236 1160 l 236 1250 q 340 1250 285 1250 q 454 1250 395 1250 q 568 1250 514 1250 q 672 1250 623 1250 l 672 1160 q 568 1160 623 1160 q 454 1160 514 1160 q 340 1160 395 1160 q 236 1160 285 1160 z "},"Ỹ":{"ha":906,"x_min":38,"x_max":869,"o":"m 394 387 l 178 753 q 112 866 144 811 q 38 990 80 920 l 182 990 q 247 876 220 924 q 299 785 274 828 q 352 691 323 742 l 448 522 l 460 522 l 553 685 q 610 784 585 740 q 663 877 635 828 q 728 990 691 925 l 869 990 q 799 870 834 930 q 730 753 764 811 l 514 387 l 394 387 m 392 0 q 392 159 392 83 q 392 327 392 235 l 392 492 l 517 492 l 517 327 q 517 159 517 235 q 517 0 517 83 l 392 0 m 572 1089 q 500 1107 530 1089 q 445 1149 469 1125 q 399 1191 421 1173 q 352 1209 377 1209 q 296 1183 312 1209 q 278 1110 280 1158 l 208 1110 q 243 1249 208 1201 q 340 1297 279 1297 q 411 1279 381 1297 q 465 1238 441 1261 q 510 1196 488 1214 q 558 1178 533 1178 q 614 1203 598 1178 q 631 1276 629 1229 l 701 1276 q 666 1137 701 1185 q 572 1089 631 1089 z "},"Z":{"ha":933,"x_min":67,"x_max":860,"o":"m 67 0 l 67 72 q 155 188 106 124 q 253 316 203 251 q 344 435 303 381 l 722 927 l 751 883 l 468 883 q 282 883 381 883 q 78 883 184 883 l 78 990 l 855 990 l 855 900 q 727 735 790 816 q 603 572 665 653 l 205 55 l 186 108 l 444 108 q 582 108 506 108 q 731 108 658 108 q 860 108 804 108 l 860 0 l 67 0 z "},"Ź":{"ha":933,"x_min":67,"x_max":860,"o":"m 67 0 l 67 72 q 155 188 106 124 q 253 316 203 251 q 344 435 303 381 l 722 927 l 751 883 l 468 883 q 282 883 381 883 q 78 883 184 883 l 78 990 l 855 990 l 855 900 q 727 735 790 816 q 603 572 665 653 l 205 55 l 186 108 l 444 108 q 582 108 506 108 q 731 108 658 108 q 860 108 804 108 l 860 0 l 67 0 m 364 1092 q 459 1219 412 1156 q 552 1344 506 1281 l 681 1346 q 605 1261 642 1303 q 531 1177 568 1219 q 457 1094 494 1135 l 364 1092 z "},"Ž":{"ha":933,"x_min":67,"x_max":860,"o":"m 67 0 l 67 72 q 155 188 106 124 q 253 316 203 251 q 344 435 303 381 l 722 927 l 751 883 l 468 883 q 282 883 381 883 q 78 883 184 883 l 78 990 l 855 990 l 855 900 q 727 735 790 816 q 603 572 665 653 l 205 55 l 186 108 l 444 108 q 582 108 506 108 q 731 108 658 108 q 860 108 804 108 l 860 0 l 67 0 m 404 1092 q 310 1218 357 1156 q 215 1344 263 1281 l 308 1345 q 395 1243 352 1294 q 484 1140 439 1192 l 451 1140 q 538 1242 495 1192 q 625 1342 581 1292 l 718 1342 q 625 1218 672 1281 q 530 1092 578 1156 l 404 1092 z "},"Ż":{"ha":933,"x_min":67,"x_max":860,"o":"m 67 0 l 67 72 q 155 188 106 124 q 253 316 203 251 q 344 435 303 381 l 722 927 l 751 883 l 468 883 q 282 883 381 883 q 78 883 184 883 l 78 990 l 855 990 l 855 900 q 727 735 790 816 q 603 572 665 653 l 205 55 l 186 108 l 444 108 q 582 108 506 108 q 731 108 658 108 q 860 108 804 108 l 860 0 l 67 0 m 465 1129 q 403 1150 427 1129 q 380 1214 380 1170 q 403 1277 380 1256 q 466 1299 427 1299 q 527 1276 504 1299 q 550 1214 550 1254 q 527 1150 550 1170 q 465 1129 504 1129 z "},"Ẓ":{"ha":933,"x_min":67,"x_max":860,"o":"m 67 0 l 67 72 q 155 188 106 124 q 253 316 203 251 q 344 435 303 381 l 722 927 l 751 883 l 468 883 q 282 883 381 883 q 78 883 184 883 l 78 990 l 855 990 l 855 900 q 727 735 790 816 q 603 572 665 653 l 205 55 l 186 108 l 444 108 q 582 108 506 108 q 731 108 658 108 q 860 108 804 108 l 860 0 l 67 0 m 466 -299 q 405 -278 428 -299 q 381 -215 381 -258 q 405 -151 381 -172 q 467 -130 428 -130 q 528 -152 506 -130 q 551 -215 551 -174 q 528 -278 551 -258 q 466 -299 506 -299 z "},"a":{"ha":726,"x_min":74,"x_max":625,"o":"m 281 -14 q 172 10 219 -14 q 100 78 126 34 q 74 185 74 123 q 94 280 74 242 q 147 343 114 319 q 219 381 179 367 q 298 401 258 394 l 514 439 q 495 545 517 509 q 436 593 474 581 q 351 606 398 606 q 301 602 328 606 q 243 591 274 599 q 180 573 213 584 q 110 546 147 562 l 103 651 q 160 671 128 661 q 227 689 192 681 q 301 701 263 697 q 376 705 338 705 q 509 681 453 705 q 595 604 565 656 q 625 468 625 552 q 625 387 625 436 q 625 293 625 338 l 625 203 q 625 107 625 156 q 625 0 625 58 l 521 0 l 515 98 l 503 98 q 449 44 482 70 q 374 2 417 19 q 281 -14 331 -14 m 314 81 q 388 97 351 81 q 457 142 424 112 q 511 218 489 172 l 512 367 q 482 354 501 360 q 427 340 464 348 q 326 320 391 332 q 256 298 287 313 q 208 255 226 282 q 190 190 190 228 q 226 106 190 131 q 314 81 262 81 z "},"á":{"ha":720,"x_min":74,"x_max":625,"o":"m 281 -14 q 172 10 219 -14 q 100 78 126 34 q 74 185 74 123 q 94 280 74 242 q 147 343 114 319 q 219 381 179 367 q 298 401 258 394 l 514 439 q 495 545 517 509 q 436 593 474 581 q 351 606 398 606 q 301 602 328 606 q 243 591 274 599 q 180 573 213 584 q 110 546 147 562 l 103 651 q 160 671 128 661 q 227 689 192 681 q 301 701 263 697 q 376 705 338 705 q 509 681 453 705 q 595 604 565 656 q 625 468 625 552 q 625 387 625 436 q 625 293 625 338 l 625 203 q 625 107 625 156 q 625 0 625 58 l 521 0 l 515 98 l 503 98 q 449 44 482 70 q 374 2 417 19 q 281 -14 331 -14 m 314 81 q 388 97 351 81 q 457 142 424 112 q 511 218 489 172 l 512 367 q 482 354 501 360 q 427 340 464 348 q 326 320 391 332 q 256 298 287 313 q 208 255 226 282 q 190 190 190 228 q 226 106 190 131 q 314 81 262 81 m 265 801 q 360 940 313 871 q 453 1078 408 1010 l 582 1081 q 506 987 544 1033 q 432 894 469 940 q 358 803 395 849 l 265 801 z "},"ă":{"ha":720,"x_min":74,"x_max":625,"o":"m 281 -14 q 172 10 219 -14 q 100 78 126 34 q 74 185 74 123 q 94 280 74 242 q 147 343 114 319 q 219 381 179 367 q 298 401 258 394 l 514 439 q 495 545 517 509 q 436 593 474 581 q 351 606 398 606 q 301 602 328 606 q 243 591 274 599 q 180 573 213 584 q 110 546 147 562 l 103 651 q 160 671 128 661 q 227 689 192 681 q 301 701 263 697 q 376 705 338 705 q 509 681 453 705 q 595 604 565 656 q 625 468 625 552 q 625 387 625 436 q 625 293 625 338 l 625 203 q 625 107 625 156 q 625 0 625 58 l 521 0 l 515 98 l 503 98 q 449 44 482 70 q 374 2 417 19 q 281 -14 331 -14 m 314 81 q 388 97 351 81 q 457 142 424 112 q 511 218 489 172 l 512 367 q 482 354 501 360 q 427 340 464 348 q 326 320 391 332 q 256 298 287 313 q 208 255 226 282 q 190 190 190 228 q 226 106 190 131 q 314 81 262 81 m 366 794 q 200 860 257 794 q 142 1054 142 926 l 227 1058 q 263 923 227 965 q 366 880 299 880 q 470 922 434 880 q 506 1054 506 964 l 590 1054 q 565 911 590 969 q 490 824 540 853 q 366 794 440 794 z "},"ắ":{"ha":720,"x_min":74,"x_max":625,"o":"m 281 -14 q 172 10 219 -14 q 100 78 126 34 q 74 185 74 123 q 94 280 74 242 q 147 343 114 319 q 219 381 179 367 q 298 401 258 394 l 514 439 q 495 545 517 509 q 436 593 474 581 q 351 606 398 606 q 301 602 328 606 q 243 591 274 599 q 180 573 213 584 q 110 546 147 562 l 103 651 q 160 671 128 661 q 227 689 192 681 q 301 701 263 697 q 376 705 338 705 q 509 681 453 705 q 595 604 565 656 q 625 468 625 552 q 625 387 625 436 q 625 293 625 338 l 625 203 q 625 107 625 156 q 625 0 625 58 l 521 0 l 515 98 l 503 98 q 449 44 482 70 q 374 2 417 19 q 281 -14 331 -14 m 314 81 q 388 97 351 81 q 457 142 424 112 q 511 218 489 172 l 512 367 q 482 354 501 360 q 427 340 464 348 q 326 320 391 332 q 256 298 287 313 q 208 255 226 282 q 190 190 190 228 q 226 106 190 131 q 314 81 262 81 m 367 794 q 201 858 258 794 q 144 1047 144 922 l 227 1050 q 263 917 227 959 q 367 875 299 875 q 472 916 436 875 q 508 1047 508 958 l 592 1047 q 566 908 592 964 q 491 823 541 851 q 367 794 441 794 m 281 1061 q 372 1195 326 1128 q 462 1326 417 1262 l 578 1329 q 507 1239 542 1284 q 437 1150 472 1194 q 367 1063 402 1106 l 281 1061 z "},"ặ":{"ha":720,"x_min":74,"x_max":625,"o":"m 281 -14 q 172 10 219 -14 q 100 78 126 34 q 74 185 74 123 q 94 280 74 242 q 147 343 114 319 q 219 381 179 367 q 298 401 258 394 l 514 439 q 495 545 517 509 q 436 593 474 581 q 351 606 398 606 q 301 602 328 606 q 243 591 274 599 q 180 573 213 584 q 110 546 147 562 l 103 651 q 160 671 128 661 q 227 689 192 681 q 301 701 263 697 q 376 705 338 705 q 509 681 453 705 q 595 604 565 656 q 625 468 625 552 q 625 387 625 436 q 625 293 625 338 l 625 203 q 625 107 625 156 q 625 0 625 58 l 521 0 l 515 98 l 503 98 q 449 44 482 70 q 374 2 417 19 q 281 -14 331 -14 m 314 81 q 388 97 351 81 q 457 142 424 112 q 511 218 489 172 l 512 367 q 482 354 501 360 q 427 340 464 348 q 326 320 391 332 q 256 298 287 313 q 208 255 226 282 q 190 190 190 228 q 226 106 190 131 q 314 81 262 81 m 367 -299 q 306 -278 330 -299 q 283 -215 283 -258 q 306 -151 283 -172 q 369 -130 330 -130 q 430 -152 407 -130 q 453 -215 453 -174 q 430 -278 453 -258 q 367 -299 407 -299 m 366 794 q 200 860 257 794 q 142 1054 142 926 l 227 1058 q 263 923 227 965 q 366 880 299 880 q 470 922 434 880 q 506 1054 506 964 l 590 1054 q 565 911 590 969 q 490 824 540 853 q 366 794 440 794 z "},"ằ":{"ha":720,"x_min":74,"x_max":625,"o":"m 281 -14 q 172 10 219 -14 q 100 78 126 34 q 74 185 74 123 q 94 280 74 242 q 147 343 114 319 q 219 381 179 367 q 298 401 258 394 l 514 439 q 495 545 517 509 q 436 593 474 581 q 351 606 398 606 q 301 602 328 606 q 243 591 274 599 q 180 573 213 584 q 110 546 147 562 l 103 651 q 160 671 128 661 q 227 689 192 681 q 301 701 263 697 q 376 705 338 705 q 509 681 453 705 q 595 604 565 656 q 625 468 625 552 q 625 387 625 436 q 625 293 625 338 l 625 203 q 625 107 625 156 q 625 0 625 58 l 521 0 l 515 98 l 503 98 q 449 44 482 70 q 374 2 417 19 q 281 -14 331 -14 m 314 81 q 388 97 351 81 q 457 142 424 112 q 511 218 489 172 l 512 367 q 482 354 501 360 q 427 340 464 348 q 326 320 391 332 q 256 298 287 313 q 208 255 226 282 q 190 190 190 228 q 226 106 190 131 q 314 81 262 81 m 367 794 q 201 858 258 794 q 144 1047 144 922 l 227 1050 q 263 917 227 959 q 367 875 299 875 q 472 916 436 875 q 508 1047 508 958 l 592 1047 q 566 908 592 964 q 491 823 541 851 q 367 794 441 794 m 377 1061 q 308 1149 342 1105 q 238 1237 273 1192 q 167 1326 203 1281 l 283 1329 q 372 1197 327 1263 q 463 1063 417 1130 l 377 1061 z "},"ẳ":{"ha":720,"x_min":74,"x_max":625,"o":"m 281 -14 q 172 10 219 -14 q 100 78 126 34 q 74 185 74 123 q 94 280 74 242 q 147 343 114 319 q 219 381 179 367 q 298 401 258 394 l 514 439 q 495 545 517 509 q 436 593 474 581 q 351 606 398 606 q 301 602 328 606 q 243 591 274 599 q 180 573 213 584 q 110 546 147 562 l 103 651 q 160 671 128 661 q 227 689 192 681 q 301 701 263 697 q 376 705 338 705 q 509 681 453 705 q 595 604 565 656 q 625 468 625 552 q 625 387 625 436 q 625 293 625 338 l 625 203 q 625 107 625 156 q 625 0 625 58 l 521 0 l 515 98 l 503 98 q 449 44 482 70 q 374 2 417 19 q 281 -14 331 -14 m 314 81 q 388 97 351 81 q 457 142 424 112 q 511 218 489 172 l 512 367 q 482 354 501 360 q 427 340 464 348 q 326 320 391 332 q 256 298 287 313 q 208 255 226 282 q 190 190 190 228 q 226 106 190 131 q 314 81 262 81 m 367 794 q 201 858 258 794 q 144 1047 144 922 l 227 1050 q 263 917 227 959 q 367 875 299 875 q 472 916 436 875 q 508 1047 508 958 l 592 1047 q 566 908 592 964 q 491 823 541 851 q 367 794 441 794 m 321 1060 l 321 1131 q 404 1174 370 1149 q 438 1232 438 1199 q 416 1274 438 1262 q 362 1286 393 1286 q 321 1282 341 1286 q 279 1270 301 1278 q 234 1251 258 1262 l 228 1323 q 257 1334 240 1328 q 292 1345 273 1340 q 332 1354 310 1351 q 376 1357 353 1357 q 448 1345 413 1357 q 504 1308 482 1333 q 526 1243 526 1283 q 506 1176 526 1203 q 454 1129 485 1148 q 391 1099 423 1110 l 391 1060 l 321 1060 z "},"ẵ":{"ha":720,"x_min":74,"x_max":625,"o":"m 281 -14 q 172 10 219 -14 q 100 78 126 34 q 74 185 74 123 q 94 280 74 242 q 147 343 114 319 q 219 381 179 367 q 298 401 258 394 l 514 439 q 495 545 517 509 q 436 593 474 581 q 351 606 398 606 q 301 602 328 606 q 243 591 274 599 q 180 573 213 584 q 110 546 147 562 l 103 651 q 160 671 128 661 q 227 689 192 681 q 301 701 263 697 q 376 705 338 705 q 509 681 453 705 q 595 604 565 656 q 625 468 625 552 q 625 387 625 436 q 625 293 625 338 l 625 203 q 625 107 625 156 q 625 0 625 58 l 521 0 l 515 98 l 503 98 q 449 44 482 70 q 374 2 417 19 q 281 -14 331 -14 m 314 81 q 388 97 351 81 q 457 142 424 112 q 511 218 489 172 l 512 367 q 482 354 501 360 q 427 340 464 348 q 326 320 391 332 q 256 298 287 313 q 208 255 226 282 q 190 190 190 228 q 226 106 190 131 q 314 81 262 81 m 367 794 q 200 858 258 794 q 143 1047 143 922 l 226 1050 q 263 917 226 959 q 367 875 299 875 q 472 916 435 875 q 508 1047 508 958 l 591 1047 q 566 908 591 964 q 490 823 540 851 q 367 794 440 794 m 482 1107 q 411 1124 441 1107 q 359 1165 382 1142 q 314 1206 335 1188 q 267 1223 292 1223 q 212 1198 228 1223 q 195 1127 197 1174 l 128 1127 q 163 1259 128 1213 q 256 1304 197 1304 q 326 1287 297 1304 q 378 1247 355 1269 q 423 1206 401 1224 q 469 1188 444 1188 q 524 1213 508 1188 q 540 1284 540 1238 l 608 1284 q 574 1153 608 1199 q 482 1107 540 1107 z "},"â":{"ha":720,"x_min":74,"x_max":625,"o":"m 281 -14 q 172 10 219 -14 q 100 78 126 34 q 74 185 74 123 q 94 280 74 242 q 147 343 114 319 q 219 381 179 367 q 298 401 258 394 l 514 439 q 495 545 517 509 q 436 593 474 581 q 351 606 398 606 q 301 602 328 606 q 243 591 274 599 q 180 573 213 584 q 110 546 147 562 l 103 651 q 160 671 128 661 q 227 689 192 681 q 301 701 263 697 q 376 705 338 705 q 509 681 453 705 q 595 604 565 656 q 625 468 625 552 q 625 387 625 436 q 625 293 625 338 l 625 203 q 625 107 625 156 q 625 0 625 58 l 521 0 l 515 98 l 503 98 q 449 44 482 70 q 374 2 417 19 q 281 -14 331 -14 m 314 81 q 388 97 351 81 q 457 142 424 112 q 511 218 489 172 l 512 367 q 482 354 501 360 q 427 340 464 348 q 326 320 391 332 q 256 298 287 313 q 208 255 226 282 q 190 190 190 228 q 226 106 190 131 q 314 81 262 81 m 525 800 q 439 912 482 857 q 351 1024 396 967 l 382 1024 q 295 913 338 967 q 208 803 253 858 l 115 803 q 209 940 162 871 q 303 1078 256 1009 l 429 1078 q 524 940 476 1009 q 618 801 571 871 l 525 800 z "},"ấ":{"ha":720,"x_min":74,"x_max":820,"o":"m 281 -14 q 172 10 219 -14 q 100 78 126 34 q 74 185 74 123 q 94 280 74 242 q 147 343 114 319 q 219 381 179 367 q 298 401 258 394 l 514 439 q 495 545 517 509 q 436 593 474 581 q 351 606 398 606 q 301 602 328 606 q 243 591 274 599 q 180 573 213 584 q 110 546 147 562 l 103 651 q 160 671 128 661 q 227 689 192 681 q 301 701 263 697 q 376 705 338 705 q 509 681 453 705 q 595 604 565 656 q 625 468 625 552 q 625 387 625 436 q 625 293 625 338 l 625 203 q 625 107 625 156 q 625 0 625 58 l 521 0 l 515 98 l 503 98 q 449 44 482 70 q 374 2 417 19 q 281 -14 331 -14 m 314 81 q 388 97 351 81 q 457 142 424 112 q 511 218 489 172 l 512 367 q 482 354 501 360 q 427 340 464 348 q 326 320 391 332 q 256 298 287 313 q 208 255 226 282 q 190 190 190 228 q 226 106 190 131 q 314 81 262 81 m 524 1018 q 615 1151 569 1084 q 704 1283 660 1218 l 820 1286 q 749 1196 785 1240 q 679 1107 714 1151 q 610 1019 644 1063 l 524 1018 m 122 803 q 215 938 168 870 q 308 1074 262 1006 l 422 1074 q 351 983 385 1028 q 281 893 316 938 q 212 803 247 848 l 122 803 m 525 800 q 455 891 490 846 q 385 982 420 937 q 315 1074 351 1028 l 428 1074 q 521 938 474 1006 q 614 801 567 870 l 525 800 z "},"ậ":{"ha":720,"x_min":74,"x_max":625,"o":"m 281 -14 q 172 10 219 -14 q 100 78 126 34 q 74 185 74 123 q 94 280 74 242 q 147 343 114 319 q 219 381 179 367 q 298 401 258 394 l 514 439 q 495 545 517 509 q 436 593 474 581 q 351 606 398 606 q 301 602 328 606 q 243 591 274 599 q 180 573 213 584 q 110 546 147 562 l 103 651 q 160 671 128 661 q 227 689 192 681 q 301 701 263 697 q 376 705 338 705 q 509 681 453 705 q 595 604 565 656 q 625 468 625 552 q 625 387 625 436 q 625 293 625 338 l 625 203 q 625 107 625 156 q 625 0 625 58 l 521 0 l 515 98 l 503 98 q 449 44 482 70 q 374 2 417 19 q 281 -14 331 -14 m 314 81 q 388 97 351 81 q 457 142 424 112 q 511 218 489 172 l 512 367 q 482 354 501 360 q 427 340 464 348 q 326 320 391 332 q 256 298 287 313 q 208 255 226 282 q 190 190 190 228 q 226 106 190 131 q 314 81 262 81 m 367 -299 q 306 -278 330 -299 q 283 -215 283 -258 q 306 -151 283 -172 q 369 -130 330 -130 q 430 -152 407 -130 q 453 -215 453 -174 q 430 -278 453 -258 q 367 -299 407 -299 m 525 800 q 439 912 482 857 q 351 1024 396 967 l 382 1024 q 295 913 338 967 q 208 803 253 858 l 115 803 q 209 940 162 871 q 303 1078 256 1009 l 429 1078 q 524 940 476 1009 q 618 801 571 871 l 525 800 z "},"ầ":{"ha":720,"x_min":74,"x_max":688,"o":"m 281 -14 q 172 10 219 -14 q 100 78 126 34 q 74 185 74 123 q 94 280 74 242 q 147 343 114 319 q 219 381 179 367 q 298 401 258 394 l 514 439 q 495 545 517 509 q 436 593 474 581 q 351 606 398 606 q 301 602 328 606 q 243 591 274 599 q 180 573 213 584 q 110 546 147 562 l 103 651 q 160 671 128 661 q 227 689 192 681 q 301 701 263 697 q 376 705 338 705 q 509 681 453 705 q 595 604 565 656 q 625 468 625 552 q 625 387 625 436 q 625 293 625 338 l 625 203 q 625 107 625 156 q 625 0 625 58 l 521 0 l 515 98 l 503 98 q 449 44 482 70 q 374 2 417 19 q 281 -14 331 -14 m 314 81 q 388 97 351 81 q 457 142 424 112 q 511 218 489 172 l 512 367 q 482 354 501 360 q 427 340 464 348 q 326 320 391 332 q 256 298 287 313 q 208 255 226 282 q 190 190 190 228 q 226 106 190 131 q 314 81 262 81 m 602 1017 q 533 1105 568 1061 q 463 1193 498 1149 q 392 1283 428 1238 l 507 1285 q 597 1153 552 1220 q 688 1019 642 1086 l 602 1017 m 122 803 q 215 938 168 870 q 308 1074 262 1006 l 422 1074 q 351 983 385 1028 q 281 893 316 938 q 212 803 247 848 l 122 803 m 525 800 q 455 891 490 846 q 385 982 420 937 q 315 1074 351 1028 l 428 1074 q 521 938 474 1006 q 614 801 567 870 l 525 800 z "},"ẩ":{"ha":720,"x_min":74,"x_max":752,"o":"m 281 -14 q 172 10 219 -14 q 100 78 126 34 q 74 185 74 123 q 94 280 74 242 q 147 343 114 319 q 219 381 179 367 q 298 401 258 394 l 514 439 q 495 545 517 509 q 436 593 474 581 q 351 606 398 606 q 301 602 328 606 q 243 591 274 599 q 180 573 213 584 q 110 546 147 562 l 103 651 q 160 671 128 661 q 227 689 192 681 q 301 701 263 697 q 376 705 338 705 q 509 681 453 705 q 595 604 565 656 q 625 468 625 552 q 625 387 625 436 q 625 293 625 338 l 625 203 q 625 107 625 156 q 625 0 625 58 l 521 0 l 515 98 l 503 98 q 449 44 482 70 q 374 2 417 19 q 281 -14 331 -14 m 314 81 q 388 97 351 81 q 457 142 424 112 q 511 218 489 172 l 512 367 q 482 354 501 360 q 427 340 464 348 q 326 320 391 332 q 256 298 287 313 q 208 255 226 282 q 190 190 190 228 q 226 106 190 131 q 314 81 262 81 m 122 803 q 215 938 168 870 q 308 1074 262 1006 l 422 1074 q 351 983 385 1028 q 281 893 316 938 q 212 803 247 848 l 122 803 m 525 800 q 455 891 490 846 q 385 982 420 937 q 315 1074 351 1028 l 428 1074 q 521 938 474 1006 q 614 801 567 870 l 525 800 m 547 1018 l 547 1089 q 631 1132 597 1107 q 665 1190 665 1157 q 642 1232 665 1220 q 588 1244 619 1244 q 547 1240 567 1244 q 506 1228 527 1236 q 460 1209 484 1220 l 455 1281 q 483 1293 467 1287 q 518 1304 499 1299 q 559 1312 538 1309 q 602 1315 580 1315 q 674 1303 640 1315 q 730 1267 708 1292 q 752 1201 752 1242 q 732 1134 752 1162 q 681 1088 712 1106 q 617 1057 650 1069 l 617 1018 l 547 1018 z "}}}
